<svg width="1440" height="900" viewBox="0 0 1440 900" fill="none" xmlns="http://www.w3.org/2000/svg">
<rect width="1440" height="900" fill="white"/>
<g opacity="0.15">
<path d="M207.797 404.403C206.745 404.374 205.614 404.9 204.839 405.774C204.453 406.224 204.353 406.427 204.14 407.222L203.89 408.157L202.858 407.926C201.718 407.667 201.091 407.729 200.14 408.188C198.954 408.745 198.026 410.361 198.127 411.701C198.149 412.052 198.536 413.526 198.992 414.961C199.448 416.395 199.827 417.648 199.847 417.745C199.855 417.886 199.728 417.886 199.18 417.74C198.267 417.495 197.48 417.641 196.615 418.204C194.818 419.368 194.616 421.927 196.216 423.346L196.559 423.657L195.684 424.343C190.428 428.45 185.742 433.733 183.264 438.342C182.268 440.17 181.846 441.185 181.292 442.994C180.262 446.368 180.191 448.951 181.064 451.452C181.838 453.675 183.526 455.669 185.78 457.01C186.522 457.462 186.619 457.488 198.501 460.707C206.959 462.996 210.724 463.982 211.36 464.06C215.774 464.598 219.847 462.374 221.972 458.269C222.438 457.346 222.591 456.904 223.129 454.895C223.788 452.435 223.938 451.359 223.971 448.789C224.028 443.635 222.617 436.913 220.196 430.911L219.782 429.879L220.234 429.782C220.477 429.732 220.884 429.588 221.13 429.446C221.611 429.195 222.338 428.458 222.419 428.157C222.459 428.007 222.537 428.016 222.888 428.167C223.999 428.661 225.126 430.172 225.411 431.514C225.588 432.356 225.679 432.53 226.108 432.737C226.525 432.941 227.207 432.629 227.331 432.167C227.507 431.512 227.031 429.934 226.324 428.835C225.857 428.088 224.638 426.921 224.036 426.633C223.841 426.546 223.68 426.457 223.686 426.436C223.689 426.425 224.199 426.112 224.825 425.751C226.122 424.993 226.923 424.195 227.604 422.984C228.219 421.894 228.378 421.257 228.123 420.832C227.772 420.209 226.825 420.22 226.521 420.84C226.454 420.961 226.267 421.359 226.099 421.729C225.92 422.095 225.562 422.656 225.279 422.983C224.737 423.632 223.392 424.526 222.753 424.677L222.346 424.776L221.869 424.279C221.488 423.855 221.269 423.727 220.604 423.503C220.003 423.296 219.832 423.204 219.904 423.108C219.956 423.042 220.91 422.146 222.022 421.131C223.134 420.117 224.207 419.035 224.401 418.741C225.164 417.61 225.163 415.768 224.402 414.654C223.815 413.795 223.33 413.458 222.192 413.107L221.183 412.79L221.434 411.856C221.646 411.061 221.661 410.835 221.544 410.239C221.376 409.365 220.888 408.521 220.231 407.965L219.715 407.527L213.974 405.966C210.819 405.109 208.036 404.409 207.797 404.403ZM218.964 409.387C219.621 409.897 219.9 410.961 219.548 411.673C219.473 411.826 218.24 413.464 216.822 415.317C214.067 418.896 213.964 419.065 214.393 419.571C214.665 419.886 215.305 420.034 215.597 419.847C215.807 419.708 216.396 418.968 219.374 415.115L219.904 414.428L221.043 414.733C222.45 415.11 222.846 415.435 223.039 416.304C223.264 417.354 223.137 417.528 220.176 420.245L217.548 422.661L209.825 420.592L202.113 418.525L201.045 415.119C199.829 411.282 199.805 411.068 200.525 410.271C201.127 409.615 201.633 409.532 203.04 409.909L204.179 410.214L204.294 411.074C204.361 411.552 204.56 413.045 204.739 414.394C204.929 415.792 205.147 416.955 205.25 417.086C205.492 417.428 206.086 417.575 206.426 417.379C206.998 417.048 206.992 416.943 206.403 412.525C206.102 410.211 205.853 408.176 205.864 408.006C205.912 407.225 206.675 406.439 207.492 406.313C208.033 406.227 218.516 409.036 218.964 409.387ZM220.597 425.677C221.072 426.311 221.032 427.06 220.506 427.564C219.9 428.15 220.099 428.18 213.45 426.398L207.413 424.781L207.018 425.009C206.511 425.311 206.363 425.777 206.641 426.243L206.827 426.581L212.187 428.017L217.547 429.453L218.177 430.969C221.157 438.238 222.475 445.176 221.977 451.075C221.85 452.664 221.222 455.225 220.618 456.617C219.647 458.867 218.665 459.996 216.772 461.089C215.726 461.684 215.338 461.845 214.377 462.036C212.204 462.456 213.306 462.682 199.536 458.992C185.765 455.302 186.833 455.658 185.161 454.208C184.416 453.548 184.165 453.239 183.56 452.19C182.47 450.286 182.184 448.817 182.465 446.394C182.636 444.897 183.372 442.366 184.049 440.912C186.517 435.656 191.057 430.356 197.168 425.593L198.696 424.402L200.382 424.854C201.929 425.269 202.096 425.29 202.363 425.154C202.752 424.948 202.941 424.584 202.854 424.181C202.751 423.578 202.526 423.471 200.045 422.806C197.51 422.127 197.296 422.024 197.09 421.289C196.885 420.59 197.226 419.921 197.954 419.61C198.304 419.462 198.304 419.462 209.336 422.418C220.367 425.374 220.367 425.374 220.597 425.677Z" fill="#2E45D5"/>
<path d="M189.82 438.027C189.638 438.105 189.43 438.279 189.371 438.413C189.192 438.78 189.309 439.375 189.6 439.58C189.744 439.687 190.505 439.938 191.3 440.151L192.74 440.536L191.709 444.382L190.676 448.238L190.866 448.519C191.123 448.933 191.428 449.084 191.831 448.996C192.443 448.861 192.505 448.716 193.573 444.731L194.566 441.025L196.059 441.426C197.466 441.803 197.587 441.823 197.897 441.653C198.425 441.403 198.581 440.95 198.346 440.45L198.148 440.028L194.142 438.955C190.318 437.93 190.133 437.892 189.82 438.027Z" fill="#2E45D5"/>
<path d="M203.541 441.727C203.337 441.845 202.115 443.267 200.283 445.551C198.674 447.561 197.288 449.296 197.221 449.416C196.897 449.939 197.462 450.793 198.078 450.728C198.502 450.692 198.697 450.525 199.559 449.456L200.344 448.503L202.213 449.004L204.082 449.505L204.285 450.722C204.497 452.08 204.582 452.321 204.931 452.564C205.432 452.929 206.349 452.472 206.33 451.857C206.332 451.719 205.999 449.523 205.611 446.979C205.166 444.085 204.819 442.242 204.701 442.038C204.585 441.869 204.356 441.692 204.184 441.646C204.013 441.6 203.726 441.638 203.541 441.727ZM203.555 446.059C203.649 446.695 203.718 447.254 203.706 447.297C203.692 447.351 203.254 447.268 202.717 447.124C202.19 446.983 201.758 446.833 201.773 446.779C201.807 446.65 203.267 444.854 203.321 444.868C203.353 444.877 203.452 445.41 203.555 446.059Z" fill="#2E45D5"/>
<path d="M210.824 443.713C210.201 444.064 210.22 444.38 211.045 446.8C211.445 448.012 211.743 449.048 211.702 449.117C211.649 449.184 210.858 449.904 209.938 450.717C208.67 451.839 208.242 452.277 208.17 452.546C208.069 452.922 208.272 453.367 208.648 453.595C209.102 453.878 209.44 453.692 210.932 452.376C211.742 451.672 212.423 451.107 212.456 451.115C212.488 451.124 212.774 451.903 213.077 452.836C213.393 453.761 213.721 454.643 213.802 454.769C214.055 455.159 214.671 455.266 215.066 454.992C215.249 454.868 215.436 454.642 215.48 454.481C215.531 454.288 215.292 453.418 214.794 451.926L214.028 449.672L215.825 448.081C216.805 447.215 217.644 446.404 217.676 446.286C217.86 445.598 217.293 444.963 216.572 445.034C216.464 445.051 215.693 445.651 214.866 446.373L213.36 447.697L212.816 446.077C212.515 445.179 212.179 444.283 212.075 444.071C211.814 443.587 211.29 443.435 210.824 443.713Z" fill="#2E45D5"/>
</g>
<g opacity="0.15">
<path d="M115.341 105.346C115.008 105.692 114.995 105.732 114.995 107.49V109.287L114.236 109.367C112.012 109.607 111.067 109.74 109.722 110.046C99.9094 112.23 91.8142 119.619 88.7252 129.232C88.0063 131.443 87.7133 132.987 87.3672 136.223L87.2873 136.995H85.4898C83.7323 136.995 83.6924 137.008 83.3462 137.341L83 137.687L83.0799 139.485C83.7856 154.091 93.7847 166.42 107.871 170.015C110.974 170.814 112.585 171 116.06 171C119.522 171 121.106 170.814 124.275 170.015C135.872 167.072 145.072 157.872 148.015 146.275C148.814 143.106 149 141.522 149 138.06C149 134.585 148.814 132.974 148.015 129.871C145.991 121.923 141.131 115.092 134.274 110.552C129.268 107.224 123.609 105.386 117.511 105.093L115.687 105L115.341 105.346ZM120.507 107.516C124.381 108.049 128.416 109.487 131.997 111.631C135.938 113.974 140.159 118.181 142.489 122.122C145.032 126.383 146.43 130.83 146.883 136.023L146.963 136.995H132.051H117.125V122.069V107.157L118.097 107.237C118.616 107.277 119.708 107.41 120.507 107.516ZM114.995 124.519V137.594L105.728 146.847L96.4743 156.101L96.0615 155.635C88.9915 147.473 87.447 136.116 92.0938 126.49C95.236 119.992 100.881 115.052 107.738 112.789C109.842 112.097 112.532 111.577 114.702 111.444L114.995 111.431V124.519ZM87.3538 139.884C87.7932 144.038 88.419 146.621 89.7771 149.71C96.3012 164.542 114.089 171.04 128.642 163.89C136.378 160.082 141.837 153.358 143.954 144.983C144.247 143.838 144.553 141.894 144.753 139.884L144.833 139.125H145.898H146.963L146.883 140.017C146.43 145.157 145.179 149.271 142.835 153.372C141.371 155.941 139.746 158.032 137.55 160.162C129.627 167.858 118.51 170.72 107.845 167.818C102.905 166.473 98.325 163.823 94.5703 160.175C92.7329 158.378 91.6544 157.086 90.283 155.009C87.3938 150.655 85.7162 145.702 85.2368 140.084L85.1569 139.125H86.2221H87.2873L87.3538 139.884ZM142.609 140.017C142.063 146.009 139.893 151.188 136.045 155.635L135.646 156.101L127.151 147.606L118.656 139.125H130.679H142.702L142.609 140.017ZM125.114 148.658L134.101 157.646L133.702 157.978C132.463 159.017 131.039 160.082 130.04 160.695C128.962 161.374 126.592 162.559 125.953 162.758L125.646 162.838V158.764V154.69L125.313 154.37C125.007 154.051 124.927 154.037 123.183 154.037H121.386V152.24C121.386 150.496 121.372 150.416 121.053 150.11C120.747 149.79 120.667 149.777 118.923 149.777H117.125V147.979C117.125 146.235 117.112 146.155 116.792 145.849C116.473 145.516 116.446 145.516 113.93 145.516C111.413 145.516 111.387 145.516 111.067 145.849L110.734 146.168V150.11V154.037H108.937C107.192 154.037 107.113 154.051 106.806 154.37L106.473 154.69V158.764V162.838L106.181 162.758C105.528 162.559 103.158 161.374 102.08 160.695C101.001 160.016 99.4967 158.91 98.4848 158.045L98.0188 157.646L107.006 148.645C111.946 143.705 116.02 139.658 116.06 139.658C116.1 139.658 120.174 143.705 125.114 148.658ZM114.995 156.181V164.729L114.502 164.636C114.223 164.596 113.743 164.556 113.437 164.556H112.864V156.101V147.646H113.93H114.995V156.181ZM119.255 158.231V164.556H118.696C118.377 164.556 117.897 164.596 117.631 164.636L117.125 164.729V158.311V151.907H118.19H119.255V158.231ZM110.734 160.162V164.156L110.375 164.076C110.162 164.037 109.682 163.903 109.309 163.797L108.604 163.61V159.882V156.168H109.669H110.734V160.162ZM123.516 159.896V163.61L122.824 163.81C122.438 163.917 121.958 164.037 121.759 164.076L121.386 164.156V160.162V156.168H122.451H123.516V159.896Z" fill="#2E45D5"/>
<path d="M126.979 115.878C124.915 116.331 123.57 117.063 122.052 118.608C121.16 119.5 120.787 120.006 120.348 120.885C119.522 122.549 119.323 123.441 119.336 125.412C119.349 126.836 119.403 127.236 119.696 128.141C120.202 129.672 120.894 130.791 122.119 132.002C123.357 133.241 124.249 133.8 125.873 134.372C126.939 134.745 127.205 134.785 128.709 134.785C130.68 134.798 131.585 134.599 133.21 133.773C136.552 132.109 138.655 128.381 138.389 124.599C138.216 122.243 137.311 120.299 135.566 118.555C133.716 116.704 131.798 115.852 129.242 115.759C128.35 115.719 127.538 115.772 126.979 115.878ZM131.253 118.248C133.236 118.981 134.634 120.206 135.5 122.003C137.51 126.184 135.46 130.897 130.973 132.415C129.894 132.788 127.591 132.748 126.526 132.362C124.143 131.496 122.518 129.819 121.706 127.409C121.52 126.876 121.453 126.29 121.453 125.278C121.453 123.175 122.119 121.524 123.53 120.086C124.595 119.007 125.927 118.275 127.445 117.942C128.377 117.742 130.281 117.902 131.253 118.248Z" fill="#2E45D5"/>
<path d="M127.78 119.418C127.78 119.818 127.727 119.951 127.567 119.951C126.129 119.951 124.584 121.615 124.584 123.146C124.584 124.677 126.129 126.342 127.567 126.342C127.74 126.342 127.78 126.515 127.78 127.407C127.78 128.272 127.74 128.472 127.58 128.472C127.314 128.472 126.715 127.873 126.715 127.607C126.715 127.447 126.515 127.407 125.65 127.407C124.758 127.407 124.584 127.447 124.584 127.62C124.584 128.951 126.235 130.602 127.567 130.602C127.727 130.602 127.78 130.735 127.78 131.135V131.667H128.845H129.91V131.135C129.91 130.709 129.964 130.602 130.15 130.602C130.789 130.602 131.655 130.15 132.214 129.537C133.452 128.166 133.412 126.501 132.107 125.21C131.481 124.584 130.749 124.211 130.123 124.211C129.95 124.211 129.91 124.038 129.91 123.146C129.91 121.948 130.057 121.815 130.643 122.414C130.829 122.587 130.975 122.827 130.975 122.946C130.975 123.106 131.175 123.146 132.041 123.146C132.933 123.146 133.106 123.106 133.106 122.933C133.106 121.921 132.041 120.51 131.015 120.164C130.669 120.044 130.283 119.951 130.15 119.951C129.964 119.951 129.91 119.844 129.91 119.418V118.886H128.845H127.78V119.418ZM127.78 123.146C127.78 124.012 127.74 124.211 127.58 124.211C127.221 124.211 126.715 123.586 126.715 123.146C126.715 122.707 127.221 122.081 127.58 122.081C127.74 122.081 127.78 122.281 127.78 123.146ZM130.643 126.675C130.856 126.874 130.975 127.154 130.975 127.407C130.975 127.846 130.47 128.472 130.11 128.472C129.95 128.472 129.91 128.272 129.91 127.407C129.91 126.209 130.057 126.075 130.643 126.675Z" fill="#2E45D5"/>
<path d="M103.277 125.81C103.277 126.21 103.224 126.343 103.064 126.343C101.626 126.343 100.082 128.007 100.082 129.538C100.082 131.069 101.626 132.734 103.064 132.734C103.237 132.734 103.277 132.907 103.277 133.799C103.277 134.664 103.237 134.864 103.077 134.864C102.811 134.864 102.212 134.265 102.212 133.999C102.212 133.839 102.012 133.799 101.147 133.799C100.255 133.799 100.082 133.839 100.082 134.012C100.082 135.343 101.733 136.994 103.064 136.994C103.224 136.994 103.277 137.128 103.277 137.527V138.06H104.342H105.407V137.527C105.407 137.101 105.461 136.994 105.647 136.994C106.286 136.994 107.152 136.542 107.711 135.929C108.949 134.558 108.909 132.894 107.604 131.602C106.978 130.976 106.246 130.603 105.62 130.603C105.447 130.603 105.407 130.43 105.407 129.538C105.407 128.673 105.447 128.473 105.607 128.473C105.873 128.473 106.473 129.072 106.473 129.339C106.473 129.498 106.672 129.538 107.538 129.538C108.43 129.538 108.603 129.498 108.603 129.325C108.603 128.313 107.538 126.902 106.512 126.556C106.166 126.436 105.78 126.343 105.647 126.343C105.461 126.343 105.407 126.236 105.407 125.81V125.278H104.342H103.277V125.81ZM103.277 129.538C103.277 130.404 103.237 130.603 103.077 130.603C102.718 130.603 102.212 129.978 102.212 129.538C102.212 129.099 102.718 128.473 103.077 128.473C103.237 128.473 103.277 128.673 103.277 129.538ZM106.14 133.067C106.353 133.266 106.473 133.546 106.473 133.799C106.473 134.238 105.967 134.864 105.607 134.864C105.447 134.864 105.407 134.664 105.407 133.799C105.407 132.601 105.554 132.467 106.14 133.067Z" fill="#2E45D5"/>
</g>
<g opacity="0.15">
<path d="M1255.73 705.565C1254.98 706.128 1254.65 706.484 1254.09 707.414C1253.28 708.69 1252.94 708.918 1250.65 709.679C1249.5 710.064 1248.39 710.514 1248.07 710.736C1247.47 711.152 1246.42 713.017 1246.55 713.417C1246.62 713.625 1246.1 713.833 1241.99 715.201C1238.23 716.451 1237.2 716.842 1236.64 717.227C1235.67 717.914 1234.85 719.275 1234.65 720.527L1234.5 721.551L1244.01 750.132L1253.53 778.729L1254.08 779.318C1254.78 780.075 1256.11 780.739 1257.21 780.883L1258.08 781.007L1280.65 773.498L1303.21 765.989L1303.92 765.326C1304.78 764.495 1305.32 763.407 1305.48 762.185C1305.56 761.383 1305.51 761.037 1305.13 759.859C1304.7 758.567 1304.63 758.458 1304.22 758.3C1303.65 758.077 1303.03 758.299 1302.75 758.804C1302.57 759.145 1302.58 759.388 1302.86 760.219C1303.34 761.724 1303.11 763.005 1302.18 763.762C1301.92 763.979 1295.07 766.306 1279.94 771.34L1258.07 778.617L1257.32 778.488C1256.8 778.399 1256.38 778.191 1256 777.824L1255.44 777.3L1246.17 749.446L1236.9 721.577L1237.02 720.81C1237.1 720.241 1237.28 719.885 1237.68 719.469C1238.22 718.945 1238.36 718.881 1242.65 717.453L1247.08 715.981L1247.74 717.985C1248.39 719.93 1248.44 720.014 1248.91 720.237L1249.39 720.49L1261.65 716.409C1269.64 713.752 1274 712.235 1274.15 712.086C1274.49 711.725 1274.38 710.82 1273.76 708.949L1273.21 707.286L1277.59 705.829C1282.35 704.243 1282.6 704.194 1283.6 704.753C1283.9 704.917 1284.27 705.253 1284.47 705.501C1284.71 705.818 1285.72 708.698 1287.88 715.201C1290.9 724.273 1290.96 724.466 1291.36 724.664C1291.89 724.932 1292.69 724.65 1292.93 724.126C1293.1 723.74 1292.98 723.349 1289.89 714.04L1286.67 704.374L1286.01 703.671C1285.2 702.819 1284.2 702.294 1282.97 702.091L1282.07 701.947L1277.15 703.518L1272.24 705.103L1271.56 704.569C1270.82 703.96 1269.96 703.667 1269.07 703.716C1268.75 703.741 1267.59 704.042 1266.51 704.403C1264.25 705.153 1263.91 705.168 1262.28 704.588C1260.65 703.994 1260.13 704.003 1258.06 704.626C1256.86 704.991 1256.09 705.312 1255.73 705.565ZM1260.36 706.532C1260.68 706.557 1261.35 706.73 1261.84 706.929C1263.5 707.597 1264.12 707.573 1266.97 706.724C1270.23 705.755 1270.03 705.656 1270.99 708.537L1271.67 710.601L1260.91 714.182L1250.14 717.764L1249.48 715.774C1248.85 713.874 1248.83 713.75 1249.03 713.236L1249.25 712.701L1251.73 711.777C1254.53 710.73 1254.91 710.473 1255.93 708.88C1256.25 708.361 1256.71 707.797 1256.91 707.629C1257.52 707.164 1259.67 706.482 1260.36 706.532Z" fill="#2E45D5"/>
<path d="M1258.28 709.895C1258.01 710.118 1257.94 711.013 1258.18 711.379C1258.52 711.924 1259.06 711.994 1260.14 711.633C1260.99 711.351 1261.17 711.243 1261.34 710.857C1261.63 710.214 1261.37 709.526 1260.75 709.303C1260.36 709.169 1260.06 709.188 1259.35 709.44C1258.86 709.603 1258.37 709.816 1258.28 709.895Z" fill="#2E45D5"/>
<path d="M1241.08 721.01C1240.61 721.43 1240.3 722.128 1240.27 722.746C1240.25 723.083 1242.66 730.462 1248.1 746.824C1256.78 772.896 1256.09 771.065 1257.41 771.516L1258.1 771.763L1271.14 767.475C1284.17 763.172 1284.17 763.172 1284.45 762.732C1284.83 762.178 1284.61 761.377 1284.02 761.079C1283.62 760.881 1283.43 760.945 1270.85 765.13L1258.08 769.378L1250.33 746.068L1242.57 722.757L1244.03 722.273C1245.36 721.828 1245.5 721.749 1245.69 721.339C1245.97 720.735 1245.75 720.131 1245.15 719.839C1244.69 719.596 1244.56 719.621 1243.06 720.12C1242.06 720.471 1241.32 720.797 1241.08 721.01Z" fill="#2E45D5"/>
<path d="M1277.06 709.153C1276.73 709.643 1276.9 710.395 1277.4 710.772C1277.66 710.95 1277.95 710.92 1279.27 710.545L1280.83 710.11L1283.39 717.554C1285.85 724.715 1285.97 725.007 1286.3 725.126C1286.82 725.285 1287.41 725.038 1287.72 724.573L1287.98 724.172L1285.42 716.466C1282.94 709.013 1282.84 708.765 1282.39 708.355C1281.6 707.661 1280.64 707.616 1278.86 708.209C1277.57 708.639 1277.32 708.772 1277.06 709.153Z" fill="#2E45D5"/>
<path d="M1255.37 724.798C1255.24 724.942 1254.61 726.074 1253.98 727.306L1252.83 729.567L1251.74 729.007C1251.14 728.695 1250.47 728.442 1250.25 728.432C1249.44 728.387 1248.86 729.258 1249.13 730.089C1249.18 730.223 1250.12 730.783 1251.24 731.352C1254.08 732.799 1253.87 732.917 1255.87 728.92C1257.25 726.17 1257.41 725.735 1257.27 725.304C1257.17 724.992 1256.93 724.74 1256.62 724.596C1256.1 724.324 1255.74 724.378 1255.37 724.798Z" fill="#2E45D5"/>
<path d="M1261.28 724.81C1260.68 725.389 1261.03 726.592 1261.85 726.716C1262.07 726.755 1264.87 725.891 1270.29 724.088C1278.2 721.455 1278.4 721.39 1278.59 720.995C1278.89 720.401 1278.59 719.629 1277.97 719.406C1277.48 719.223 1277.34 719.267 1269.51 721.89C1264.25 723.639 1261.47 724.632 1261.28 724.81Z" fill="#2E45D5"/>
<path d="M1258.48 734.385C1258.32 734.587 1257.69 735.735 1257.09 736.907L1256 739.069L1254.9 738.51C1254.31 738.197 1253.63 737.945 1253.41 737.935C1252.64 737.895 1252.03 738.79 1252.3 739.592C1252.34 739.725 1253.28 740.285 1254.4 740.855C1257.24 742.316 1257.03 742.42 1259.03 738.423C1260.38 735.732 1260.58 735.237 1260.44 734.836C1260.14 733.93 1259.03 733.672 1258.48 734.385Z" fill="#2E45D5"/>
<path d="M1264.58 734.234C1264.17 734.585 1264.02 735.313 1264.27 735.689C1264.86 736.501 1264.51 736.565 1271.57 734.218C1277.8 732.143 1278.01 732.059 1278.19 731.683C1278.46 731.149 1278.18 730.352 1277.66 730.115C1277.27 729.946 1276.91 730.05 1271.05 731.967C1267.64 733.083 1264.73 734.101 1264.58 734.234Z" fill="#2E45D5"/>
<path d="M1285.17 728.704C1280.88 730.676 1277.59 734.489 1276.3 738.977C1273.91 747.274 1278.45 756.005 1286.59 758.79C1291.46 760.451 1296.6 759.78 1300.94 756.918C1302.22 756.077 1304.23 754.089 1305.1 752.828C1305.47 752.293 1305.8 751.853 1305.84 751.838C1305.89 751.824 1306.76 752.225 1307.78 752.745C1309.62 753.666 1309.64 753.676 1309.62 754.226C1309.61 755.037 1310.02 756.057 1310.61 756.685C1311 757.116 1313.11 758.26 1318.99 761.203C1323.3 763.377 1327.2 765.23 1327.65 765.329C1328.31 765.488 1328.63 765.449 1329.5 765.157C1330.41 764.856 1330.63 764.717 1331.14 764.119C1331.49 763.689 1331.79 763.095 1331.92 762.556C1332.09 761.789 1332.07 761.531 1331.77 760.626C1331.48 759.75 1331.32 759.473 1330.8 759.037C1330.45 758.74 1326.63 756.729 1322.31 754.574C1316.43 751.631 1314.25 750.626 1313.67 750.571C1312.81 750.476 1311.75 750.763 1311.11 751.257C1310.68 751.599 1310.66 751.589 1308.82 750.667C1307.79 750.167 1306.95 749.706 1306.93 749.662C1306.92 749.617 1307.07 749.088 1307.28 748.474C1307.78 747.04 1308.15 744.244 1308.07 742.705C1307.66 735.352 1302.5 729.253 1295.28 727.631C1292.13 726.916 1288.14 727.335 1285.17 728.704ZM1290.72 729.677C1295.64 729.209 1300.75 731.731 1303.57 736.022C1304.5 737.443 1305.54 740.427 1305.68 742.065C1305.9 744.861 1305.45 747.172 1304.21 749.66C1302.96 752.139 1301.38 753.885 1299.01 755.383C1297.62 756.258 1294.6 757.211 1292.91 757.314C1283.24 757.908 1275.93 748.913 1278.54 739.651C1279.2 737.335 1280.61 735.02 1282.43 733.324C1284.68 731.207 1287.46 729.987 1290.72 729.677ZM1314.33 753.204L1315.26 753.635L1314.64 754.881L1314.02 756.128L1313.11 755.638C1312.01 755.014 1311.71 754.39 1312.14 753.618C1312.57 752.832 1313.21 752.703 1314.33 753.204ZM1323.32 757.682C1327.38 759.728 1329.28 760.763 1329.45 761.035C1329.95 761.827 1329.37 762.975 1328.44 763.054C1328.12 763.078 1326.16 762.181 1322.04 760.136L1316.11 757.163L1316.7 755.976C1317.03 755.323 1317.33 754.779 1317.37 754.764C1317.42 754.749 1320.1 756.067 1323.32 757.682Z" fill="#2E45D5"/>
<path d="M1287.2 733.322C1286.64 733.574 1285.77 734.078 1285.26 734.444C1283.07 736.081 1282.6 737.095 1283.72 737.828C1284.27 738.19 1284.84 738.017 1285.61 737.23C1287.03 735.801 1289.4 734.733 1291.33 734.65C1294.34 734.523 1297.24 735.901 1298.97 738.227C1300.31 740.024 1300.85 742.024 1300.64 744.418C1300.51 746.026 1300.58 746.318 1301.18 746.596C1301.7 746.834 1302.27 746.695 1302.6 746.255C1302.9 745.86 1303.12 743.94 1303.02 742.554C1302.93 741.149 1302.11 738.684 1301.34 737.506C1298.25 732.744 1292.43 731.019 1287.2 733.322Z" fill="#2E45D5"/>
<path d="M1281.09 740.78C1280.61 741.68 1280.53 744.065 1280.96 745.887C1282.2 751.36 1287.13 755.015 1292.76 754.642C1294.16 754.553 1296.63 753.733 1297.81 752.962C1298.98 752.21 1300.38 750.885 1300.52 750.41C1300.68 749.861 1300.43 749.287 1299.92 749.059C1299.32 748.781 1299.09 748.875 1297.87 749.938C1296.08 751.541 1294.16 752.312 1291.92 752.315C1289.02 752.339 1286.17 750.813 1284.48 748.343C1283.39 746.744 1282.82 744.21 1283.12 742.216C1283.28 741.123 1283.08 740.563 1282.46 740.34C1281.82 740.108 1281.38 740.256 1281.09 740.78Z" fill="#2E45D5"/>
<path d="M1260.48 746.187L1259.27 748.601L1258 748.001C1256.94 747.496 1256.65 747.427 1256.22 747.57C1255.64 747.763 1255.26 748.485 1255.44 749.034C1255.55 749.361 1259.2 751.312 1259.75 751.342C1260.38 751.363 1260.77 750.823 1262.25 747.806C1263.56 745.194 1263.73 744.724 1263.6 744.323C1263.39 743.699 1262.78 743.407 1262.16 743.615C1261.74 743.753 1261.53 744.089 1260.48 746.187Z" fill="#2E45D5"/>
<path d="M1267.39 744.281C1267.17 744.934 1267.29 745.256 1267.89 745.618C1268.38 745.915 1268.41 745.905 1270.05 745.361C1271.61 744.843 1271.72 744.788 1271.87 744.358C1272.1 743.789 1271.85 743.111 1271.36 742.863C1271 742.685 1270.77 742.729 1269.27 743.228C1267.61 743.782 1267.57 743.811 1267.39 744.281Z" fill="#2E45D5"/>
<path d="M1263.64 755.69L1262.43 758.104L1261.15 757.49C1260 756.95 1259.82 756.91 1259.35 757.118C1258.65 757.414 1258.37 758.152 1258.72 758.711C1258.99 759.132 1261.97 760.732 1262.7 760.851C1262.96 760.895 1263.34 760.836 1263.51 760.713C1263.69 760.604 1264.53 759.12 1265.38 757.403C1266.72 754.697 1266.89 754.227 1266.76 753.826C1266.55 753.203 1265.94 752.91 1265.32 753.118C1264.91 753.256 1264.69 753.593 1263.64 755.69Z" fill="#2E45D5"/>
<path d="M1270.6 753.62C1270.33 754.253 1270.48 754.783 1271.03 755.11C1271.55 755.417 1271.56 755.412 1273.18 754.873C1275.06 754.246 1275.38 753.944 1275.08 753.053C1274.77 752.133 1274.36 752.088 1272.45 752.725C1271.02 753.199 1270.74 753.343 1270.6 753.62Z" fill="#2E45D5"/>
</g>
<g opacity="0.15">
<path d="M171.858 721.312C167.516 722.228 163.327 724.674 160.294 728.081C156.427 732.423 154.495 737.654 154.635 743.429C154.701 746.267 155.807 750.151 157.287 752.761C157.522 753.181 157.718 753.579 157.723 753.628C157.727 753.677 157.424 753.852 157.059 754.008C156.126 754.401 155.056 755.297 154.783 755.923C154.559 756.422 154.558 756.544 154.848 759.681C155.014 761.481 155.124 762.942 155.088 762.945C155.063 762.948 154.737 762.867 154.371 762.754C153.262 762.427 151.679 762.279 150.042 762.344C148.711 762.406 148.456 762.442 148.206 762.649C147.977 762.829 147.918 762.982 147.951 763.347C148.022 764.113 148.276 764.212 150.063 764.169C152.411 764.1 154.444 764.476 155.128 765.112C155.356 765.324 155.357 765.336 155.114 765.616C154.535 766.258 152.69 766.993 150.571 767.421C147.813 767.958 143.991 767.599 142.961 766.677L142.654 766.398L142.98 766.086C143.16 765.91 143.612 765.623 143.963 765.444C144.327 765.263 144.71 765.031 144.809 764.912C145.099 764.591 145.005 763.974 144.609 763.667C144.213 763.361 143.743 763.453 142.696 764.065C141.777 764.603 141.273 765.128 141.051 765.774C140.887 766.255 140.913 766.804 141.659 774.89C142.426 783.194 142.467 783.509 142.74 783.938C143.244 784.75 144.235 785.259 146.024 785.646C146.574 785.754 147.445 785.895 147.952 785.934C149.138 786.033 152.629 785.723 153.728 785.413C155.019 785.049 156.752 784.3 157.348 783.84L157.874 783.436L158.943 783.852C161.525 784.865 165.451 784.883 168.708 783.895C170.091 783.473 171.315 782.919 171.919 782.422L172.342 782.088L173.311 782.489C174.446 782.961 176.091 783.251 177.886 783.293C181.252 783.363 185.397 782.171 186.76 780.733C187.642 779.793 187.627 780.028 187.147 774.824C186.667 769.632 186.671 769.668 185.745 769.067C183.174 767.391 177.279 767.421 173.367 769.143L172.2 769.655L171.922 766.64C171.73 764.561 171.68 763.621 171.777 763.612C171.85 763.605 172.334 763.671 172.856 763.745C175.606 764.178 179.256 764.001 181.817 763.311C187.786 761.693 192.689 757.549 195.464 751.751C199.649 743.014 197.731 733.001 190.643 726.616C188.45 724.648 187.949 724.4 187.398 725.076C186.901 725.662 187.048 725.93 188.62 727.281C190.309 728.707 191.44 729.939 192.517 731.508C197.391 738.611 196.813 748.291 191.098 755.195C186.487 760.771 179.897 763.108 172.433 761.823L171.462 761.655L171.173 758.53C171.006 756.718 170.807 755.228 170.709 754.968C170.203 753.604 167.989 752.729 164.764 752.598C164.1 752.573 162.905 752.647 161.608 752.816L159.523 753.069L158.856 751.831C156.529 747.472 155.891 742.822 156.97 738.173C157.257 736.896 158.215 734.392 158.844 733.23C160.544 730.13 163.057 727.458 165.992 725.642C167.581 724.662 168.958 724.032 170.758 723.473C172.557 722.903 175.912 722.593 177.869 722.805C179.293 722.955 181.22 723.366 182.486 723.801C183.397 724.109 183.812 724.083 184.119 723.687C184.36 723.383 184.39 723.037 184.221 722.672C184.011 722.25 181.174 721.408 178.938 721.1C176.603 720.776 174.023 720.854 171.858 721.312ZM164.145 754.396C166.134 754.421 167.796 754.758 168.641 755.281C169.057 755.537 169.071 755.548 168.874 755.811C168.242 756.667 165.31 757.71 162.963 757.927C160.823 758.124 158.234 757.836 157.078 757.268C156.254 756.854 156.282 756.618 157.208 756.03C158.879 754.993 161.578 754.351 164.145 754.396ZM157.766 759.412C159.398 759.825 160.704 759.889 163.003 759.689C165.386 759.469 166.836 759.102 168.421 758.342C168.843 758.132 169.208 757.963 169.232 757.961C169.257 757.959 169.318 758.358 169.364 758.856C169.442 759.707 169.425 759.783 169.11 760.094C168.404 760.809 166.281 761.593 164.093 761.93C161.893 762.28 159.09 762.061 157.571 761.416L156.882 761.124L156.751 760.106C156.628 759.174 156.646 759.098 156.848 759.165C156.974 759.203 157.389 759.312 157.766 759.412ZM157.732 763.425C159.47 763.926 162.39 764.074 164.359 763.757C165.822 763.524 167.601 763.004 168.706 762.485C169.14 762.274 169.541 762.102 169.589 762.097C169.626 762.094 169.701 762.504 169.747 763.002C169.842 764.036 169.747 764.204 168.817 764.756C166.258 766.255 160.834 766.744 158.175 765.701C157.259 765.345 157.204 765.276 157.105 764.206C157.057 763.683 157.042 763.256 157.078 763.252C157.102 763.25 157.403 763.32 157.732 763.425ZM160.462 768.029C161.987 768.207 164.594 768.027 166.238 767.63C167.353 767.356 169.024 766.736 169.903 766.287C170.008 766.228 170.064 766.443 170.132 767.173C170.228 768.219 170.188 768.32 169.435 768.795C166.978 770.333 161.967 770.919 158.951 769.995C157.74 769.629 157.591 769.471 157.488 768.352L157.401 767.416L158.443 767.676C159.007 767.807 159.917 767.969 160.462 768.029ZM144.154 769.105C145.846 769.5 147.35 769.582 149.368 769.396C151.386 769.21 152.85 768.854 154.441 768.155C155.005 767.895 155.501 767.69 155.538 767.686C155.562 767.684 155.624 768.095 155.669 768.581C155.751 769.469 155.742 769.507 155.391 769.821C153.954 771.119 149.601 772.048 146.528 771.706C145.078 771.545 143.859 771.217 143.409 770.866C143.145 770.657 143.095 770.515 143.023 769.736C142.978 769.25 142.965 768.847 142.99 768.844C143.026 768.841 143.551 768.952 144.154 769.105ZM145.92 773.491C147.299 773.683 150.752 773.499 152.168 773.16C153.343 772.867 154.684 772.388 155.421 772.001L155.958 771.706L156.045 772.655C156.146 773.749 156.104 773.826 155.103 774.397C153.717 775.199 152.544 775.504 149.954 775.743C147.364 775.982 146.155 775.897 144.646 775.362C143.557 774.985 143.501 774.916 143.401 773.834L143.314 772.886L144.071 773.122C144.487 773.243 145.324 773.411 145.92 773.491ZM159.568 772.023C161.215 772.337 162.614 772.343 164.905 772.058C166.991 771.804 167.995 771.527 169.572 770.805C169.936 770.637 170.291 770.494 170.34 770.489C170.388 770.485 170.472 770.857 170.515 771.331C170.604 772.292 170.511 772.484 169.678 773.015C168.114 774.005 164.427 774.714 161.872 774.533C160.352 774.415 158.987 774.1 158.401 773.737C157.959 773.459 157.958 773.447 157.869 772.486L157.779 771.514L158.15 771.676C158.353 771.755 158.993 771.904 159.568 772.023ZM181.142 769.688C183.254 769.849 184.936 770.405 184.923 770.921C184.905 771.266 183.731 771.963 182.365 772.445C179.396 773.491 174.327 773.432 172.804 772.346L172.357 772.02L172.749 771.616C173.185 771.158 174.491 770.56 175.914 770.171C177.18 769.809 179.747 769.584 181.142 769.688ZM147.376 777.71C148.326 777.769 149.083 777.736 150.672 777.541C152.878 777.263 154.086 776.931 155.553 776.219L156.351 775.839L156.406 776.827L156.461 777.828L155.946 778.219C155.303 778.695 153.694 779.334 152.313 779.645C151.124 779.915 148.466 780.086 147.401 779.964C146.323 779.843 144.83 779.478 144.364 779.214C143.951 778.995 143.936 778.959 143.812 778.014L143.685 777.045L144.913 777.324C145.59 777.482 146.698 777.662 147.376 777.71ZM160.271 776.189C161.988 776.459 163.178 776.46 165.25 776.195C167.335 775.929 168.602 775.579 170.022 774.884L170.808 774.505L170.891 775.404C170.968 776.231 170.952 776.331 170.675 776.651C170.308 777.052 169.464 777.474 168.063 777.971C166.685 778.454 163.197 778.8 161.647 778.612C160.408 778.469 159.428 778.216 158.834 777.891C158.42 777.659 158.406 777.636 158.278 776.654L158.15 775.661L158.732 775.852C159.06 775.957 159.749 776.114 160.271 776.189ZM175.139 774.926C176.333 775.111 176.653 775.118 178.939 774.907C181.614 774.66 182.418 774.475 184.136 773.691C184.594 773.477 185.043 773.289 185.103 773.271C185.173 773.24 185.266 773.575 185.335 774.059C185.438 774.773 185.416 774.934 185.207 775.199C184.878 775.622 184.085 776.063 182.769 776.552C181.772 776.914 181.399 776.985 179.394 777.182C177.656 777.355 176.91 777.375 176.116 777.277C174.877 777.133 173.897 776.881 173.303 776.555C172.889 776.324 172.875 776.3 172.747 775.319L172.619 774.325L173.226 774.527C173.554 774.631 174.417 774.809 175.139 774.926ZM145.553 781.471C147.408 781.901 148.798 781.956 151.053 781.675C153.319 781.38 154.739 780.954 156.519 780.042C156.694 779.952 156.725 780.023 156.802 780.85C156.902 781.932 156.85 782.035 155.803 782.646C154.162 783.607 150.876 784.266 148.459 784.121C146.954 784.027 145.39 783.693 144.744 783.336L144.253 783.062L144.163 782.09C144.095 781.348 144.111 781.126 144.237 781.163C144.312 781.181 144.914 781.322 145.553 781.471ZM159.8 780.119C161.481 780.528 162.578 780.586 164.973 780.365C167.623 780.121 168.998 779.736 170.988 778.706C171.163 778.617 171.194 778.687 171.27 779.502C171.341 780.28 171.319 780.442 171.109 780.682C170.262 781.606 167.695 782.493 165.131 782.742C163.04 782.935 160.273 782.589 159.213 782L158.722 781.727L158.632 780.754C158.549 779.854 158.567 779.779 158.769 779.846C158.883 779.885 159.348 780.002 159.8 780.119ZM176.139 779.114C176.945 779.211 177.727 779.188 179.442 779.03C181.922 778.801 182.953 778.546 184.645 777.74C185.162 777.496 185.597 777.297 185.621 777.294C185.646 777.292 185.695 777.692 185.74 778.179C185.836 779.224 185.719 779.419 184.681 779.993C182.849 781.008 179.923 781.585 177.335 781.444C175.928 781.353 174.304 781.024 173.697 780.688C173.271 780.458 173.256 780.434 173.13 779.465L173.003 778.484L174.043 778.731C174.621 778.874 175.556 779.045 176.139 779.114Z" fill="#2E45D5"/>
<path d="M168.434 734.307C165.992 735.342 165.57 739.538 167.7 741.634C168.253 742.172 169.329 742.539 170.168 742.461C172.284 742.266 173.686 739.659 173.003 737.172C172.366 734.79 170.31 733.509 168.434 734.307ZM170.151 736.037C170.626 736.263 171.113 737.027 171.295 737.796C171.622 739.212 170.717 740.841 169.697 740.678C168.887 740.544 168.054 739.223 168.109 738.09C168.163 736.944 168.805 735.928 169.51 735.863C169.644 735.851 169.933 735.935 170.151 736.037Z" fill="#2E45D5"/>
<path d="M180.346 733.293C179.878 733.803 170.582 750.798 170.608 751.078C170.67 751.746 171.279 752.095 171.866 751.82C172.126 751.71 173.206 749.857 177.029 742.919C181.064 735.618 181.856 734.111 181.813 733.771C181.757 733.298 181.516 733.075 181.007 733.012C180.711 732.99 180.556 733.041 180.346 733.293Z" fill="#2E45D5"/>
<path d="M181.561 742.611C180.563 742.949 179.837 743.727 179.398 744.945C179.155 745.629 179.137 745.839 179.243 746.982C179.354 748.186 179.39 748.317 179.837 749.036C181.338 751.485 184.135 751.497 185.467 749.056C186.747 746.719 185.66 743.312 183.414 742.624C182.808 742.435 182.084 742.428 181.561 742.611ZM183.226 744.567C184.425 745.474 184.524 747.868 183.405 748.768C182.915 749.169 182.708 749.188 182.177 748.882C181.286 748.4 180.787 746.975 181.078 745.746C181.22 745.157 181.617 744.544 182.005 744.361C182.31 744.21 182.895 744.303 183.226 744.567Z" fill="#2E45D5"/>
</g>
<g opacity="0.15">
<path d="M1250.53 95.9247C1247.64 95.6274 1244.97 97.7341 1244.65 100.561C1244.43 102.524 1245.29 104.435 1246.91 105.588C1247.29 105.865 1248 106.184 1249.39 106.715L1251.34 107.46L1250.02 110.936L1248.69 114.423L1248.85 114.771C1249.05 115.24 1249.53 115.422 1250 115.211L1250.36 115.05L1252.81 108.532L1255.27 102.004L1255.26 101.311C1255.25 100.938 1255.18 100.327 1255.1 99.9751L1254.94 99.3215L1270.93 105.454L1286.92 111.598L1287.3 112.015C1287.91 112.663 1288.18 113.245 1288.29 114.107L1288.4 114.896L1281.6 132.776L1274.79 150.662L1262.32 145.898C1254.04 142.735 1249.69 141.119 1249.42 141.086C1248.78 141.034 1247.91 141.331 1247.4 141.78C1246.82 142.307 1246.51 143.127 1246.56 143.98C1246.61 144.903 1246.11 146.196 1245.46 146.78C1244.74 147.4 1244.31 147.613 1243.43 147.73C1242.7 147.821 1242.57 147.805 1241.76 147.496C1240.95 147.187 1240.84 147.108 1240.36 146.556C1239.79 145.899 1239.54 145.294 1239.46 144.419C1239.42 143.914 1239.48 143.663 1240.23 141.527C1241.05 139.224 1241.07 139.183 1240.9 138.89C1240.67 138.494 1240.19 138.336 1239.77 138.532C1239.42 138.682 1239.41 138.693 1238.61 140.789C1237.72 143.134 1237.6 143.73 1237.74 144.963C1237.93 146.402 1238.94 147.965 1240.2 148.743C1240.9 149.178 1271.86 161.006 1272.7 161.158C1273.64 161.329 1275.01 161.159 1275.93 160.728C1278.6 159.51 1279.72 156.588 1278.59 153.871C1278.23 153.022 1277.39 151.977 1276.75 151.576L1276.42 151.379L1283.17 133.709C1287.6 122.129 1289.95 115.835 1290.03 115.448C1290.38 113.477 1289.49 111.353 1287.83 110.16C1287.01 109.587 1251.49 96.019 1250.53 95.9247ZM1252.47 98.7473C1253.01 99.3083 1253.39 100.169 1253.47 100.96C1253.53 101.542 1253.49 101.692 1252.76 103.696L1251.99 105.814L1249.89 104.978C1247.91 104.186 1247.77 104.12 1247.38 103.685C1245.19 101.326 1246.87 97.6053 1250.09 97.6602C1250.84 97.6713 1251.92 98.168 1252.47 98.7473ZM1276.38 153.66C1278.29 155.897 1276.9 159.194 1273.94 159.457L1273.25 159.526L1259.37 154.257L1245.47 148.975L1246.13 148.511C1247.12 147.783 1247.49 147.272 1247.95 146.054C1248.28 145.182 1248.33 144.883 1248.33 144.204C1248.33 143.311 1248.47 143.032 1249.01 142.904C1249.28 142.832 1250.49 143.281 1262.58 147.924L1275.85 153.028L1276.38 153.66Z" fill="#2E45D5"/>
<path d="M1260.12 110.159C1259.9 110.252 1259.72 110.434 1259.65 110.631C1259.57 110.828 1259.58 111.082 1259.69 111.301C1259.82 111.627 1259.92 111.687 1260.83 112.036L1261.82 112.413L1260.65 115.474L1259.48 118.545L1259.64 118.893C1259.73 119.119 1259.92 119.295 1260.11 119.37C1260.31 119.446 1260.56 119.436 1260.78 119.329L1261.14 119.179L1262.31 116.108L1263.48 113.047L1264.47 113.423C1265.38 113.772 1265.49 113.791 1265.81 113.64C1266.03 113.547 1266.21 113.365 1266.29 113.168C1266.36 112.971 1266.35 112.717 1266.25 112.498L1266.1 112.144L1263.28 111.069L1260.47 109.995L1260.12 110.159Z" fill="#2E45D5"/>
<path d="M1268.53 113.275C1268.22 113.381 1263.04 119.17 1262.88 119.585C1262.76 119.907 1263.05 120.492 1263.4 120.627C1263.87 120.805 1264.21 120.651 1264.75 120.014L1265.25 119.431L1266.56 119.93L1267.87 120.429L1267.85 121.195C1267.82 122.031 1267.98 122.375 1268.45 122.553C1268.8 122.688 1269.4 122.444 1269.53 122.122C1269.68 121.707 1269.69 113.944 1269.53 113.656C1269.45 113.519 1269.25 113.349 1269.09 113.289C1268.94 113.23 1268.68 113.225 1268.53 113.275ZM1267.88 117.498C1267.87 117.983 1267.85 118.404 1267.84 118.435C1267.83 118.476 1267.53 118.401 1267.19 118.27C1266.85 118.139 1266.58 118.001 1266.6 117.959C1266.65 117.824 1267.77 116.59 1267.83 116.61C1267.86 116.621 1267.88 117.023 1267.88 117.498Z" fill="#2E45D5"/>
<path d="M1273.41 115.234C1272.76 115.512 1272.77 115.801 1273.38 117.937L1273.94 119.898L1272.22 120.987C1270.34 122.172 1270.14 122.381 1270.43 123.016C1270.6 123.399 1271.04 123.64 1271.4 123.529C1271.52 123.502 1272.23 123.083 1272.96 122.616C1273.71 122.152 1274.35 121.779 1274.41 121.799C1274.46 121.819 1274.69 122.525 1274.93 123.369C1275.17 124.209 1275.42 124.993 1275.49 125.091C1275.69 125.416 1276.18 125.532 1276.55 125.355C1277.2 125.077 1277.19 124.788 1276.58 122.652L1276.02 120.691L1277.74 119.601C1279.62 118.417 1279.82 118.207 1279.53 117.572C1279.36 117.189 1278.92 116.949 1278.56 117.049C1278.44 117.086 1277.73 117.506 1277 117.973C1276.25 118.436 1275.61 118.81 1275.55 118.79C1275.5 118.77 1275.27 118.064 1275.02 117.22C1274.79 116.38 1274.54 115.596 1274.47 115.487C1274.27 115.173 1273.78 115.057 1273.41 115.234Z" fill="#2E45D5"/>
<path d="M1247.95 115.867C1240.93 114.527 1234.41 119.72 1234.17 126.822C1234.12 128.585 1234.5 130.394 1235.26 132.03C1235.83 133.257 1236.25 133.88 1237.16 134.907C1239.63 137.658 1243.13 139.008 1246.86 138.648C1248.14 138.532 1249.33 138.189 1250.6 137.59C1251.88 136.988 1252.57 136.536 1253.49 135.686C1256.24 133.147 1257.57 129.636 1257.17 125.962C1257.01 124.57 1256.82 123.844 1256.27 122.562C1254.76 119.097 1251.62 116.567 1247.95 115.867ZM1251.37 119.228C1254.29 121.344 1255.78 124.696 1255.41 128.337C1255.29 129.562 1254.47 131.734 1253.79 132.696C1251.56 135.782 1248.22 137.276 1244.44 136.877C1243.25 136.756 1241.09 135.91 1240.08 135.167C1237.4 133.216 1235.83 130.058 1235.96 126.875C1236.21 120.68 1241.86 116.346 1247.98 117.662C1248.72 117.824 1250.68 118.727 1251.37 119.228Z" fill="#2E45D5"/>
<path d="M1259.71 126.174C1259.49 126.266 1259.31 126.448 1259.24 126.645C1259.16 126.843 1259.17 127.096 1259.28 127.315L1259.43 127.67L1263.98 129.41C1268.43 131.11 1268.55 131.154 1268.9 131.039C1269.4 130.885 1269.64 130.262 1269.37 129.815C1269.18 129.494 1269.07 129.45 1264.62 127.75L1260.06 126.01L1259.71 126.174Z" fill="#2E45D5"/>
<path d="M1258.64 131.472C1258.42 131.564 1258.24 131.747 1258.16 131.944C1258.09 132.141 1258.1 132.395 1258.2 132.614L1258.35 132.968L1265.73 135.786L1273.11 138.605L1273.46 138.44C1273.68 138.348 1273.86 138.166 1273.94 137.969C1274.01 137.772 1274 137.518 1273.89 137.299L1273.74 136.944L1266.37 134.126L1258.99 131.308L1258.64 131.472Z" fill="#2E45D5"/>
<path d="M1256.74 136.453C1256.51 136.545 1256.34 136.727 1256.26 136.924C1256.19 137.121 1256.2 137.375 1256.3 137.594L1256.45 137.949L1263.83 140.767L1271.21 143.585L1271.56 143.421C1271.78 143.329 1271.96 143.146 1272.03 142.949C1272.11 142.752 1272.1 142.499 1271.99 142.279L1271.84 141.925L1264.46 139.107L1257.09 136.288L1256.74 136.453Z" fill="#2E45D5"/>
<path d="M1250.54 124.029L1250.87 123.148L1243.75 120.428L1243.42 121.309L1245.86 122.244C1246.36 122.433 1246.76 122.794 1247 123.259C1247.24 123.723 1247.3 124.259 1247.17 124.762L1242.74 123.071L1242.41 123.952L1246.84 125.643C1246.6 126.106 1246.19 126.465 1245.71 126.65C1245.22 126.836 1244.67 126.835 1244.18 126.649L1241.73 125.714L1241.34 126.747L1244.16 132.195L1245.01 131.768L1242.56 127.038L1243.85 127.53C1244.57 127.807 1245.38 127.802 1246.1 127.517C1246.82 127.231 1247.41 126.685 1247.74 125.988L1249.53 126.672L1249.86 125.791L1248.07 125.107C1248.27 124.426 1248.23 123.695 1247.95 123.039L1250.54 124.029Z" fill="#2E45D5"/>
</g>
</svg>
