<svg width="38" height="40" viewBox="0 0 38 40" fill="none" xmlns="http://www.w3.org/2000/svg">
<path d="M22.4016 0.0767441C19.5799 0.405029 16.766 1.71817 14.6322 3.71133C11.9121 6.25164 10.3723 9.47197 10.1221 13.1613C9.99708 14.9747 10.4739 17.515 11.2633 19.2658C11.3884 19.5472 11.49 19.813 11.49 19.8442C11.49 19.8755 11.2868 19.9693 11.0445 20.0475C10.427 20.2429 9.69224 20.7509 9.4812 21.1339C9.30924 21.4388 9.30143 21.5169 9.30143 23.5335C9.30143 24.6903 9.28579 25.6283 9.26235 25.6283C9.24671 25.6283 9.04349 25.558 8.81681 25.4642C8.12898 25.1906 7.12849 25.003 6.0811 24.9483C5.22912 24.9092 5.06498 24.917 4.89302 25.0343C4.73669 25.1359 4.6898 25.2297 4.6898 25.4642C4.6898 25.9566 4.84612 26.0348 5.9873 26.1129C7.48804 26.2067 8.7621 26.5663 9.16073 27.0118C9.29361 27.1603 9.29361 27.1681 9.12165 27.3323C8.7152 27.7074 7.49586 28.067 6.12018 28.2155C4.33024 28.3953 1.915 27.9419 1.31314 27.2932L1.13337 27.0978L1.36004 26.918C1.4851 26.8164 1.78994 26.6601 2.02443 26.5663C2.26673 26.4725 2.52467 26.3474 2.59502 26.2771C2.79824 26.0895 2.7748 25.6908 2.54031 25.472C2.30582 25.2531 2.00098 25.2844 1.29751 25.6127C0.68002 25.9019 0.328286 26.2067 0.14851 26.6053C0.0156326 26.9024 0 27.2541 0 32.452C0 37.7905 0.00781632 37.9937 0.156327 38.2829C0.429898 38.8301 1.03175 39.2131 2.14949 39.5648C2.49341 39.6664 3.04055 39.8071 3.36102 39.8618C4.11139 39.9947 6.35467 40.0025 7.07377 39.8697C7.91794 39.7133 9.06694 39.3381 9.47339 39.0802L9.83294 38.8535L10.4895 39.1818C12.0762 39.9791 14.5774 40.2214 16.7113 39.7837C17.618 39.5961 18.4309 39.3147 18.8452 39.0333L19.1344 38.8457L19.7284 39.1584C20.4241 39.5257 21.4558 39.8071 22.597 39.94C24.7387 40.1823 27.4509 39.6664 28.4045 38.8301C29.022 38.2829 28.9986 38.4314 28.9986 35.0861C28.9986 31.7485 28.9986 31.7719 28.4436 31.3342C26.9038 30.1149 23.1441 29.7866 20.5491 30.6542L19.7753 30.9121V28.9737C19.7753 27.6371 19.7988 27.0352 19.8613 27.0352C19.9082 27.0352 20.213 27.1056 20.5413 27.1838C22.2687 27.6215 24.6058 27.7231 26.2785 27.4339C30.1788 26.7539 33.5477 24.4011 35.6581 20.8682C38.8393 15.5452 38.2062 9.04988 34.0635 4.56331C32.7817 3.17982 32.4768 2.99223 32.086 3.39087C31.7343 3.73478 31.8124 3.91456 32.7348 4.86815C33.7274 5.87646 34.3762 6.72844 34.9702 7.79145C37.6591 12.6063 36.7211 18.7421 32.6722 22.8066C29.405 26.0895 25.067 27.1916 20.385 25.9331L19.7753 25.769V23.7602C19.7753 22.5956 19.7362 21.6342 19.6893 21.4622C19.447 20.5633 18.087 19.8755 16.0391 19.6019C15.617 19.5472 14.851 19.5238 14.0147 19.555L12.6703 19.5941L12.3185 18.7656C11.0914 15.8501 10.9585 12.8486 11.9199 9.94876C12.1778 9.15149 12.936 7.61168 13.405 6.90821C14.6712 5.03229 16.4299 3.47684 18.4074 2.49199C19.4783 1.96048 20.3928 1.64001 21.5731 1.38988C22.7533 1.13195 24.9106 1.13195 26.1456 1.38207C27.0445 1.56184 28.2482 1.93703 29.0298 2.28876C29.5926 2.53888 29.8584 2.5467 30.0772 2.31221C30.2492 2.13243 30.2883 1.91358 30.2023 1.67127C30.0929 1.38988 28.3342 0.686417 26.9272 0.358131C25.4578 0.0142136 23.8085 -0.0873985 22.4016 0.0767441ZM15.5389 20.7118C16.8051 20.8447 17.8447 21.1574 18.3527 21.5404C18.6029 21.728 18.6107 21.7358 18.47 21.8921C18.0166 22.4002 16.086 22.8926 14.5774 22.8926C13.2018 22.8926 11.5682 22.5565 10.8647 22.1266C10.3644 21.8139 10.3957 21.6654 11.021 21.345C12.1466 20.7822 13.9052 20.5321 15.5389 20.7118ZM11.1773 23.5335C12.1935 23.8931 13.022 24.0103 14.4993 24.0181C16.0313 24.0181 16.9771 23.8696 18.0323 23.4788C18.3137 23.3694 18.556 23.2834 18.5716 23.2834C18.5872 23.2834 18.6029 23.5413 18.6029 23.8618C18.6029 24.409 18.5872 24.4559 18.3684 24.6356C17.8759 25.0499 16.4768 25.4251 15.0621 25.5111C13.6395 25.6049 11.8652 25.3 10.935 24.7998L10.513 24.5731L10.4895 23.9165C10.4661 23.3147 10.4817 23.2678 10.6068 23.3225C10.6849 23.3538 10.9429 23.4476 11.1773 23.5335ZM10.9194 26.0895C11.9981 26.5116 13.8505 26.7773 15.1246 26.6913C16.0704 26.6288 17.235 26.4021 17.9697 26.1364C18.2589 26.0269 18.5247 25.941 18.556 25.941C18.5794 25.941 18.6029 26.2067 18.6029 26.5272C18.6029 27.1916 18.5325 27.2932 17.9072 27.5902C16.1876 28.3953 12.7015 28.3875 11.0679 27.5668C10.5051 27.2854 10.4739 27.2385 10.4739 26.5506C10.4739 26.2145 10.4895 25.941 10.513 25.941C10.5286 25.941 10.7162 26.0035 10.9194 26.0895ZM12.3889 29.1847C13.3503 29.388 15.023 29.427 16.0938 29.2707C16.8207 29.1613 17.9228 28.8643 18.5091 28.6298C18.5794 28.5985 18.6029 28.7392 18.6029 29.2082C18.6029 29.8804 18.5716 29.9429 18.0635 30.2009C16.4065 31.0372 13.1783 31.1154 11.3102 30.3494C10.5599 30.0445 10.4739 29.9351 10.4739 29.216V28.6141L11.1226 28.8408C11.4744 28.9581 12.045 29.1144 12.3889 29.1847ZM1.93063 28.9112C2.98584 29.2629 3.93943 29.4036 5.23694 29.4036C6.53445 29.4036 7.48804 29.2629 8.54324 28.9112C8.91843 28.7783 9.24671 28.6767 9.27016 28.6767C9.28579 28.6767 9.30143 28.9424 9.30143 29.2551C9.30143 29.8257 9.29361 29.8491 9.0513 30.0289C8.05863 30.7715 5.22912 31.1076 3.29067 30.7089C2.37616 30.5213 1.61798 30.2399 1.35222 29.9898C1.1959 29.8413 1.17245 29.7475 1.17245 29.2473C1.17245 28.9346 1.18808 28.6767 1.20371 28.6767C1.22716 28.6767 1.55545 28.7783 1.93063 28.9112ZM2.79824 31.811C3.66586 32.0142 5.87788 32.1002 6.8002 31.9673C7.5662 31.8501 8.44945 31.6234 8.94188 31.4202L9.30143 31.2639V31.8736C9.30143 32.577 9.27016 32.6239 8.59796 32.9288C7.66781 33.3587 6.90181 33.4837 5.23694 33.4837C3.57206 33.4837 2.80606 33.3587 1.87592 32.9288C1.20371 32.6239 1.17245 32.577 1.17245 31.8814V31.2717L1.64143 31.4671C1.89937 31.5687 2.42306 31.725 2.79824 31.811ZM11.5838 31.6781C12.6155 31.9752 13.5066 32.0611 14.9839 32.0142C16.3283 31.9752 16.9849 31.8579 18.0323 31.4906C18.2746 31.4046 18.5091 31.3342 18.5403 31.3342C18.5716 31.3342 18.6029 31.5765 18.6029 31.8814C18.6029 32.4989 18.5325 32.6161 17.9697 32.9053C16.9145 33.4446 14.5227 33.6791 12.9048 33.4134C11.9433 33.2492 11.0914 32.9678 10.7396 32.7021C10.4739 32.4989 10.4739 32.491 10.4739 31.8736V31.2482L10.7005 31.3733C10.8256 31.4358 11.2242 31.5687 11.5838 31.6781ZM25.4734 31.4593C26.81 31.686 27.8496 32.1393 27.8105 32.4676C27.7792 32.6864 26.9898 33.0616 26.0909 33.2883C24.1368 33.7807 20.9087 33.4446 20.002 32.663L19.7362 32.4285L20.0098 32.194C20.3146 31.9283 21.1822 31.6234 22.1124 31.4593C22.9409 31.303 24.5902 31.3108 25.4734 31.4593ZM3.47826 34.5858C4.08012 34.6796 4.56473 34.7031 5.58867 34.6718C7.01124 34.6249 7.80069 34.4842 8.77773 34.1168L9.30924 33.9214L9.28579 34.5546L9.26235 35.1955L8.91061 35.4143C8.4729 35.6801 7.40988 35.9928 6.511 36.11C5.73718 36.2116 4.03322 36.1647 3.36102 36.024C2.681 35.8833 1.75086 35.5629 1.46947 35.3674C1.21935 35.2033 1.21153 35.1799 1.18808 34.5702L1.16463 33.9449L1.93063 34.195C2.35271 34.3357 3.04837 34.5155 3.47826 34.5858ZM11.787 34.3748C12.8657 34.6483 13.6239 34.7187 14.9604 34.6718C16.3049 34.6249 17.1334 34.4764 18.0792 34.1168L18.6029 33.9214V34.4998C18.6029 35.0313 18.5872 35.0939 18.3918 35.2815C18.1339 35.516 17.5711 35.7348 16.6488 35.9693C15.7421 36.196 13.4988 36.2116 12.5218 36.0006C11.7401 35.8364 11.1304 35.6176 10.7709 35.3753C10.5208 35.2033 10.513 35.1877 10.4895 34.5546L10.4661 33.9136L10.8256 34.0699C11.0288 34.1559 11.4587 34.2966 11.787 34.3748ZM21.3386 34.4451C22.0889 34.6327 22.2922 34.6562 23.7616 34.6562C25.4812 34.6562 26.0049 34.5858 27.1461 34.1872C27.4509 34.0778 27.748 33.984 27.787 33.9761C27.8339 33.9605 27.873 34.1794 27.8886 34.492C27.9121 34.9532 27.8886 35.0548 27.7401 35.2111C27.5056 35.4612 26.9741 35.6957 26.1065 35.9302C25.45 36.1022 25.2076 36.1256 23.918 36.1334C22.8002 36.1413 22.3234 36.11 21.8232 36.0006C21.0415 35.8364 20.4319 35.6176 20.0723 35.3753C19.8222 35.2033 19.8144 35.1877 19.7909 34.5546L19.7675 33.9136L20.1427 34.0778C20.3459 34.1637 20.8852 34.3279 21.3386 34.4451ZM2.09478 36.876C3.25159 37.259 4.13484 37.3762 5.58867 37.3293C7.05032 37.2746 7.98047 37.087 9.16855 36.6102C9.28579 36.5633 9.30143 36.6102 9.30143 37.1418C9.30143 37.8374 9.26235 37.8999 8.55888 38.2282C7.45677 38.7441 5.32292 38.9708 3.79092 38.7363C2.83733 38.5878 1.86029 38.2829 1.46947 38.0172L1.17245 37.814V37.1887C1.17245 36.7119 1.1959 36.5712 1.27406 36.6024C1.32096 36.6181 1.69614 36.7431 2.09478 36.876ZM11.2555 36.8526C12.3029 37.2121 12.9985 37.3137 14.5384 37.3137C16.2423 37.3137 17.1412 37.1496 18.47 36.6102C18.5872 36.5633 18.6029 36.6102 18.6029 37.1339C18.6029 37.6342 18.5794 37.7358 18.4309 37.8765C17.8369 38.4158 16.1485 38.8301 14.4993 38.8379C13.1549 38.8379 11.4118 38.4549 10.7709 38.0172L10.4739 37.814V37.1887C10.4739 36.6102 10.4895 36.5633 10.6146 36.6181C10.6849 36.6493 10.9741 36.7509 11.2555 36.8526ZM21.7294 37.173C22.2374 37.2824 22.7377 37.3137 23.8398 37.3137C25.4343 37.3137 26.1065 37.2121 27.2321 36.7978C27.576 36.6728 27.8652 36.5712 27.8808 36.5712C27.8965 36.5712 27.9043 36.8291 27.9043 37.1418C27.9043 37.814 27.8183 37.9312 27.1226 38.236C25.8955 38.7754 23.9961 38.9708 22.3547 38.7285C21.4636 38.5878 20.4475 38.2829 20.0801 38.0328C19.8222 37.8609 19.8144 37.8452 19.7909 37.2199L19.7675 36.5868L20.4162 36.8057C20.7758 36.9307 21.362 37.0949 21.7294 37.173Z" fill="#F1F1F1"/>
<path d="M19.4547 8.15879C17.8368 8.67466 17.3209 11.3244 18.5559 12.786C18.8763 13.1612 19.5407 13.4583 20.08 13.4583C21.4401 13.4583 22.4875 11.8794 22.1983 10.2536C21.9325 8.69811 20.6975 7.76015 19.4547 8.15879ZM20.4474 9.3625C20.7366 9.53446 21.0024 10.0503 21.0727 10.5506C21.1978 11.4729 20.5256 12.4578 19.8846 12.2936C19.3766 12.1607 18.9232 11.2697 19.0248 10.5506C19.1264 9.82366 19.5954 9.21399 20.0488 9.21399C20.1348 9.21399 20.3145 9.28434 20.4474 9.3625Z" fill="#F1F1F1"/>
<path d="M27.1071 8.21344C26.7788 8.51046 19.8535 18.7967 19.8535 18.9765C19.8535 19.4064 20.2209 19.6644 20.6117 19.5237C20.7837 19.4689 21.5809 18.3512 24.4261 14.1538C27.4275 9.73763 28.0216 8.82312 28.0137 8.60426C28.0059 8.29942 27.8652 8.1431 27.5448 8.07275C27.3572 8.04148 27.2556 8.06493 27.1071 8.21344Z" fill="#F1F1F1"/>
<path d="M27.3336 14.2243C26.677 14.3806 26.169 14.8339 25.8172 15.5843C25.6218 16.0064 25.5984 16.1393 25.5984 16.874C25.5984 17.6478 25.614 17.7338 25.8563 18.2184C26.6692 19.8677 28.4514 20.0396 29.444 18.5623C30.3976 17.1476 29.9052 14.9121 28.5139 14.3415C28.1387 14.1852 27.6775 14.1383 27.3336 14.2243ZM28.2794 15.5687C28.9907 16.2174 28.9125 17.7494 28.1465 18.2575C27.8104 18.4842 27.6775 18.4842 27.3571 18.2575C26.8177 17.898 26.5832 16.96 26.8412 16.194C26.9663 15.8266 27.2555 15.4593 27.5134 15.3655C27.7166 15.2873 28.084 15.3811 28.2794 15.5687Z" fill="#F1F1F1"/>
</svg>
