<svg width="31" height="24" viewBox="0 0 31 24" fill="none" xmlns="http://www.w3.org/2000/svg">
<path d="M4.43889 18.3376L1.91196 5.05414L10.1416 10.0397L15.0247 2.11743L20.2151 10.0397L28.3764 3.92726L25.5422 18.3376H4.43889Z" fill="url(#paint0_linear_97_4155)"/>
<path d="M4.37097 18.3713H25.5426V21.0837C25.5426 22.1883 24.6471 23.0837 23.5426 23.0837H6.37097C5.2664 23.0837 4.37097 22.1883 4.37097 21.0837V18.3713Z" fill="url(#paint1_linear_97_4155)"/>
<circle cx="15.0248" cy="2.73182" r="2.73182" fill="url(#paint2_linear_97_4155)"/>
<circle cx="27.3182" cy="5.25867" r="2.73182" fill="url(#paint3_linear_97_4155)"/>
<circle cx="2.73182" cy="5.25867" r="2.73182" fill="url(#paint4_linear_97_4155)"/>
<defs>
<linearGradient id="paint0_linear_97_4155" x1="28.3764" y1="17.4757" x2="13.1498" y2="-4.72743" gradientUnits="userSpaceOnUse">
<stop stop-color="#1E48FE"/>
<stop offset="1" stop-color="#BE8DF8"/>
</linearGradient>
<linearGradient id="paint1_linear_97_4155" x1="25.5426" y1="22.8333" x2="23.3184" y2="13.9029" gradientUnits="userSpaceOnUse">
<stop stop-color="#1E48FE"/>
<stop offset="1" stop-color="#BE8DF8"/>
</linearGradient>
<linearGradient id="paint2_linear_97_4155" x1="17.7566" y1="5.1733" x2="12.293" y2="0.290338" gradientUnits="userSpaceOnUse">
<stop stop-color="#1E48FE"/>
<stop offset="1" stop-color="#BE8DF8"/>
</linearGradient>
<linearGradient id="paint3_linear_97_4155" x1="30.05" y1="7.70016" x2="24.5863" y2="2.81719" gradientUnits="userSpaceOnUse">
<stop stop-color="#1E48FE"/>
<stop offset="1" stop-color="#BE8DF8"/>
</linearGradient>
<linearGradient id="paint4_linear_97_4155" x1="5.46364" y1="7.70016" x2="-6.90244e-08" y2="2.81719" gradientUnits="userSpaceOnUse">
<stop stop-color="#1E48FE"/>
<stop offset="1" stop-color="#BE8DF8"/>
</linearGradient>
</defs>
</svg>
