<svg width="40" height="41" viewBox="0 0 40 41" fill="none" xmlns="http://www.w3.org/2000/svg">
<path d="M12.6027 1.06264C12.1566 1.21136 11.9452 1.32878 11.5303 1.68103C10.9432 2.15853 10.7476 2.21332 9.54207 2.21332C8.93151 2.21332 8.33659 2.25246 8.14873 2.30725C7.79648 2.40902 7.00587 3.12917 7.00587 3.34052C7.00587 3.45011 6.72407 3.46577 4.55577 3.46577C2.57534 3.46577 2.0274 3.48925 1.69863 3.58318C1.1272 3.7554 0.524462 4.27203 0.234834 4.83563L0 5.29747V20.366V35.4423L0.172211 35.8102C0.383562 36.2799 0.908023 36.8043 1.409 37.047L1.80039 37.2427H13.6986H25.5969L26.0352 37.0392C26.5753 36.7808 27.0059 36.3503 27.272 35.7945C27.4364 35.4266 27.4677 35.2544 27.4755 34.636C27.4755 33.955 27.4599 33.8924 27.2877 33.7515C27.0528 33.5558 26.7241 33.5636 26.5127 33.7593C26.3718 33.8924 26.3405 34.0098 26.3405 34.4482C26.3327 35.2388 26.0196 35.8102 25.456 36.0215C25.2994 36.0842 21.683 36.1076 13.7065 36.1076H2.17613L1.83953 35.9276C1.6047 35.8024 1.44031 35.638 1.31507 35.4031L1.13503 35.0666V20.3816V5.68886L1.31507 5.34444C1.44031 5.08612 1.58121 4.94522 1.83953 4.81215C2.17613 4.64776 2.2544 4.63993 4.51663 4.63993H6.84932V5.69669C6.84932 6.72213 6.85714 6.76909 7.04501 6.94913L7.23288 7.14483H13.6986C17.91 7.14483 20.2192 7.11352 20.3131 7.06655C20.5323 6.94913 20.6262 6.50295 20.6262 5.51665V4.63993H22.9354C25.4481 4.63993 25.5734 4.65559 25.9569 5.07829C26.0744 5.20354 26.1996 5.42271 26.2544 5.57144C26.317 5.75931 26.3405 7.28573 26.3405 10.7143C26.3405 15.4971 26.3405 15.5988 26.4971 15.7554C26.7084 15.9667 27.1311 15.9589 27.3268 15.7476C27.4677 15.591 27.4755 15.3875 27.4755 10.4795V5.38358L27.272 4.94522C27.0215 4.41293 26.6301 4.00589 26.0822 3.71626L25.6751 3.50491L23.092 3.47359L20.5088 3.45011L20.274 3.09003C20.0157 2.68299 19.6556 2.40902 19.225 2.2916C19.0685 2.25246 18.4736 2.21332 17.9022 2.21332C16.7123 2.21332 16.5479 2.16636 15.8669 1.63406C15.1859 1.09395 14.9354 1.01567 13.8552 0.98436C13.229 0.968704 12.8141 1.00002 12.6027 1.06264ZM14.6458 2.25246C14.7945 2.31508 15.0841 2.50295 15.2877 2.67516C15.9687 3.25442 16.2661 3.34052 17.7534 3.38749C19.4521 3.44228 19.3738 3.36401 19.3738 4.8826V5.97066H13.6986H8.02348V4.92174C8.02348 3.91978 8.03131 3.85716 8.21135 3.64581L8.39922 3.42663L9.72211 3.37966C11.2172 3.32487 11.4364 3.26225 12.1722 2.66733C12.407 2.47164 12.7123 2.27594 12.8376 2.22898C13.1977 2.10373 14.3249 2.11939 14.6458 2.25246Z" fill="#F1F1F1"/>
<path d="M13.1271 3.52052C12.9628 3.58314 12.7905 3.99801 12.8453 4.20936C12.9236 4.52248 13.1663 4.63989 13.7377 4.63989C14.1839 4.63989 14.2856 4.61641 14.4265 4.45985C14.6692 4.20154 14.6535 3.83363 14.3952 3.63011C14.2309 3.50486 14.0821 3.46572 13.7064 3.47355C13.4481 3.47355 13.1819 3.49703 13.1271 3.52052Z" fill="#F1F1F1"/>
<path d="M3.20957 6.08031C2.91994 6.20555 2.66162 6.48735 2.55203 6.77698C2.48941 6.93354 2.46593 10.8161 2.46593 19.4423C2.46593 33.1879 2.42679 32.2095 2.98256 32.6322L3.27219 32.8592L10.1372 32.8826C17.0021 32.8983 17.0021 32.8983 17.2056 32.7339C17.4718 32.5304 17.4953 32.1155 17.2604 31.8807C17.1039 31.7241 17.0021 31.7241 10.372 31.7241H3.6401V19.4345V7.14489H4.40722C5.11172 7.14489 5.19 7.12923 5.34655 6.96485C5.57356 6.72219 5.56573 6.40125 5.32307 6.16641C5.14303 5.97855 5.08041 5.97072 4.2898 5.97072C3.75751 5.97855 3.3583 6.01769 3.20957 6.08031Z" fill="#F1F1F1"/>
<path d="M22.1604 6.13508C21.9256 6.31512 21.8864 6.69868 22.0665 6.95699C22.1604 7.08224 22.3013 7.11355 22.9901 7.14486L23.7964 7.184L23.8355 11.1214C23.8747 14.91 23.8825 15.0666 24.0234 15.1762C24.2426 15.3327 24.5635 15.3092 24.7827 15.137L24.9705 14.9883V10.9257C24.9705 6.99613 24.9627 6.86306 24.814 6.59692C24.5478 6.1429 24.1017 5.97069 23.1623 5.97069C22.4813 5.97069 22.3404 5.99418 22.1604 6.13508Z" fill="#F1F1F1"/>
<path d="M9.3934 10.1351C9.3073 10.182 8.8298 10.6204 8.33665 11.1057L7.43645 11.9981L7.00593 11.5597C6.77109 11.3171 6.48929 11.0901 6.38753 11.0509C6.0118 10.9022 5.59692 11.2231 5.59692 11.6615C5.59692 11.7319 5.957 12.1468 6.39536 12.593C7.51473 13.728 7.39732 13.7515 8.97853 12.1703C10.0666 11.0822 10.2153 10.9022 10.2153 10.6752C10.2153 10.5108 10.1449 10.3542 10.0196 10.2368C9.8161 10.0255 9.63606 9.99417 9.3934 10.1351Z" fill="#F1F1F1"/>
<path d="M12.1958 11.0743C11.82 11.2543 11.7966 11.8806 12.1645 12.0684C12.2662 12.1232 13.73 12.1545 16.5872 12.1545C20.7594 12.1545 20.8612 12.1545 21.0177 11.998C21.2526 11.7632 21.2291 11.3483 20.9708 11.1448C20.7672 10.9804 20.6968 10.9804 16.5637 10.9882C13.7927 10.9882 12.3132 11.0195 12.1958 11.0743Z" fill="#F1F1F1"/>
<path d="M9.35426 15.1762C9.24467 15.2466 8.76718 15.6928 8.29751 16.1547L7.43645 17.0079L7.00593 16.5695C6.77109 16.3269 6.48929 16.0999 6.38753 16.0607C6.02745 15.9198 5.59692 16.2486 5.59692 16.6713C5.59692 16.7417 5.957 17.1566 6.39536 17.6028C7.51473 18.7457 7.39732 18.7613 8.97853 17.1801C10.0431 16.1155 10.2153 15.912 10.2153 15.7007C10.2153 15.2232 9.73 14.9257 9.35426 15.1762Z" fill="#F1F1F1"/>
<path d="M12.2741 16.0685C12.0236 16.1702 11.8357 16.4912 11.8984 16.7104C12.0471 17.1878 11.8749 17.1644 15.5931 17.1644C18.8808 17.1644 18.9904 17.1565 19.1391 17.0078C19.3504 16.7965 19.3426 16.3738 19.1313 16.1781C18.9747 16.0372 18.7868 16.0293 15.7027 16.0137C13.9101 16.0059 12.368 16.0293 12.2741 16.0685Z" fill="#F1F1F1"/>
<path d="M22.9197 16.6947C20.5713 16.953 18.4109 18.2446 17.088 20.1703C14.6457 23.7319 15.4207 28.593 18.8414 31.1996C20.8923 32.7573 23.4363 33.2505 25.949 32.5773C26.6927 32.3816 27.9608 31.7554 28.5713 31.2935C28.8297 31.0978 29.0567 30.9413 29.0801 30.9413C29.1036 30.9413 29.4559 31.2701 29.8551 31.6771C30.5831 32.4051 30.5909 32.4129 30.497 32.6712C30.3639 33.0548 30.3952 33.6027 30.5752 33.9941C30.6927 34.2603 31.5146 35.137 33.8394 37.4618C35.5459 39.1761 37.1036 40.6712 37.2993 40.7886C37.5889 40.9687 37.7455 41 38.2073 41C38.6848 41 38.8101 40.9687 39.1467 40.7652C39.3815 40.6164 39.6163 40.3816 39.7651 40.1468C39.9686 39.8102 39.9999 39.6849 39.9999 39.2074C39.9999 38.7456 39.9686 38.589 39.7885 38.2994C39.6711 38.1037 38.176 36.546 36.4617 34.8395C34.1369 32.5147 33.2602 31.6928 32.994 31.5753C32.6026 31.3953 32.0547 31.364 31.6711 31.4971C31.4128 31.591 31.405 31.5832 30.677 30.8552C30.27 30.456 29.9412 30.1037 29.9412 30.0802C29.9412 30.0568 30.0978 29.8297 30.2934 29.5714C30.7553 28.9687 31.3737 27.7006 31.5772 26.9569C32.5478 23.4031 31.0606 19.6928 27.8903 17.7828C26.5048 16.9452 24.5479 16.5147 22.9197 16.6947ZM25.4011 18.0333C27.812 18.589 29.8394 20.593 30.497 23.0744C30.7161 23.8963 30.7396 25.4775 30.5439 26.2759C30.2073 27.638 29.6281 28.6634 28.6496 29.6497C27.6633 30.6282 26.6379 31.2074 25.2758 31.544C24.4774 31.7397 22.8962 31.7162 22.0743 31.4971C17.3933 30.2524 15.3424 24.8278 18.043 20.8434C18.724 19.8493 19.7573 18.9726 20.8923 18.456C22.2935 17.8063 23.8042 17.6654 25.4011 18.0333ZM32.8923 32.9296L33.268 33.2818L32.7749 33.775L32.2817 34.2681L31.9295 33.8924C31.5068 33.4227 31.4598 33.0783 31.7886 32.7808C32.1173 32.4755 32.4383 32.5147 32.8923 32.9296ZM36.4539 36.4755C38.0586 38.0881 38.7944 38.8787 38.8336 39.0352C38.9431 39.4892 38.4891 39.9432 38.0351 39.8337C37.8786 39.7945 37.088 39.0587 35.4598 37.4384L33.1114 35.09L33.5811 34.6204C33.8394 34.362 34.0664 34.1507 34.0899 34.1507C34.1134 34.1507 35.178 35.1996 36.4539 36.4755Z" fill="#F1F1F1"/>
<path d="M23.1545 19.2074C22.8492 19.2387 22.3561 19.3405 22.0586 19.4344C20.7592 19.865 20.3757 20.272 20.7905 20.7965C20.9941 21.0548 21.2915 21.0626 21.7847 20.8121C22.6849 20.3581 23.9765 20.225 24.908 20.4912C26.3561 20.9061 27.5146 22.0176 27.9686 23.3953C28.3209 24.4599 28.2583 25.4931 27.7808 26.5968C27.4676 27.3405 27.452 27.4892 27.6947 27.7162C27.906 27.9119 28.1956 27.9354 28.4226 27.7788C28.6262 27.6379 29.0332 26.7612 29.2054 26.088C29.3855 25.407 29.3855 24.1076 29.2054 23.4266C28.4931 20.679 26.0039 18.9413 23.1545 19.2074Z" fill="#F1F1F1"/>
<path d="M19.0763 21.7829C18.7084 22.1351 18.2935 23.2545 18.2074 24.186C17.9335 26.9805 19.6947 29.4932 22.4266 30.2055C23.1076 30.3856 24.4071 30.3856 25.0881 30.2055C25.7613 30.0333 26.638 29.6263 26.7789 29.4228C26.9433 29.1879 26.912 28.8748 26.7084 28.687C26.4658 28.46 26.3405 28.4678 25.5969 28.7809C24.4932 29.2584 23.4599 29.321 22.3953 28.9688C21.0176 28.5226 19.9061 27.3484 19.4912 25.9081C19.2251 24.9766 19.3581 23.685 19.8121 22.7848C20.0626 22.2917 20.0548 21.9942 19.7965 21.7907C19.5303 21.5794 19.2955 21.5794 19.0763 21.7829Z" fill="#F1F1F1"/>
<path d="M8.43841 21.0938L7.48342 22.0488L6.97461 21.5635C6.55191 21.1565 6.42667 21.0782 6.19966 21.0782C5.89438 21.0782 5.59692 21.36 5.59692 21.6496C5.59692 21.8218 7.02158 23.3248 7.2799 23.4265C7.57735 23.5361 7.8435 23.3404 9.0255 22.1428C10.0588 21.1095 10.2153 20.9138 10.2153 20.7025C10.2153 20.3737 9.97266 20.1389 9.64389 20.1389C9.42471 20.1389 9.26816 20.2641 8.43841 21.0938Z" fill="#F1F1F1"/>
<path d="M12.0235 21.2819C11.8121 21.5558 11.8199 21.7281 12.0469 21.9942C12.2348 22.2134 12.2505 22.2134 13.1115 22.2134C13.9334 22.2134 13.9961 22.2056 14.137 22.0255C14.3327 21.7907 14.3248 21.4306 14.1291 21.2349C13.9882 21.094 13.8708 21.0783 13.0802 21.0783C12.2035 21.0783 12.18 21.0862 12.0235 21.2819Z" fill="#F1F1F1"/>
<path d="M8.43829 26.1037L7.4833 27.0587L6.97449 26.5655C6.51265 26.1272 6.43437 26.0802 6.17606 26.1037C5.80032 26.135 5.54983 26.4403 5.62811 26.7612C5.69073 27.0039 6.84925 28.2329 7.17802 28.4051C7.29543 28.4677 7.4833 28.499 7.58506 28.4677C7.68682 28.4442 8.32087 27.8728 8.99407 27.1918C10.0586 26.1194 10.2152 25.9237 10.2152 25.7123C10.2152 25.3835 9.97254 25.1487 9.64377 25.1487C9.42459 25.1487 9.26804 25.2739 8.43829 26.1037Z" fill="#F1F1F1"/>
<path d="M12.0704 26.2212C11.8434 26.4795 11.8277 26.7535 12.0391 26.9961C12.2348 27.2231 12.2426 27.2231 13.0958 27.2231C14.09 27.2231 14.2857 27.1292 14.2857 26.6595C14.2857 26.1742 14.0978 26.0881 13.088 26.0881C12.3365 26.0881 12.18 26.1116 12.0704 26.2212Z" fill="#F1F1F1"/>
</svg>
