<svg width="77" height="77" viewBox="0 0 77 77" fill="none" xmlns="http://www.w3.org/2000/svg">
<g filter="url(#filter0_d_97_4270)">
<circle cx="38.5" cy="34.5" r="33.5" fill="url(#paint0_linear_97_4270)" stroke="#F1F1F1" stroke-width="2"/>
<path d="M22.54 29.642H16.51V33.224C16.762 32.888 17.134 32.606 17.626 32.378C18.13 32.15 18.664 32.036 19.228 32.036C20.236 32.036 21.052 32.252 21.676 32.684C22.312 33.116 22.762 33.662 23.026 34.322C23.302 34.982 23.44 35.678 23.44 36.41C23.44 37.298 23.266 38.09 22.918 38.786C22.582 39.47 22.072 40.01 21.388 40.406C20.716 40.802 19.888 41 18.904 41C17.596 41 16.546 40.676 15.754 40.028C14.962 39.38 14.488 38.522 14.332 37.454H16.33C16.462 38.018 16.756 38.468 17.212 38.804C17.668 39.128 18.238 39.29 18.922 39.29C19.774 39.29 20.41 39.032 20.83 38.516C21.262 38 21.478 37.316 21.478 36.464C21.478 35.6 21.262 34.94 20.83 34.484C20.398 34.016 19.762 33.782 18.922 33.782C18.334 33.782 17.836 33.932 17.428 34.232C17.032 34.52 16.744 34.916 16.564 35.42H14.62V27.842H22.54V29.642ZM25.5761 34.268C25.5761 32.192 25.9241 30.572 26.6201 29.408C27.3281 28.232 28.5401 27.644 30.2561 27.644C31.9721 27.644 33.1781 28.232 33.8741 29.408C34.5821 30.572 34.9361 32.192 34.9361 34.268C34.9361 36.368 34.5821 38.012 33.8741 39.2C33.1781 40.376 31.9721 40.964 30.2561 40.964C28.5401 40.964 27.3281 40.376 26.6201 39.2C25.9241 38.012 25.5761 36.368 25.5761 34.268ZM32.9201 34.268C32.9201 33.296 32.8541 32.474 32.7221 31.802C32.6021 31.13 32.3501 30.584 31.9661 30.164C31.5821 29.732 31.0121 29.516 30.2561 29.516C29.5001 29.516 28.9301 29.732 28.5461 30.164C28.1621 30.584 27.9041 31.13 27.7721 31.802C27.6521 32.474 27.5921 33.296 27.5921 34.268C27.5921 35.276 27.6521 36.122 27.7721 36.806C27.8921 37.49 28.1441 38.042 28.5281 38.462C28.9241 38.882 29.5001 39.092 30.2561 39.092C31.0121 39.092 31.5821 38.882 31.9661 38.462C32.3621 38.042 32.6201 37.49 32.7401 36.806C32.8601 36.122 32.9201 35.276 32.9201 34.268ZM38.2053 41.126C37.8333 41.126 37.5213 41 37.2693 40.748C37.0173 40.496 36.8913 40.184 36.8913 39.812C36.8913 39.44 37.0173 39.128 37.2693 38.876C37.5213 38.624 37.8333 38.498 38.2053 38.498C38.5653 38.498 38.8713 38.624 39.1233 38.876C39.3753 39.128 39.5013 39.44 39.5013 39.812C39.5013 40.184 39.3753 40.496 39.1233 40.748C38.8713 41 38.5653 41.126 38.2053 41.126ZM38.2053 33.566C37.8333 33.566 37.5213 33.44 37.2693 33.188C37.0173 32.936 36.8913 32.624 36.8913 32.252C36.8913 31.88 37.0173 31.568 37.2693 31.316C37.5213 31.064 37.8333 30.938 38.2053 30.938C38.5653 30.938 38.8713 31.064 39.1233 31.316C39.3753 31.568 39.5013 31.88 39.5013 32.252C39.5013 32.624 39.3753 32.936 39.1233 33.188C38.8713 33.44 38.5653 33.566 38.2053 33.566ZM49.9795 29.642H43.9495V33.224C44.2015 32.888 44.5735 32.606 45.0655 32.378C45.5695 32.15 46.1035 32.036 46.6675 32.036C47.6755 32.036 48.4915 32.252 49.1155 32.684C49.7515 33.116 50.2015 33.662 50.4655 34.322C50.7415 34.982 50.8795 35.678 50.8795 36.41C50.8795 37.298 50.7055 38.09 50.3575 38.786C50.0215 39.47 49.5115 40.01 48.8275 40.406C48.1555 40.802 47.3275 41 46.3435 41C45.0355 41 43.9855 40.676 43.1935 40.028C42.4015 39.38 41.9275 38.522 41.7715 37.454H43.7695C43.9015 38.018 44.1955 38.468 44.6515 38.804C45.1075 39.128 45.6775 39.29 46.3615 39.29C47.2135 39.29 47.8495 39.032 48.2695 38.516C48.7015 38 48.9175 37.316 48.9175 36.464C48.9175 35.6 48.7015 34.94 48.2695 34.484C47.8375 34.016 47.2015 33.782 46.3615 33.782C45.7735 33.782 45.2755 33.932 44.8675 34.232C44.4715 34.52 44.1835 34.916 44.0035 35.42H42.0595V27.842H49.9795V29.642ZM53.0155 34.268C53.0155 32.192 53.3635 30.572 54.0595 29.408C54.7675 28.232 55.9795 27.644 57.6955 27.644C59.4115 27.644 60.6175 28.232 61.3135 29.408C62.0215 30.572 62.3755 32.192 62.3755 34.268C62.3755 36.368 62.0215 38.012 61.3135 39.2C60.6175 40.376 59.4115 40.964 57.6955 40.964C55.9795 40.964 54.7675 40.376 54.0595 39.2C53.3635 38.012 53.0155 36.368 53.0155 34.268ZM60.3595 34.268C60.3595 33.296 60.2935 32.474 60.1615 31.802C60.0415 31.13 59.7895 30.584 59.4055 30.164C59.0215 29.732 58.4515 29.516 57.6955 29.516C56.9395 29.516 56.3695 29.732 55.9855 30.164C55.6015 30.584 55.3435 31.13 55.2115 31.802C55.0915 32.474 55.0315 33.296 55.0315 34.268C55.0315 35.276 55.0915 36.122 55.2115 36.806C55.3315 37.49 55.5835 38.042 55.9675 38.462C56.3635 38.882 56.9395 39.092 57.6955 39.092C58.4515 39.092 59.0215 38.882 59.4055 38.462C59.8015 38.042 60.0595 37.49 60.1795 36.806C60.2995 36.122 60.3595 35.276 60.3595 34.268Z" fill="#F1F1F1"/>
</g>
<defs>
<filter id="filter0_d_97_4270" x="0" y="0" width="77" height="77" filterUnits="userSpaceOnUse" color-interpolation-filters="sRGB">
<feFlood flood-opacity="0" result="BackgroundImageFix"/>
<feColorMatrix in="SourceAlpha" type="matrix" values="0 0 0 0 0 0 0 0 0 0 0 0 0 0 0 0 0 0 127 0" result="hardAlpha"/>
<feOffset dy="4"/>
<feGaussianBlur stdDeviation="2"/>
<feComposite in2="hardAlpha" operator="out"/>
<feColorMatrix type="matrix" values="0 0 0 0 0 0 0 0 0 0 0 0 0 0 0 0 0 0 0.25 0"/>
<feBlend mode="normal" in2="BackgroundImageFix" result="effect1_dropShadow_97_4270"/>
<feBlend mode="normal" in="SourceGraphic" in2="effect1_dropShadow_97_4270" result="shape"/>
</filter>
<linearGradient id="paint0_linear_97_4270" x1="73" y1="65.3333" x2="4" y2="3.66667" gradientUnits="userSpaceOnUse">
<stop stop-color="#1E48FE"/>
<stop offset="1" stop-color="#BE8DF8"/>
</linearGradient>
</defs>
</svg>
