<svg width="34" height="34" viewBox="0 0 34 34" fill="none" xmlns="http://www.w3.org/2000/svg">
<circle cx="17" cy="17" r="17" fill="url(#paint0_linear_102_4673)"/>
<path d="M16.1381 5.32717C16.2878 4.86652 16.9395 4.86652 17.0892 5.32717L19.3639 12.3282C19.4309 12.5342 19.6229 12.6737 19.8395 12.6737L27.2008 12.6737C27.6851 12.6737 27.8865 13.2935 27.4947 13.5782L21.5392 17.9051C21.364 18.0324 21.2907 18.2581 21.3576 18.4641L23.6324 25.4651C23.7821 25.9257 23.2548 26.3088 22.863 26.0241L16.9075 21.6972C16.7323 21.5699 16.495 21.5699 16.3198 21.6972L10.3643 26.0241C9.97248 26.3088 9.44524 25.9257 9.59491 25.4651L11.8697 18.4641C11.9366 18.2581 11.8633 18.0324 11.688 17.9051L5.73262 13.5782C5.34077 13.2935 5.54216 12.6737 6.02652 12.6737L13.3878 12.6737C13.6044 12.6737 13.7964 12.5342 13.8634 12.3282L16.1381 5.32717Z" fill="#FFFD96"/>
<defs>
<linearGradient id="paint0_linear_102_4673" x1="6.5" y1="2" x2="27.5" y2="31" gradientUnits="userSpaceOnUse">
<stop stop-color="#F0EE51"/>
<stop offset="1" stop-color="#FFAB00"/>
</linearGradient>
</defs>
</svg>
