<svg width="492" height="42" viewBox="0 0 492 42" fill="none" xmlns="http://www.w3.org/2000/svg">
<path d="M0 41.104H491.123" stroke="url(#paint0_linear_116_3374)" stroke-width="1.63097" stroke-miterlimit="10"/>
<path d="M230.134 16.5999C229.788 16.4466 229.529 16.1506 229.4 15.6812C229.277 15.2172 229.317 14.5812 229.642 13.8599C229.964 13.1439 230.625 12.3692 231.578 11.8212C232.526 11.2639 233.741 10.9892 234.929 11.0759C235.529 11.1012 236.28 11.2759 237.077 11.5919C237.875 11.9119 238.697 12.4052 239.436 13.0465C240.179 13.6852 240.837 14.4639 241.36 15.3092C241.885 16.1546 242.273 17.0599 242.539 17.9452C242.789 18.8372 242.921 19.7012 242.968 20.4852C242.984 20.8785 242.987 21.2506 242.975 21.5972C242.949 21.9452 242.931 22.2652 242.889 22.5572C242.844 22.8492 242.796 23.1119 242.748 23.3412C242.697 23.5692 242.63 23.7666 242.576 23.9252C242.462 24.2439 242.359 24.4172 242.272 24.4172C242.195 24.4172 242.089 24.2439 241.962 23.9439C241.832 23.6079 241.671 23.1919 241.485 22.7185C241.385 22.4692 241.261 22.2039 241.145 21.9239C241.014 21.6465 240.873 21.3586 240.724 21.0666C240.408 20.4853 240.033 19.8946 239.611 19.3479C239.177 18.8092 238.693 18.3212 238.189 17.9252C237.688 17.5279 237.168 17.2252 236.685 17.0185C236.205 16.8092 235.761 16.6985 235.401 16.6465L235.147 16.6132L234.923 16.5932L234.728 16.5759L234.565 16.5719C234.166 16.5453 233.846 16.5212 233.526 16.5066C233.206 16.4932 232.857 16.4839 232.473 16.5333C231.704 16.6119 230.841 16.9066 230.134 16.5999Z" fill="url(#paint1_linear_116_3374)"/>
<path d="M242.065 10.2186C244.2 15.064 244.773 21.8613 244.841 22.7573L244.917 22.856L247 25.216C247.276 25.528 247.762 25.528 248.04 25.216L250.122 22.856L250.2 22.7573C250.266 21.8613 250.749 15.5853 252.976 10.2186C252.992 10.1773 248.682 2.476 247.713 0.866665C247.616 0.703999 247.425 0.703999 247.326 0.866665C246.356 2.476 242.046 10.1786 242.065 10.2186Z" fill="url(#paint2_linear_116_3374)"/>
<path d="M265.18 16.5999C265.528 16.4466 265.787 16.1506 265.916 15.6812C266.039 15.2172 265.997 14.5812 265.673 13.8599C265.351 13.1439 264.689 12.3692 263.736 11.8212C262.789 11.2639 261.573 10.9892 260.385 11.0759C259.785 11.1012 259.035 11.2759 258.237 11.5919C257.44 11.9119 256.617 12.4052 255.879 13.0465C255.137 13.6852 254.477 14.4639 253.955 15.3092C253.429 16.1546 253.041 17.0599 252.777 17.9452C252.525 18.8372 252.395 19.7012 252.347 20.4852C252.331 20.8785 252.329 21.2506 252.34 21.5972C252.365 21.9452 252.384 22.2652 252.425 22.5572C252.472 22.8492 252.52 23.1119 252.567 23.3412C252.617 23.5692 252.684 23.7666 252.739 23.9252C252.852 24.2439 252.956 24.4172 253.043 24.4172C253.12 24.4172 253.225 24.2439 253.352 23.9439C253.484 23.6079 253.645 23.1919 253.829 22.7185C253.929 22.4692 254.053 22.2039 254.169 21.9239C254.3 21.6465 254.441 21.3586 254.592 21.0666C254.907 20.4853 255.281 19.8946 255.704 19.3479C256.139 18.8092 256.623 18.3212 257.125 17.9252C257.628 17.5279 258.148 17.2252 258.629 17.0185C259.111 16.8092 259.555 16.6985 259.913 16.6465L260.169 16.6132L260.393 16.5932L260.588 16.5759L260.749 16.5719C261.148 16.5453 261.468 16.5212 261.789 16.5066C262.107 16.4932 262.457 16.4839 262.841 16.5333C263.611 16.6119 264.475 16.9066 265.18 16.5999Z" fill="url(#paint3_linear_116_3374)"/>
<path d="M247.52 26.076L250.181 28.6C249.703 29.244 247.52 32.948 247.52 32.948C247.52 32.948 245.441 29.244 244.961 28.6L247.52 26.076Z" fill="url(#paint4_linear_116_3374)"/>
<path d="M261.281 22.5372C261.952 22.4226 262.656 22.3333 263.389 22.2866C263.635 22.2559 263.889 22.2626 264.143 22.2519C264.397 22.2452 264.653 22.2306 264.915 22.2306C265.435 22.2466 265.965 22.2306 266.507 22.2732C267.587 22.3146 268.703 22.4546 269.84 22.6173C272.936 23.0906 275.783 23.9133 278.214 24.6359C279.428 25.0013 280.539 25.3519 281.52 25.6546C282.011 25.8092 282.472 25.9452 282.891 26.0826C283.309 26.2212 283.692 26.3466 284.037 26.4613C284.367 26.6106 284.735 26.7786 285.137 26.9599C285.533 27.1586 285.961 27.3733 286.421 27.6026C287.348 28.0426 288.371 28.6079 289.496 29.1959C291.735 30.4106 294.32 31.8972 297.127 33.4319C299.188 34.5639 301.191 35.5852 303.086 36.4066C305.002 37.1586 306.766 37.7239 308.283 38.0333C309.04 38.1853 309.719 38.3572 310.332 38.4212C310.936 38.4972 311.447 38.5706 311.843 38.7132L311.872 38.7239L311.601 38.7012C311.22 38.6706 310.836 38.6333 310.452 38.5919C310.067 38.5519 309.683 38.5119 309.297 38.4732C308.917 38.4226 308.539 38.3733 308.157 38.3226L307.587 38.2466C307.396 38.2212 307.207 38.1812 307.017 38.1492C306.639 38.0826 306.259 38.0159 305.879 37.9492C305.499 37.8786 305.123 37.7892 304.743 37.7092C303.984 37.5586 303.234 37.3519 302.48 37.1639C302.102 37.0706 301.731 36.9533 301.355 36.8479C300.981 36.7373 300.604 36.6413 300.233 36.5173C299.489 36.2799 298.743 36.0519 298.007 35.7879C296.527 35.2879 295.068 34.7226 293.617 34.1546C292.171 33.5706 290.735 32.9773 289.317 32.3639C287.897 31.7559 286.491 31.1386 285.097 30.5333C283.707 29.9253 282.316 29.3332 280.959 28.7519C278.244 27.5839 275.607 26.4079 273.021 25.4119C271.732 24.9106 270.451 24.4639 269.191 24.0666C267.929 23.6693 266.68 23.3519 265.461 23.0852C264.027 22.7959 262.627 22.6119 261.281 22.5372ZM256.471 23.3333C256.339 23.3866 256.21 23.4386 256.086 23.4893C255.922 23.5546 255.765 23.6173 255.615 23.6786L255.668 23.6466C255.775 23.5839 255.915 23.5026 256.079 23.4119C256.208 23.3839 256.339 23.3573 256.471 23.3333ZM265.311 23.8053C266.499 24.0946 267.716 24.4346 268.948 24.8533C270.179 25.2746 271.432 25.7426 272.699 26.2679C275.233 27.3092 277.831 28.5346 280.535 29.7652C281.889 30.3772 283.251 30.9906 284.632 31.6266C286.013 32.2599 287.408 32.9052 288.823 33.5439C290.235 34.1852 291.671 34.8119 293.121 35.4292C294.577 36.0306 296.044 36.6319 297.542 37.1679C298.287 37.4492 299.044 37.6973 299.799 37.9533C300.175 38.0853 300.56 38.1919 300.942 38.3119C301.324 38.4253 301.703 38.5533 302.088 38.6559C302.86 38.8626 303.627 39.0879 304.408 39.2572C304.798 39.3466 305.184 39.4453 305.575 39.5253C305.967 39.6013 306.359 39.6772 306.751 39.7519C306.947 39.7892 307.142 39.8319 307.339 39.8626L307.929 39.9519C308.324 40.0106 308.718 40.0679 309.111 40.1279C309.5 40.1746 309.889 40.2212 310.279 40.2679C310.667 40.3159 311.056 40.3599 311.445 40.3973C311.835 40.4373 312.223 40.4772 312.611 40.5159C313 40.5479 313.39 40.5786 313.778 40.6106L314.36 40.6559L314.943 40.6852C315.332 40.7026 315.719 40.7319 316.108 40.7386C317.66 40.7919 319.212 40.7479 320.743 40.5932C320.935 40.5719 321.125 40.5493 321.317 40.5279C321.508 40.5039 321.699 40.4879 321.888 40.4519C322.267 40.3879 322.644 40.3226 323.02 40.2586C323.393 40.1746 323.765 40.0893 324.135 40.0053C324.321 39.9666 324.504 39.9132 324.686 39.8599C324.867 39.8066 325.048 39.7533 325.229 39.6999C325.409 39.6453 325.594 39.5999 325.77 39.5346C325.947 39.4719 326.124 39.4093 326.3 39.3453C326.652 39.2199 327.006 39.0999 327.344 38.9466C327.684 38.7999 328.028 38.6639 328.36 38.5079C328.689 38.3465 329.016 38.1853 329.343 38.0253C329.507 37.9493 329.664 37.8599 329.821 37.7719C329.979 37.6853 330.135 37.5972 330.292 37.5106C330.448 37.4226 330.604 37.3372 330.76 37.2492C330.916 37.1626 331.064 37.0652 331.215 36.9732C331.515 36.7879 331.814 36.6039 332.111 36.4199C332.26 36.3239 332.408 36.2186 332.557 36.1173C332.707 36.0159 332.855 35.9159 332.995 35.8053C333.137 35.6959 333.28 35.5879 333.421 35.4799C333.561 35.3706 333.695 35.2532 333.831 35.1399C334.105 34.9172 334.357 34.6706 334.615 34.4333C335.113 33.9413 335.588 33.4359 336.011 32.8973C336.444 32.3679 336.82 31.8052 337.178 31.2412C337.516 30.6665 337.837 30.0906 338.095 29.4932C339.175 27.1279 339.52 24.6012 339.251 22.3706C339.116 21.2546 338.829 20.2133 338.445 19.2893C338.063 18.3613 337.585 17.5519 337.087 16.8506C336.595 16.1413 336.014 15.5199 335.416 14.9359C335.262 14.7959 335.107 14.6559 334.953 14.5159L334.712 14.3119L334.461 14.1119C334.297 13.9746 334.121 13.8586 333.948 13.7386L333.687 13.5599L333.419 13.3973C332.707 12.9653 331.963 12.6119 331.207 12.3412C330.452 12.0692 329.688 11.8519 328.923 11.7066C327.392 11.4092 325.865 11.3319 324.384 11.4346C323.644 11.4852 322.913 11.5746 322.2 11.7186C321.841 11.7799 321.491 11.8706 321.14 11.9546C320.965 11.9959 320.793 12.0519 320.621 12.0999C320.449 12.1493 320.277 12.1959 320.109 12.2572C319.94 12.3146 319.772 12.3719 319.604 12.4292C319.437 12.4906 319.272 12.5573 319.108 12.6226L318.863 12.7199L318.621 12.8279C318.46 12.8999 318.3 12.9733 318.142 13.0453C317.986 13.1253 317.83 13.2066 317.675 13.2866L317.443 13.4079L317.217 13.5399C317.068 13.6292 316.919 13.7173 316.771 13.8053C316.627 13.9013 316.483 13.9972 316.34 14.0932C316.195 14.1866 316.056 14.2893 315.92 14.3946C315.784 14.4986 315.645 14.5999 315.512 14.7066C315.255 14.9332 314.988 15.1426 314.752 15.3879C314.256 15.8492 313.831 16.3746 313.435 16.9039C313.344 17.0426 313.252 17.1799 313.161 17.3173L313.025 17.5239L312.904 17.7399C312.824 17.8826 312.745 18.0266 312.665 18.1679C312.596 18.3172 312.528 18.4652 312.46 18.6132L312.36 18.8333L312.273 19.0613C312.219 19.2133 312.164 19.3639 312.109 19.5132C312.063 19.6666 312.023 19.8212 311.98 19.9732L311.917 20.2026L311.871 20.4346C311.841 20.5892 311.812 20.7426 311.783 20.8959C311.766 21.0506 311.748 21.2052 311.732 21.3572L311.707 21.5866L311.699 21.8159C311.695 21.9679 311.691 22.1199 311.687 22.2706C311.693 22.4212 311.702 22.5706 311.708 22.7199L311.72 22.9412L311.748 23.1613C311.767 23.3066 311.784 23.4519 311.804 23.5959C311.833 23.7372 311.863 23.8786 311.892 24.0186L311.936 24.2279L311.993 24.4333C312.033 24.5679 312.072 24.7026 312.111 24.8359C312.159 24.9666 312.207 25.0959 312.255 25.2253L312.327 25.4173L312.409 25.6026C312.467 25.7253 312.523 25.8466 312.578 25.9679L312.767 26.3159C312.888 26.5492 313.037 26.7612 313.176 26.9732C313.749 27.8132 314.457 28.4732 315.187 28.9679C315.92 29.4639 316.684 29.7826 317.408 29.9586C318.132 30.1319 318.815 30.1852 319.416 30.1346L319.637 30.1212L319.851 30.0906C319.991 30.0706 320.125 30.0506 320.259 30.0306C320.516 29.9679 320.757 29.9146 320.976 29.8479C321.187 29.7719 321.384 29.7012 321.568 29.6346L321.76 29.5453C323.08 29.4559 324.185 28.4079 324.328 27.0132C324.488 25.4546 323.387 24.0586 321.867 23.8946C320.348 23.7306 318.987 24.8612 318.827 26.4186C318.701 27.6412 319.354 28.7599 320.372 29.2666L320.167 29.2879C320.047 29.2892 319.923 29.2919 319.796 29.2946L319.604 29.2986L319.407 29.2866C318.873 29.2719 318.288 29.1613 317.683 28.9586C317.079 28.7519 316.456 28.4319 315.872 27.9732C315.29 27.5132 314.733 26.9253 314.297 26.1999C314.192 26.0146 314.077 25.8346 313.988 25.6346L313.847 25.3399L313.724 25.0306L313.663 24.8745L313.612 24.7132L313.511 24.3879L313.431 24.0519L313.391 23.8826L313.363 23.7106L313.308 23.3613L313.279 23.0066L313.263 22.8279L313.261 22.6479C313.261 22.5279 313.26 22.4066 313.26 22.2852C313.268 22.1639 313.276 22.0412 313.286 21.9186L313.297 21.7346L313.327 21.5506C313.345 21.4279 313.364 21.3039 313.381 21.1813C313.411 21.0586 313.439 20.9359 313.468 20.8132L313.512 20.6279L313.569 20.4453C313.61 20.3239 313.645 20.2013 313.687 20.0786C313.736 19.9599 313.785 19.8399 313.835 19.7199L313.908 19.5386L313.997 19.3626L314.176 19.0093L314.383 18.6652L314.487 18.4932L314.606 18.3266L314.843 17.9919C316.181 16.2439 318.267 14.8959 320.687 14.1759C320.836 14.1239 320.99 14.0853 321.144 14.0453C321.298 14.0053 321.45 13.9586 321.606 13.9239C321.919 13.8559 322.232 13.7813 322.552 13.7333C323.19 13.6159 323.844 13.5479 324.504 13.5119C325.827 13.4399 327.185 13.5279 328.523 13.8012C329.192 13.9346 329.849 14.1306 330.493 14.3666C331.137 14.6026 331.757 14.9039 332.34 15.2613L332.56 15.3946L332.768 15.5412C332.908 15.6385 333.052 15.7332 333.181 15.8426L333.38 16.0026L333.579 16.1706C333.709 16.2906 333.842 16.4119 333.972 16.5319C334.479 17.0292 334.969 17.5519 335.373 18.1399C335.787 18.7212 336.179 19.3839 336.493 20.1372C336.809 20.8892 337.047 21.7333 337.161 22.6453C337.276 23.5573 337.269 24.5372 337.12 25.5492C337.092 25.8026 337.029 26.0546 336.981 26.3119C336.928 26.5679 336.852 26.8226 336.788 27.0826C336.628 27.5932 336.456 28.1133 336.225 28.6226C336.009 29.1373 335.735 29.6386 335.448 30.1399C335.141 30.6319 334.82 31.1266 334.445 31.5919C334.081 32.0679 333.671 32.5146 333.239 32.9519C333.015 33.1612 332.797 33.3826 332.557 33.5799C332.439 33.6799 332.323 33.7866 332.201 33.8839C332.077 33.9799 331.955 34.0759 331.831 34.1732C331.708 34.2732 331.579 34.3626 331.45 34.4533C331.318 34.5426 331.192 34.6359 331.057 34.7253C330.779 34.9026 330.499 35.0799 330.216 35.2599C330.075 35.3479 329.935 35.4426 329.791 35.5266C329.645 35.6092 329.5 35.6919 329.355 35.7759C329.208 35.8586 329.063 35.9426 328.916 36.0266C328.77 36.1119 328.623 36.1973 328.472 36.2693C328.171 36.4226 327.868 36.5759 327.564 36.7306C327.257 36.8799 326.941 37.0079 326.629 37.1492C326.317 37.2959 325.995 37.4093 325.672 37.5306C325.511 37.5906 325.348 37.6519 325.186 37.7119C325.024 37.7746 324.856 37.8172 324.691 37.8706C324.524 37.9226 324.357 37.9732 324.191 38.0239C324.024 38.0759 323.857 38.1279 323.687 38.1666C323.345 38.2493 323.004 38.3332 322.661 38.4159C322.313 38.4799 321.964 38.5452 321.614 38.6092C321.439 38.6466 321.26 38.6639 321.083 38.6879C320.904 38.7119 320.727 38.7346 320.548 38.7572C319.116 38.9226 317.644 38.9893 316.148 38.9613C315.775 38.9613 315.397 38.9373 315.021 38.9279L314.456 38.9066L313.888 38.8719C313.509 38.8479 313.128 38.8239 312.748 38.7999C312.583 38.7853 312.416 38.7706 312.25 38.7559C312.148 38.6853 312.038 38.6159 311.906 38.5546C311.51 38.3559 310.984 38.2186 310.392 38.0799C309.801 37.9546 309.149 37.7186 308.417 37.5026C306.956 37.0666 305.274 36.3839 303.444 35.5559C301.646 34.6679 299.688 33.5959 297.628 32.4626C294.828 30.9319 292.167 29.5465 289.839 28.4745C288.666 27.9559 287.599 27.4732 286.628 27.1132C286.147 26.9279 285.696 26.7546 285.281 26.5946C284.86 26.4546 284.475 26.3279 284.128 26.2132C283.796 26.0626 283.425 25.8946 283.02 25.7119C282.613 25.5306 282.168 25.3519 281.692 25.1533C280.739 24.7613 279.656 24.3212 278.457 23.8732C276.063 22.9879 273.196 22.0226 269.999 21.5333C268.823 21.3653 267.667 21.2373 266.543 21.2253C265.983 21.1959 265.429 21.2293 264.891 21.2359C264.621 21.2466 264.355 21.2732 264.091 21.2906C263.828 21.3146 263.567 21.3212 263.311 21.3652C261.466 21.5786 259.852 22.0679 258.5 22.5533C258.211 22.5746 257.927 22.6026 257.645 22.6359C258.237 22.3706 258.933 22.0852 259.733 21.8039C259.907 21.7426 260.085 21.6799 260.268 21.6159C260.452 21.5586 260.64 21.4986 260.832 21.4372C261.213 21.3106 261.619 21.2052 262.033 21.0826C262.871 20.8639 263.766 20.6412 264.719 20.4706C265.671 20.2972 266.675 20.1546 267.715 20.0839C268.235 20.0493 268.76 20.0346 269.296 20.0453C269.567 20.0546 269.839 20.0639 270.112 20.0732C270.385 20.0839 270.662 20.1119 270.939 20.1279C273.955 20.3693 276.752 21.0119 279.12 21.6346C281.487 22.2772 283.433 22.9106 284.768 23.3586C285.403 23.6639 286.193 24.0186 287.079 24.4786C287.967 24.9346 288.974 25.4466 290.075 25.9959C291.156 26.5946 292.328 27.2399 293.573 27.9092C294.803 28.6172 296.096 29.3626 297.435 30.1346C298.412 30.7159 299.371 31.2773 300.299 31.8119C301.207 32.3439 302.049 32.9266 302.859 33.4906C303.667 34.0559 304.437 34.6012 305.171 35.0959C305.904 35.5919 306.608 36.0305 307.261 36.4079C308.577 37.1572 309.723 37.6093 310.532 37.8306C310.735 37.8839 310.913 37.9346 311.071 37.9706C311.229 37.9999 311.364 38.0226 311.472 38.0426C311.688 38.0786 311.801 38.0999 311.801 38.0999C311.801 38.0999 311.692 38.0639 311.483 37.9959C311.379 37.9626 311.249 37.9226 311.097 37.8732C310.948 37.8186 310.778 37.7452 310.586 37.6679C309.819 37.3519 308.759 36.7892 307.542 35.9412C306.936 35.5119 306.283 35.0279 305.593 34.4852C304.901 33.9372 304.163 33.3532 303.386 32.7399C302.6 32.1292 301.756 31.4919 300.821 30.9106C299.901 30.3452 298.947 29.7666 297.963 29.1813C296.62 28.3973 295.288 27.6919 294.033 27.0132C292.751 26.3839 291.535 25.7972 290.411 25.2706C289.262 24.7919 288.209 24.3612 287.281 23.9879C286.353 23.6119 285.528 23.3426 284.861 23.1119C283.581 22.5119 281.696 21.6786 279.344 20.8652C276.99 20.0732 274.155 19.2866 271.02 19.0359C270.732 19.0173 270.445 18.9906 270.16 18.9799C269.873 18.9732 269.591 18.9666 269.309 18.9613C268.743 18.9586 268.179 18.9852 267.635 19.0372C266.543 19.1426 265.508 19.3346 264.536 19.5639C263.564 19.7919 262.659 20.0786 261.82 20.3666C261.404 20.5226 261 20.6612 260.623 20.8239C260.432 20.9026 260.245 20.9786 260.064 21.0546C259.884 21.1372 259.708 21.2159 259.536 21.2946C258.423 21.8053 257.525 22.3186 256.855 22.7506C256.384 22.8319 255.925 22.9319 255.484 23.0586C254.707 23.2839 253.985 23.5999 253.363 24.0146L253.512 24.3292L253.535 24.3839C254.133 24.0039 254.838 23.7159 255.606 23.5173L255.821 23.4679L255.643 23.6079L255.487 23.7292C255.169 23.8559 254.881 23.9719 254.631 24.0706C254.133 24.2599 253.773 24.3972 253.571 24.4732L253.581 24.4973C253.792 24.4466 254.165 24.3586 254.681 24.2346C255.096 24.1212 255.604 23.9799 256.193 23.8186C256.779 23.6506 257.446 23.4613 258.183 23.2506C258.358 23.2026 258.537 23.1546 258.721 23.1053C260.765 23.0279 262.994 23.2786 265.311 23.8053Z" fill="url(#paint5_linear_116_3374)"/>
<path d="M278.191 20.3427C278.429 20.42 278.669 20.4961 278.909 20.5721C279.123 20.6427 279.339 20.6987 279.552 20.7614C279.767 20.8214 279.98 20.8894 280.197 20.9427C280.629 21.0494 281.059 21.1681 281.493 21.2561C281.711 21.3001 281.928 21.3521 282.145 21.3921C282.363 21.4307 282.58 21.4693 282.797 21.508L283.123 21.5627L283.451 21.6067C283.669 21.6347 283.887 21.6641 284.104 21.6921C284.324 21.7161 284.545 21.7374 284.765 21.7614C284.985 21.7841 285.205 21.8067 285.425 21.8227L285.579 21.8374L285.563 21.8307C285.372 21.7614 285.132 21.7214 284.856 21.684C285.101 21.7107 285.349 21.7307 285.601 21.74L285.796 21.8547L286.081 21.88C286.299 21.8933 286.517 21.908 286.735 21.9214L287.06 21.9413L287.384 21.9534C287.6 21.9587 287.816 21.972 288.029 21.9734C288.887 21.988 289.731 21.9507 290.551 21.8561L290.857 21.816L291.161 21.7707C291.363 21.7334 291.563 21.6974 291.761 21.66C291.959 21.612 292.155 21.564 292.349 21.5174L292.639 21.4361L292.925 21.348L293.208 21.2561L293.487 21.152C293.672 21.084 293.857 21.0187 294.036 20.9347C294.215 20.8534 294.396 20.7801 294.572 20.6947C294.745 20.6067 294.92 20.5174 295.092 20.4307L295.347 20.2907L295.597 20.1467L295.848 20.004L296.092 19.852C296.253 19.748 296.413 19.6467 296.573 19.5454L296.797 19.3894L297.016 19.2294L297.229 19.0627L297.433 18.8894C297.571 18.7761 297.695 18.6494 297.823 18.5281C298.071 18.2787 298.307 18.0213 298.515 17.7493C298.731 17.4827 298.915 17.1987 299.089 16.9174C299.255 16.6294 299.412 16.3427 299.535 16.048C299.667 15.756 299.767 15.4574 299.857 15.1654C299.895 15.016 299.939 14.8707 299.968 14.724C299.996 14.576 300.032 14.432 300.048 14.2867C300.133 13.7067 300.137 13.1454 300.072 12.6227C300.007 12.1001 299.871 11.616 299.689 11.1853C299.509 10.7533 299.284 10.3734 299.048 10.04C298.816 9.70404 298.535 9.40401 298.244 9.11868L298.019 8.91204L297.905 8.81601L297.791 8.72402L297.555 8.55202L297.435 8.46673L297.309 8.39069C296.975 8.18535 296.62 8.01337 296.251 7.87871C295.881 7.74271 295.505 7.63068 295.121 7.55468C294.355 7.39735 293.576 7.34668 292.819 7.38802C292.44 7.40935 292.065 7.44804 291.7 7.51471C291.516 7.54271 291.337 7.58539 291.157 7.62539L290.892 7.69336L290.631 7.76803C289.244 8.18136 288.049 8.95472 287.281 9.95605L287.145 10.1467L287.077 10.2427L287.019 10.3427L286.9 10.5387L286.797 10.7413L286.747 10.8427L286.704 10.9454L286.62 11.152L286.552 11.3614L286.519 11.4667L286.493 11.5721L286.445 11.7827L286.412 11.9947L286.396 12.1001L286.389 12.2067L286.373 12.416L286.376 12.624V12.7281L286.385 12.8307L286.401 13.0334L286.433 13.2334L286.449 13.332L286.473 13.4281L286.517 13.6214L286.577 13.8067L286.605 13.9001L286.641 13.9894L286.711 14.1667L286.792 14.3361L286.969 14.6587C287.219 15.0761 287.539 15.412 287.872 15.676C288.207 15.9387 288.564 16.1227 288.909 16.24C289.256 16.356 289.592 16.4201 289.897 16.4281L290.011 16.4347L290.121 16.4334L290.332 16.4294L290.451 16.4174C289.867 16.1267 289.493 15.4853 289.565 14.7853C289.656 13.892 290.436 13.2454 291.307 13.3387C292.179 13.4334 292.809 14.2334 292.717 15.1254C292.636 15.9241 292.003 16.5254 291.245 16.576L291.136 16.6281C291.031 16.6667 290.917 16.7067 290.796 16.7507C290.671 16.788 290.533 16.8187 290.385 16.8547L290.152 16.8894L290.029 16.9067L289.901 16.9133C289.557 16.944 289.167 16.9133 288.752 16.8133C288.337 16.712 287.899 16.5294 287.479 16.2454C287.061 15.9614 286.655 15.5841 286.327 15.1027C286.247 14.9814 286.161 14.8601 286.092 14.7254L285.984 14.5267L285.888 14.3174L285.84 14.2107L285.799 14.1014L285.716 13.8787L285.649 13.6467L285.616 13.5294L285.591 13.4094L285.54 13.1667L285.508 12.9187L285.492 12.7921L285.485 12.6654L285.473 12.408L285.48 12.1467L285.484 12.016L285.499 11.8853L285.528 11.62L285.579 11.3561L285.605 11.2227L285.641 11.0921L285.715 10.8281L285.809 10.568L285.859 10.4387L285.916 10.312L286.035 10.0574L286.171 9.81067L286.24 9.68802L286.317 9.5694L286.476 9.3334C286.701 9.02806 286.945 8.72803 287.229 8.46269C287.365 8.32269 287.517 8.2027 287.665 8.07337L287.9 7.89472L288.14 7.72135L288.387 7.55605L288.643 7.40403L288.772 7.32806L288.904 7.25872L289.172 7.12135L289.447 6.99603L289.585 6.9347L289.727 6.87871L290.011 6.76803L290.3 6.6694L290.593 6.57871L290.891 6.49603C291.092 6.44802 291.292 6.39602 291.497 6.36002C291.907 6.27869 292.325 6.22806 292.749 6.19739C293.599 6.13873 294.473 6.18405 295.351 6.35338C295.789 6.43738 296.227 6.56138 296.66 6.71738C297.093 6.87338 297.519 7.07472 297.928 7.32272L298.081 7.41601L298.231 7.51868L298.524 7.7334L298.668 7.84668L298.807 7.96406L299.071 8.20403C299.413 8.54003 299.747 8.8947 300.029 9.30136C300.315 9.70403 300.588 10.168 300.808 10.6987C301.028 11.2294 301.192 11.8254 301.268 12.4654C301.424 13.7427 301.225 15.192 300.607 16.5467C300.459 16.8893 300.275 17.2187 300.081 17.5493C299.876 17.8707 299.66 18.1947 299.412 18.4974C299.169 18.8054 298.899 19.096 298.612 19.3773C298.464 19.5133 298.32 19.656 298.163 19.7827L297.928 19.9787L297.684 20.1641L297.433 20.3427L297.177 20.516C297.007 20.6213 296.836 20.7281 296.664 20.8334L296.403 20.9921L296.135 21.1413L295.865 21.2907L295.591 21.4361C295.404 21.5281 295.216 21.62 295.028 21.7133C294.837 21.8013 294.64 21.8801 294.445 21.9641C294.252 22.0521 294.049 22.1214 293.847 22.1934L293.544 22.3014L293.233 22.396L292.923 22.488L292.607 22.5707C292.395 22.6187 292.181 22.668 291.968 22.716C291.752 22.7533 291.536 22.7894 291.319 22.8267L290.992 22.8707L290.663 22.908C289.785 22.9973 288.896 23.0214 288.007 22.9921C287.784 22.9881 287.563 22.9707 287.34 22.9614L287.005 22.9427L286.672 22.9174C286.449 22.9 286.227 22.8814 286.003 22.8641C285.78 22.8414 285.557 22.8187 285.335 22.796C285.111 22.7747 284.888 22.748 284.667 22.7214C284.444 22.6947 284.22 22.668 283.997 22.64C283.772 22.6067 283.545 22.5734 283.32 22.54L282.981 22.4894L282.644 22.4254C282.42 22.3827 282.196 22.34 281.971 22.296C281.747 22.2494 281.525 22.1934 281.301 22.1427C280.855 22.0454 280.415 21.9161 279.972 21.7974C279.751 21.7387 279.535 21.6667 279.316 21.6014C279.097 21.532 278.876 21.4707 278.66 21.3947C278.228 21.2481 277.793 21.1067 277.368 20.9454C277.067 20.8374 276.772 20.7214 276.476 20.6067C276.457 20.4187 276.436 20.232 276.415 20.0454C277.004 20.1587 277.596 20.2587 278.191 20.3427Z" fill="url(#paint6_linear_116_3374)"/>
<path d="M229.842 23.0852C228.622 23.3519 227.373 23.6693 226.113 24.0666C224.853 24.4639 223.572 24.9106 222.281 25.4119C219.697 26.4079 217.06 27.5839 214.345 28.7519C212.988 29.3332 211.597 29.9253 210.206 30.5333C208.812 31.1386 207.405 31.7559 205.986 32.3639C204.568 32.9773 203.132 33.5706 201.686 34.1546C200.234 34.7226 198.777 35.2879 197.296 35.7879C196.56 36.0519 195.814 36.2799 195.07 36.5173C194.7 36.6413 194.322 36.7373 193.949 36.8479C193.573 36.9533 193.201 37.0706 192.824 37.1639C192.069 37.3519 191.32 37.5586 190.56 37.7092C190.181 37.7892 189.804 37.8786 189.425 37.9492C189.045 38.0159 188.665 38.0826 188.286 38.1492C188.096 38.1812 187.906 38.2212 187.717 38.2466L187.146 38.3226C186.765 38.3733 186.385 38.4226 186.006 38.4732C185.621 38.5119 185.236 38.5519 184.852 38.5919C184.468 38.6333 184.084 38.6706 183.701 38.7012L183.432 38.7239L183.46 38.7132C183.856 38.5706 184.366 38.4972 184.972 38.4212C185.585 38.3572 186.264 38.1853 187.021 38.0333C188.538 37.7239 190.302 37.1586 192.217 36.4066C194.112 35.5852 196.116 34.5639 198.176 33.4319C200.984 31.8972 203.568 30.4106 205.806 29.1959C206.933 28.6079 207.954 28.0426 208.881 27.6026C209.341 27.3733 209.771 27.1586 210.167 26.9599C210.568 26.7786 210.937 26.6106 211.267 26.4613C211.611 26.3466 211.994 26.2212 212.413 26.0826C212.832 25.9452 213.293 25.8092 213.784 25.6546C214.765 25.3519 215.875 25.0013 217.09 24.6359C219.52 23.9133 222.368 23.0906 225.462 22.6173C226.601 22.4546 227.716 22.3146 228.797 22.2732C229.339 22.2306 229.869 22.2466 230.389 22.2306C230.649 22.2306 230.907 22.2452 231.161 22.2519C231.415 22.2626 231.669 22.2559 231.913 22.2866C232.648 22.3333 233.352 22.4226 234.022 22.5372C232.677 22.6119 231.277 22.7959 229.842 23.0852ZM239.224 23.4119C239.389 23.5026 239.528 23.5839 239.636 23.6466L239.689 23.6786C239.538 23.6173 239.383 23.5546 239.219 23.4893C239.095 23.4386 238.964 23.3866 238.833 23.3333C238.965 23.3573 239.094 23.3839 239.224 23.4119ZM236.583 23.1053C236.765 23.1546 236.945 23.2026 237.121 23.2506C237.857 23.4613 238.524 23.6506 239.111 23.8186C239.7 23.9799 240.206 24.1212 240.622 24.2346C241.138 24.3586 241.512 24.4466 241.722 24.4973L241.733 24.4732C241.531 24.3972 241.17 24.2599 240.673 24.0706C240.422 23.9719 240.133 23.8559 239.817 23.7292L239.661 23.6079L239.483 23.4679L239.698 23.5173C240.466 23.7159 241.169 24.0039 241.769 24.3839L241.792 24.3292L241.941 24.0146C241.317 23.5999 240.596 23.2839 239.819 23.0586C239.379 22.9319 238.92 22.8319 238.449 22.7506C237.779 22.3186 236.881 21.8053 235.767 21.2946C235.596 21.2159 235.42 21.1372 235.24 21.0546C235.058 20.9786 234.872 20.9026 234.681 20.8239C234.302 20.6612 233.898 20.5226 233.484 20.3666C232.645 20.0786 231.74 19.7919 230.768 19.5639C229.794 19.3346 228.761 19.1426 227.669 19.0372C227.125 18.9852 226.561 18.9586 225.994 18.9613C225.713 18.9666 225.429 18.9732 225.144 18.9799C224.859 18.9906 224.572 19.0173 224.284 19.0359C221.149 19.2866 218.315 20.0732 215.96 20.8652C213.608 21.6786 211.721 22.5119 210.441 23.1119C209.774 23.3426 208.95 23.6119 208.022 23.9879C207.093 24.3612 206.041 24.7919 204.893 25.2706C203.768 25.7972 202.553 26.3839 201.27 27.0132C200.016 27.6919 198.684 28.3973 197.341 29.1813C196.357 29.7666 195.401 30.3452 194.482 30.9106C193.548 31.4919 192.704 32.1292 191.918 32.7399C191.141 33.3532 190.401 33.9372 189.71 34.4852C189.02 35.0279 188.368 35.5119 187.761 35.9412C186.545 36.7892 185.484 37.3519 184.718 37.6679C184.526 37.7452 184.356 37.8186 184.206 37.8732C184.054 37.9226 183.925 37.9626 183.821 37.9959C183.612 38.0639 183.501 38.0999 183.501 38.0999C183.501 38.0999 183.616 38.0786 183.832 38.0426C183.94 38.0226 184.075 37.9999 184.233 37.9706C184.389 37.9346 184.568 37.8839 184.772 37.8306C185.581 37.6093 186.726 37.1572 188.041 36.4079C188.696 36.0305 189.399 35.5919 190.133 35.0959C190.867 34.6012 191.637 34.0559 192.444 33.4906C193.253 32.9266 194.096 32.3439 195.005 31.8119C195.933 31.2773 196.892 30.7159 197.869 30.1346C199.207 29.3626 200.501 28.6172 201.729 27.9092C202.976 27.2399 204.148 26.5946 205.229 25.9959C206.331 25.4466 207.337 24.9346 208.224 24.4786C209.111 24.0186 209.9 23.6639 210.536 23.3586C211.869 22.9106 213.817 22.2772 216.182 21.6346C218.552 21.0119 221.349 20.3693 224.365 20.1279C224.642 20.1119 224.917 20.0839 225.192 20.0732C225.465 20.0639 225.737 20.0546 226.006 20.0453C226.544 20.0346 227.068 20.0493 227.589 20.0839C228.628 20.1546 229.633 20.2972 230.585 20.4706C231.537 20.6412 232.433 20.8639 233.27 21.0826C233.684 21.2052 234.091 21.3106 234.472 21.4372C234.664 21.4986 234.852 21.5586 235.036 21.6159C235.217 21.6799 235.396 21.7426 235.57 21.8039C236.37 22.0852 237.066 22.3706 237.657 22.6359C237.377 22.6026 237.093 22.5746 236.804 22.5533C235.452 22.0679 233.838 21.5786 231.993 21.3652C231.736 21.3212 231.476 21.3146 231.212 21.2906C230.949 21.2732 230.683 21.2466 230.413 21.2359C229.873 21.2293 229.321 21.1959 228.761 21.2253C227.637 21.2373 226.481 21.3653 225.305 21.5333C222.107 22.0226 219.241 22.9879 216.845 23.8732C215.646 24.3212 214.565 24.7613 213.61 25.1533C213.134 25.3519 212.69 25.5306 212.284 25.7119C211.878 25.8946 211.508 26.0626 211.174 26.2132C210.828 26.3279 210.442 26.4546 210.021 26.5946C209.606 26.7546 209.157 26.9279 208.676 27.1132C207.705 27.4732 206.637 27.9559 205.464 28.4745C203.137 29.5465 200.476 30.9319 197.674 32.4626C195.616 33.5959 193.659 34.6679 191.86 35.5559C190.031 36.3839 188.346 37.0666 186.886 37.5026C186.154 37.7186 185.502 37.9546 184.912 38.0799C184.318 38.2186 183.795 38.3559 183.397 38.5546C183.265 38.6159 183.154 38.6853 183.054 38.7559C182.888 38.7706 182.721 38.7853 182.556 38.7999C182.176 38.8239 181.794 38.8479 181.416 38.8719L180.848 38.9066L180.282 38.9279C179.905 38.9373 179.529 38.9613 179.156 38.9613C177.66 38.9893 176.188 38.9226 174.756 38.7572C174.577 38.7346 174.4 38.7119 174.221 38.6879C174.044 38.6639 173.865 38.6466 173.691 38.6092C173.34 38.5452 172.99 38.4799 172.642 38.4159C172.3 38.3332 171.957 38.2493 171.617 38.1666C171.445 38.1279 171.278 38.0759 171.112 38.0239C170.945 37.9732 170.78 37.9226 170.613 37.8706C170.448 37.8172 170.28 37.7746 170.118 37.7119C169.956 37.6519 169.793 37.5906 169.632 37.5306C169.309 37.4093 168.985 37.2959 168.674 37.1492C168.361 37.0079 168.045 36.8799 167.74 36.7306C167.436 36.5759 167.133 36.4226 166.832 36.2693C166.68 36.1973 166.533 36.1119 166.388 36.0266C166.24 35.9426 166.094 35.8586 165.949 35.7759C165.802 35.6919 165.657 35.6092 165.512 35.5266C165.368 35.4426 165.229 35.3479 165.088 35.2599C164.805 35.0799 164.525 34.9026 164.246 34.7253C164.112 34.6359 163.985 34.5426 163.854 34.4533C163.725 34.3626 163.594 34.2732 163.473 34.1732C163.349 34.0759 163.225 33.9799 163.103 33.8839C162.981 33.7866 162.865 33.6799 162.746 33.5799C162.506 33.3826 162.289 33.1612 162.065 32.9519C161.633 32.5146 161.221 32.0679 160.859 31.5919C160.484 31.1266 160.163 30.6319 159.856 30.1399C159.568 29.6386 159.294 29.1373 159.078 28.6226C158.848 28.1133 158.676 27.5932 158.516 27.0826C158.452 26.8226 158.375 26.5679 158.323 26.3119C158.275 26.0546 158.212 25.8026 158.184 25.5492C158.034 24.5372 158.026 23.5573 158.142 22.6453C158.257 21.7333 158.493 20.8892 158.809 20.1372C159.124 19.3839 159.517 18.7212 159.929 18.1399C160.335 17.5519 160.825 17.0292 161.332 16.5319C161.463 16.4119 161.595 16.2906 161.725 16.1706L161.923 16.0026L162.123 15.8426C162.252 15.7332 162.395 15.6385 162.535 15.5412L162.744 15.3946L162.964 15.2613C163.545 14.9039 164.166 14.6026 164.81 14.3666C165.454 14.1306 166.112 13.9346 166.781 13.8012C168.118 13.5279 169.477 13.4399 170.799 13.5119C171.46 13.5479 172.113 13.6159 172.75 13.7333C173.072 13.7813 173.384 13.8559 173.697 13.9239C173.853 13.9586 174.007 14.0053 174.16 14.0453C174.315 14.0853 174.468 14.1239 174.617 14.1759C177.037 14.8959 179.123 16.2439 180.461 17.9919L180.699 18.3266L180.817 18.4932L180.921 18.6652L181.128 19.0093L181.306 19.3626L181.395 19.5386L181.469 19.7199C181.519 19.8399 181.566 19.9599 181.616 20.0786C181.657 20.2013 181.695 20.3239 181.733 20.4453L181.792 20.6279L181.836 20.8132C181.864 20.9359 181.893 21.0586 181.921 21.1813C181.94 21.3039 181.958 21.4279 181.977 21.5506L182.005 21.7346L182.017 21.9186C182.026 22.0412 182.036 22.1639 182.044 22.2852C182.044 22.4066 182.042 22.5279 182.041 22.6479L182.04 22.8279L182.025 23.0066L181.996 23.3613L181.94 23.7106L181.913 23.8826L181.873 24.0519L181.793 24.3879L181.691 24.7132L181.641 24.8745L181.578 25.0306L181.456 25.3399L181.314 25.6346C181.226 25.8346 181.11 26.0146 181.006 26.1999C180.57 26.9253 180.013 27.5132 179.432 27.9732C178.847 28.4319 178.225 28.7519 177.621 28.9586C177.016 29.1613 176.431 29.2719 175.897 29.2866L175.7 29.2986L175.508 29.2946C175.38 29.2919 175.257 29.2892 175.137 29.2879L174.931 29.2666C175.951 28.7599 176.602 27.6412 176.477 26.4186C176.317 24.8612 174.956 23.7306 173.436 23.8946C171.917 24.0586 170.816 25.4546 170.976 27.0132C171.118 28.4079 172.224 29.4559 173.542 29.5453L173.735 29.6346C173.919 29.7012 174.117 29.7719 174.328 29.8479C174.547 29.9146 174.788 29.9679 175.045 30.0306C175.177 30.0506 175.313 30.0706 175.452 30.0906L175.667 30.1212L175.888 30.1346C176.489 30.1852 177.171 30.1319 177.896 29.9586C178.619 29.7826 179.384 29.4639 180.117 28.9679C180.845 28.4732 181.555 27.8132 182.128 26.9732C182.267 26.7612 182.416 26.5492 182.536 26.3159L182.725 25.9679C182.781 25.8466 182.837 25.7253 182.895 25.6026L182.977 25.4173L183.049 25.2253C183.096 25.0959 183.145 24.9666 183.193 24.8359C183.232 24.7026 183.27 24.5679 183.309 24.4333L183.368 24.2279L183.412 24.0186C183.441 23.8786 183.471 23.7372 183.499 23.5959C183.52 23.4519 183.537 23.3066 183.556 23.1613L183.582 22.9412L183.596 22.7199C183.603 22.5706 183.609 22.4212 183.617 22.2706C183.613 22.1199 183.609 21.9679 183.604 21.8159L183.596 21.5866L183.572 21.3572C183.556 21.2052 183.538 21.0506 183.52 20.8959C183.49 20.7426 183.461 20.5892 183.432 20.4346L183.386 20.2026L183.324 19.9732C183.281 19.8212 183.24 19.6666 183.195 19.5132C183.14 19.3639 183.085 19.2133 183.029 19.0613L182.944 18.8333L182.844 18.6132C182.776 18.4652 182.706 18.3172 182.638 18.1679C182.558 18.0266 182.479 17.8826 182.399 17.7399L182.277 17.5239L182.142 17.3173C182.052 17.1799 181.96 17.0426 181.868 16.9039C181.473 16.3746 181.046 15.8492 180.552 15.3879C180.316 15.1426 180.048 14.9332 179.791 14.7066C179.657 14.5999 179.52 14.4986 179.382 14.3946C179.246 14.2893 179.109 14.1866 178.964 14.0932C178.821 13.9972 178.677 13.9013 178.533 13.8053C178.384 13.7173 178.234 13.6292 178.085 13.5399L177.86 13.4079L177.629 13.2866C177.475 13.2066 177.319 13.1253 177.163 13.0453C177.004 12.9733 176.844 12.8999 176.682 12.8279L176.441 12.7199L176.196 12.6226C176.031 12.5573 175.867 12.4906 175.7 12.4292C175.532 12.3719 175.364 12.3146 175.195 12.2572C175.027 12.1959 174.854 12.1493 174.681 12.0999C174.509 12.0519 174.339 11.9959 174.163 11.9546C173.813 11.8706 173.461 11.7799 173.104 11.7186C172.39 11.5746 171.66 11.4852 170.92 11.4346C169.438 11.3319 167.91 11.4092 166.381 11.7066C165.616 11.8519 164.852 12.0692 164.096 12.3412C163.341 12.6119 162.597 12.9653 161.884 13.3973L161.616 13.5599L161.356 13.7386C161.183 13.8586 161.006 13.9746 160.842 14.1119L160.592 14.3119L160.349 14.5159C160.196 14.6559 160.042 14.7959 159.888 14.9359C159.289 15.5199 158.708 16.1413 158.216 16.8506C157.718 17.5519 157.241 18.3613 156.857 19.2893C156.475 20.2133 156.186 21.2546 156.053 22.3706C155.782 24.6012 156.129 27.1279 157.208 29.4932C157.466 30.0906 157.788 30.6665 158.125 31.2412C158.484 31.8052 158.86 32.3679 159.293 32.8973C159.716 33.4359 160.191 33.9413 160.689 34.4333C160.947 34.6706 161.198 34.9172 161.473 35.1399C161.609 35.2532 161.742 35.3706 161.882 35.4799C162.024 35.5879 162.166 35.6959 162.309 35.8053C162.449 35.9159 162.597 36.0159 162.746 36.1173C162.894 36.2186 163.044 36.3239 163.193 36.4199C163.489 36.6039 163.789 36.7879 164.089 36.9732C164.24 37.0652 164.388 37.1626 164.542 37.2492C164.698 37.3372 164.854 37.4226 165.012 37.5106C165.168 37.5972 165.325 37.6853 165.482 37.7719C165.64 37.8599 165.796 37.9493 165.961 38.0253C166.288 38.1853 166.614 38.3465 166.944 38.5079C167.276 38.6639 167.62 38.7999 167.96 38.9466C168.297 39.0999 168.65 39.2199 169.004 39.3453C169.18 39.4093 169.356 39.4719 169.533 39.5346C169.709 39.5999 169.893 39.6453 170.073 39.6999C170.254 39.7533 170.436 39.8066 170.618 39.8599C170.8 39.9132 170.983 39.9666 171.168 40.0053C171.539 40.0893 171.91 40.1746 172.284 40.2586C172.66 40.3226 173.037 40.3879 173.416 40.4519C173.605 40.4879 173.796 40.5039 173.986 40.5279C174.177 40.5493 174.369 40.5719 174.56 40.5932C176.092 40.7479 177.644 40.7919 179.196 40.7386C179.585 40.7319 179.972 40.7026 180.36 40.6852L180.944 40.6559L181.527 40.6106C181.915 40.5786 182.303 40.5479 182.693 40.5159C183.081 40.4772 183.469 40.4373 183.859 40.3973C184.248 40.3599 184.637 40.3159 185.025 40.2679C185.413 40.2212 185.803 40.1746 186.193 40.1279C186.587 40.0679 186.98 40.0106 187.373 39.9519L187.965 39.8626C188.163 39.8319 188.357 39.7892 188.553 39.7519C188.944 39.6772 189.336 39.6013 189.728 39.5253C190.12 39.4453 190.507 39.3466 190.896 39.2572C191.677 39.0879 192.444 38.8626 193.214 38.6559C193.601 38.5533 193.98 38.4253 194.363 38.3119C194.743 38.1919 195.128 38.0853 195.504 37.9533C196.26 37.6973 197.017 37.4492 197.761 37.1679C199.26 36.6319 200.726 36.0306 202.182 35.4292C203.632 34.8119 205.068 34.1852 206.481 33.5439C207.896 32.9052 209.289 32.2599 210.67 31.6266C212.052 30.9906 213.413 30.3772 214.769 29.7652C217.472 28.5346 220.069 27.3092 222.605 26.2679C223.872 25.7426 225.124 25.2746 226.356 24.8533C227.588 24.4346 228.804 24.0946 229.992 23.8053C232.311 23.2786 234.539 23.0279 236.583 23.1053Z" fill="url(#paint7_linear_116_3374)"/>
<path d="M217.113 20.3427C216.873 20.42 216.633 20.4961 216.394 20.5721C216.181 20.6427 215.965 20.6987 215.752 20.7614C215.537 20.8214 215.322 20.8894 215.106 20.9427C214.674 21.0494 214.244 21.1681 213.809 21.2561C213.593 21.3001 213.376 21.3521 213.158 21.3921C212.941 21.4307 212.724 21.4693 212.506 21.508L212.18 21.5627L211.853 21.6067C211.634 21.6347 211.417 21.6641 211.2 21.6921C210.978 21.7161 210.758 21.7374 210.538 21.7614C210.317 21.7841 210.097 21.8067 209.878 21.8227L209.725 21.8374L209.741 21.8307C209.932 21.7614 210.172 21.7214 210.448 21.684C210.202 21.7107 209.954 21.7307 209.702 21.74L209.508 21.8547L209.222 21.88C209.004 21.8933 208.786 21.908 208.569 21.9214L208.244 21.9413L207.92 21.9534C207.704 21.9587 207.488 21.972 207.274 21.9734C206.416 21.988 205.573 21.9507 204.753 21.8561L204.446 21.816L204.142 21.7707C203.941 21.7334 203.741 21.6974 203.541 21.66C203.345 21.612 203.149 21.564 202.954 21.5174L202.665 21.4361L202.378 21.348L202.094 21.2561L201.817 21.152C201.63 21.084 201.445 21.0187 201.266 20.9347C201.088 20.8534 200.906 20.7801 200.732 20.6947C200.557 20.6067 200.384 20.5174 200.212 20.4307L199.956 20.2907L199.705 20.1467L199.456 20.004L199.212 19.852C199.05 19.748 198.889 19.6467 198.73 19.5454L198.505 19.3894L198.286 19.2294L198.074 19.0627L197.87 18.8894C197.733 18.7761 197.608 18.6494 197.48 18.5281C197.233 18.2787 196.996 18.0213 196.789 17.7493C196.573 17.4827 196.389 17.1987 196.213 16.9174C196.049 16.6294 195.892 16.3427 195.768 16.048C195.636 15.756 195.537 15.4574 195.446 15.1654C195.409 15.016 195.365 14.8707 195.336 14.724C195.308 14.576 195.272 14.432 195.256 14.2867C195.17 13.7067 195.165 13.1454 195.232 12.6227C195.297 12.1001 195.433 11.616 195.614 11.1853C195.794 10.7533 196.02 10.3734 196.256 10.04C196.488 9.70404 196.769 9.40401 197.06 9.11868L197.285 8.91204L197.398 8.81601L197.512 8.72402L197.749 8.55202L197.869 8.46673L197.994 8.39069C198.328 8.18535 198.684 8.01337 199.053 7.87871C199.422 7.74271 199.798 7.63068 200.182 7.55468C200.949 7.39735 201.728 7.34668 202.485 7.38802C202.864 7.40935 203.238 7.44804 203.604 7.51471C203.788 7.54271 203.966 7.58539 204.146 7.62539L204.41 7.69336L204.673 7.76803C206.06 8.18136 207.254 8.95472 208.021 9.95605L208.158 10.1467L208.226 10.2427L208.285 10.3427L208.404 10.5387L208.506 10.7413L208.557 10.8427L208.6 10.9454L208.684 11.152L208.75 11.3614L208.785 11.4667L208.809 11.5721L208.858 11.7827L208.89 11.9947L208.906 12.1001L208.914 12.2067L208.929 12.416L208.928 12.624V12.7281L208.918 12.8307L208.901 13.0334L208.87 13.2334L208.853 13.332L208.83 13.4281L208.785 13.6214L208.726 13.8067L208.698 13.9001L208.662 13.9894L208.592 14.1667L208.512 14.3361L208.334 14.6587C208.085 15.0761 207.765 15.412 207.432 15.676C207.097 15.9387 206.74 16.1227 206.394 16.24C206.048 16.356 205.712 16.4201 205.406 16.4281L205.293 16.4347L205.182 16.4334L204.97 16.4294L204.853 16.4174C205.437 16.1267 205.81 15.4853 205.738 14.7853C205.648 13.892 204.866 13.2454 203.996 13.3387C203.125 13.4334 202.494 14.2334 202.586 15.1254C202.668 15.9241 203.301 16.5254 204.057 16.576L204.168 16.6281C204.273 16.6667 204.386 16.7067 204.508 16.7507C204.632 16.788 204.77 16.8187 204.918 16.8547L205.15 16.8894L205.274 16.9067L205.401 16.9133C205.745 16.944 206.136 16.9133 206.552 16.8133C206.966 16.712 207.404 16.5294 207.824 16.2454C208.242 15.9614 208.649 15.5841 208.977 15.1027C209.057 14.9814 209.142 14.8601 209.21 14.7254L209.32 14.5267L209.416 14.3174L209.464 14.2107L209.505 14.1014L209.588 13.8787L209.654 13.6467L209.688 13.5294L209.713 13.4094L209.762 13.1667L209.794 12.9187L209.812 12.7921L209.817 12.6654L209.83 12.408L209.822 12.1467L209.818 12.016L209.805 11.8853L209.774 11.62L209.725 11.3561L209.698 11.2227L209.662 11.0921L209.588 10.8281L209.493 10.568L209.445 10.4387L209.388 10.312L209.269 10.0574L209.132 9.81067L209.062 9.68802L208.985 9.5694L208.828 9.3334C208.601 9.02806 208.357 8.72803 208.073 8.46269C207.938 8.32269 207.785 8.2027 207.637 8.07337L207.404 7.89472L207.164 7.72135L206.917 7.55605L206.661 7.40403L206.532 7.32806L206.4 7.25872L206.132 7.12135L205.857 6.99603L205.718 6.9347L205.577 6.87871L205.293 6.76803L205.004 6.6694L204.71 6.57871L204.413 6.49603C204.212 6.44802 204.01 6.39602 203.805 6.36002C203.397 6.27869 202.978 6.22806 202.554 6.19739C201.705 6.13873 200.83 6.18405 199.953 6.35338C199.514 6.43738 199.077 6.56138 198.644 6.71738C198.21 6.87338 197.785 7.07472 197.376 7.32272L197.222 7.41601L197.073 7.51868L196.778 7.7334L196.636 7.84668L196.497 7.96406L196.233 8.20403C195.889 8.54003 195.556 8.8947 195.274 9.30136C194.989 9.70403 194.716 10.168 194.496 10.6987C194.276 11.2294 194.112 11.8254 194.034 12.4654C193.88 13.7427 194.078 15.192 194.697 16.5467C194.845 16.8893 195.028 17.2187 195.222 17.5493C195.428 17.8707 195.642 18.1947 195.892 18.4974C196.133 18.8054 196.405 19.096 196.692 19.3773C196.838 19.5133 196.982 19.656 197.141 19.7827L197.374 19.9787L197.62 20.1641L197.87 20.3427L198.126 20.516C198.296 20.6213 198.468 20.7281 198.64 20.8334L198.9 20.9921L199.168 21.1413L199.438 21.2907L199.712 21.4361C199.9 21.5281 200.088 21.62 200.276 21.7133C200.465 21.8013 200.662 21.8801 200.857 21.9641C201.052 22.0521 201.254 22.1214 201.456 22.1934L201.76 22.3014L202.069 22.396L202.381 22.488L202.697 22.5707C202.909 22.6187 203.122 22.668 203.336 22.716C203.55 22.7533 203.768 22.7894 203.984 22.8267L204.312 22.8707L204.64 22.908C205.517 22.9973 206.408 23.0214 207.297 22.9921C207.52 22.9881 207.741 22.9707 207.964 22.9614L208.298 22.9427L208.632 22.9174C208.854 22.9 209.077 22.8814 209.301 22.8641C209.522 22.8414 209.745 22.8187 209.969 22.796C210.192 22.7747 210.414 22.748 210.637 22.7214C210.86 22.6947 211.084 22.668 211.306 22.64C211.532 22.6067 211.757 22.5734 211.984 22.54L212.322 22.4894L212.658 22.4254C212.884 22.3827 213.108 22.34 213.333 22.296C213.557 22.2494 213.778 22.1934 214.001 22.1427C214.449 22.0454 214.889 21.9161 215.33 21.7974C215.552 21.7387 215.769 21.6667 215.988 21.6014C216.206 21.532 216.428 21.4707 216.642 21.3947C217.076 21.2481 217.51 21.1067 217.936 20.9454C218.236 20.8374 218.532 20.7214 218.826 20.6067C218.845 20.4187 218.868 20.232 218.889 20.0454C218.298 20.1587 217.706 20.2587 217.113 20.3427Z" fill="url(#paint8_linear_116_3374)"/>
<defs>
<linearGradient id="paint0_linear_116_3374" x1="-nan" y1="-nan" x2="-nan" y2="-nan" gradientUnits="userSpaceOnUse">
<stop stop-color="#F0D8A8"/>
<stop offset="0.150732" stop-color="#F0D8A8"/>
<stop offset="0.573161" stop-color="#CD9B74"/>
<stop offset="0.612903" stop-color="#CD9B74"/>
<stop offset="0.613741" stop-color="#CD9B74"/>
<stop offset="0.72043" stop-color="#976A51"/>
<stop offset="0.721351" stop-color="#976A51"/>
<stop offset="0.83871" stop-color="#CD9B74"/>
<stop offset="0.999958" stop-color="#F0D8A8"/>
<stop offset="1" stop-color="#F0D8A8"/>
</linearGradient>
<linearGradient id="paint1_linear_116_3374" x1="371.066" y1="-7.99878" x2="41.7358" y2="55.7429" gradientUnits="userSpaceOnUse">
<stop stop-color="#F0D8A8"/>
<stop offset="0.150732" stop-color="#F0D8A8"/>
<stop offset="0.573161" stop-color="#CD9B74"/>
<stop offset="0.612903" stop-color="#CD9B74"/>
<stop offset="0.613741" stop-color="#CD9B74"/>
<stop offset="0.72043" stop-color="#976A51"/>
<stop offset="0.721351" stop-color="#976A51"/>
<stop offset="0.83871" stop-color="#CD9B74"/>
<stop offset="0.999958" stop-color="#F0D8A8"/>
<stop offset="1" stop-color="#F0D8A8"/>
</linearGradient>
<linearGradient id="paint2_linear_116_3374" x1="370.542" y1="-10.7093" x2="41.2102" y2="53.0329" gradientUnits="userSpaceOnUse">
<stop stop-color="#F0D8A8"/>
<stop offset="0.150732" stop-color="#F0D8A8"/>
<stop offset="0.573161" stop-color="#CD9B74"/>
<stop offset="0.612903" stop-color="#CD9B74"/>
<stop offset="0.613741" stop-color="#CD9B74"/>
<stop offset="0.72043" stop-color="#976A51"/>
<stop offset="0.721351" stop-color="#976A51"/>
<stop offset="0.83871" stop-color="#CD9B74"/>
<stop offset="0.999958" stop-color="#F0D8A8"/>
<stop offset="1" stop-color="#F0D8A8"/>
</linearGradient>
<linearGradient id="paint3_linear_116_3374" x1="371.737" y1="-4.54012" x2="42.405" y2="59.2018" gradientUnits="userSpaceOnUse">
<stop stop-color="#F0D8A8"/>
<stop offset="0.150732" stop-color="#F0D8A8"/>
<stop offset="0.573161" stop-color="#CD9B74"/>
<stop offset="0.612903" stop-color="#CD9B74"/>
<stop offset="0.613741" stop-color="#CD9B74"/>
<stop offset="0.72043" stop-color="#976A51"/>
<stop offset="0.721351" stop-color="#976A51"/>
<stop offset="0.83871" stop-color="#CD9B74"/>
<stop offset="0.999958" stop-color="#F0D8A8"/>
<stop offset="1" stop-color="#F0D8A8"/>
</linearGradient>
<linearGradient id="paint4_linear_116_3374" x1="373.602" y1="5.10931" x2="44.2752" y2="68.85" gradientUnits="userSpaceOnUse">
<stop stop-color="#F0D8A8"/>
<stop offset="0.150732" stop-color="#F0D8A8"/>
<stop offset="0.573161" stop-color="#CD9B74"/>
<stop offset="0.612903" stop-color="#CD9B74"/>
<stop offset="0.613741" stop-color="#CD9B74"/>
<stop offset="0.72043" stop-color="#976A51"/>
<stop offset="0.721351" stop-color="#976A51"/>
<stop offset="0.83871" stop-color="#CD9B74"/>
<stop offset="0.999958" stop-color="#F0D8A8"/>
<stop offset="1" stop-color="#F0D8A8"/>
</linearGradient>
<linearGradient id="paint5_linear_116_3374" x1="375.348" y1="14.1132" x2="46.0147" y2="77.8552" gradientUnits="userSpaceOnUse">
<stop stop-color="#F0D8A8"/>
<stop offset="0.150732" stop-color="#F0D8A8"/>
<stop offset="0.573161" stop-color="#CD9B74"/>
<stop offset="0.612903" stop-color="#CD9B74"/>
<stop offset="0.613741" stop-color="#CD9B74"/>
<stop offset="0.72043" stop-color="#976A51"/>
<stop offset="0.721351" stop-color="#976A51"/>
<stop offset="0.83871" stop-color="#CD9B74"/>
<stop offset="0.999958" stop-color="#F0D8A8"/>
<stop offset="1" stop-color="#F0D8A8"/>
</linearGradient>
<linearGradient id="paint6_linear_116_3374" x1="372.408" y1="-1.07594" x2="43.0747" y2="62.6663" gradientUnits="userSpaceOnUse">
<stop stop-color="#F0D8A8"/>
<stop offset="0.150732" stop-color="#F0D8A8"/>
<stop offset="0.573161" stop-color="#CD9B74"/>
<stop offset="0.612903" stop-color="#CD9B74"/>
<stop offset="0.613741" stop-color="#CD9B74"/>
<stop offset="0.72043" stop-color="#976A51"/>
<stop offset="0.721351" stop-color="#976A51"/>
<stop offset="0.83871" stop-color="#CD9B74"/>
<stop offset="0.999958" stop-color="#F0D8A8"/>
<stop offset="1" stop-color="#F0D8A8"/>
</linearGradient>
<linearGradient id="paint7_linear_116_3374" x1="370.369" y1="-11.6068" x2="41.0358" y2="52.1353" gradientUnits="userSpaceOnUse">
<stop stop-color="#F0D8A8"/>
<stop offset="0.150732" stop-color="#F0D8A8"/>
<stop offset="0.573161" stop-color="#CD9B74"/>
<stop offset="0.612903" stop-color="#CD9B74"/>
<stop offset="0.613741" stop-color="#CD9B74"/>
<stop offset="0.72043" stop-color="#976A51"/>
<stop offset="0.721351" stop-color="#976A51"/>
<stop offset="0.83871" stop-color="#CD9B74"/>
<stop offset="0.999958" stop-color="#F0D8A8"/>
<stop offset="1" stop-color="#F0D8A8"/>
</linearGradient>
<linearGradient id="paint8_linear_116_3374" x1="369.294" y1="-17.1559" x2="39.9626" y2="46.5861" gradientUnits="userSpaceOnUse">
<stop stop-color="#F0D8A8"/>
<stop offset="0.150732" stop-color="#F0D8A8"/>
<stop offset="0.573161" stop-color="#CD9B74"/>
<stop offset="0.612903" stop-color="#CD9B74"/>
<stop offset="0.613741" stop-color="#CD9B74"/>
<stop offset="0.72043" stop-color="#976A51"/>
<stop offset="0.721351" stop-color="#976A51"/>
<stop offset="0.83871" stop-color="#CD9B74"/>
<stop offset="0.999958" stop-color="#F0D8A8"/>
<stop offset="1" stop-color="#F0D8A8"/>
</linearGradient>
</defs>
</svg>
