<svg width="492" height="42" viewBox="0 0 492 42" fill="none" xmlns="http://www.w3.org/2000/svg">
<path d="M264.904 26.0613C265.252 26.2146 265.511 26.5092 265.64 26.9799C265.763 27.4426 265.722 28.0799 265.398 28.8013C265.076 29.5159 264.414 30.2919 263.46 30.8399C262.514 31.3973 261.298 31.6719 260.111 31.5839C259.51 31.5586 258.759 31.3853 257.962 31.0679C257.164 30.7493 256.342 30.2546 255.604 29.6146C254.862 28.9759 254.202 28.1959 253.68 27.3519C253.155 26.5066 252.766 25.5999 252.502 24.7146C252.251 23.8239 252.119 22.9599 252.072 22.1759C252.055 21.7826 252.054 21.4106 252.064 21.064C252.091 20.716 252.11 20.3959 252.151 20.1039C252.196 19.8106 252.244 19.5493 252.292 19.3199C252.343 19.0906 252.41 18.8946 252.464 18.736C252.578 18.4173 252.682 18.2439 252.768 18.2439C252.844 18.2439 252.951 18.4173 253.076 18.7173C253.208 19.0533 253.37 19.4679 253.555 19.9426C253.655 20.1919 253.778 20.4573 253.894 20.7373C254.024 21.0133 254.166 21.3013 254.316 21.5946C254.632 22.1759 255.006 22.7666 255.428 23.3119C255.863 23.8506 256.347 24.3399 256.85 24.7346C257.352 25.1319 257.872 25.4346 258.354 25.6412C258.835 25.8519 259.279 25.9626 259.639 26.0146L259.894 26.0466L260.118 26.0679L260.312 26.0852L260.475 26.0893C260.874 26.1159 261.192 26.1399 261.514 26.1533C261.832 26.1679 262.183 26.1773 262.566 26.1279C263.335 26.0493 264.199 25.7546 264.904 26.0613Z" fill="url(#paint0_linear_116_3375)"/>
<path d="M252.975 32.4412C250.84 27.5971 250.267 20.7999 250.199 19.9025L250.123 19.8038L248.039 17.4452C247.763 17.1332 247.276 17.1332 247 17.4452L244.917 19.8038L244.84 19.9025C244.773 20.7999 244.289 27.0745 242.064 32.4412C242.047 32.4838 246.356 40.1852 247.327 41.7945C247.424 41.9572 247.615 41.9572 247.713 41.7945C248.684 40.1852 252.993 32.4825 252.975 32.4412Z" fill="url(#paint1_linear_116_3375)"/>
<path d="M229.86 26.0613C229.512 26.2146 229.253 26.5092 229.124 26.9799C229.001 27.4426 229.041 28.0799 229.367 28.8013C229.689 29.5159 230.351 30.2919 231.303 30.8399C232.251 31.3973 233.467 31.6719 234.653 31.5839C235.253 31.5586 236.005 31.3853 236.803 31.0679C237.599 30.7493 238.423 30.2546 239.161 29.6146C239.903 28.9759 240.561 28.1959 241.084 27.3519C241.609 26.5066 241.997 25.5999 242.263 24.7146C242.513 23.8239 242.645 22.9599 242.692 22.1759C242.709 21.7826 242.711 21.4106 242.699 21.064C242.673 20.716 242.655 20.3959 242.613 20.1039C242.568 19.8106 242.52 19.5493 242.472 19.3199C242.421 19.0906 242.355 18.8946 242.301 18.736C242.187 18.4173 242.083 18.2439 241.996 18.2439C241.92 18.2439 241.813 18.4173 241.688 18.7173C241.556 19.0533 241.395 19.4679 241.209 19.9426C241.109 20.1919 240.987 20.4573 240.871 20.7373C240.74 21.0133 240.599 21.3013 240.448 21.5946C240.133 22.1759 239.759 22.7666 239.336 23.3119C238.901 23.8506 238.417 24.3399 237.915 24.7346C237.412 25.1319 236.892 25.4346 236.411 25.6412C235.929 25.8519 235.485 25.9626 235.125 26.0146L234.871 26.0466L234.647 26.0679L234.452 26.0852L234.289 26.0893C233.891 26.1159 233.571 26.1399 233.251 26.1533C232.932 26.1679 232.581 26.1773 232.199 26.1279C231.429 26.0493 230.565 25.7546 229.86 26.0613Z" fill="url(#paint2_linear_116_3375)"/>
<path d="M247.52 16.5852L244.859 14.0599C245.338 13.4172 247.52 9.7119 247.52 9.7119C247.52 9.7119 249.599 13.4172 250.079 14.0599L247.52 16.5852Z" fill="url(#paint3_linear_116_3375)"/>
<path d="M233.759 20.1241C233.088 20.2374 232.384 20.328 231.649 20.3747C231.405 20.4054 231.151 20.3974 230.897 20.4094C230.643 20.4161 230.385 20.4294 230.125 20.4294C229.605 20.4147 229.075 20.4307 228.533 20.3881C227.452 20.3454 226.337 20.2054 225.199 20.044C222.104 19.5707 219.256 18.7467 216.827 18.0241C215.611 17.6601 214.501 17.3081 213.52 17.0067C213.029 16.8521 212.568 16.7161 212.148 16.5787C211.731 16.4401 211.347 16.3134 211.003 16.2001C210.673 16.0508 210.304 15.8841 209.903 15.7014C209.507 15.5027 209.077 15.2881 208.617 15.0588C207.692 14.6188 206.669 14.0521 205.543 13.4654C203.304 12.2507 200.72 10.7641 197.912 9.22939C195.852 8.09606 193.848 7.07605 191.953 6.25472C190.039 5.50272 188.275 4.93742 186.757 4.62809C186 4.47609 185.321 4.30277 184.708 4.23877C184.103 4.1641 183.592 4.09074 183.196 3.94808L183.168 3.9374L183.437 3.96006C183.82 3.98939 184.204 4.0281 184.588 4.06943C184.972 4.1081 185.357 4.14805 185.743 4.18805C186.121 4.23872 186.501 4.2881 186.883 4.33877L187.452 4.41474C187.643 4.44008 187.832 4.47871 188.023 4.51071C188.401 4.57737 188.781 4.64407 189.161 4.71207C189.54 4.78274 189.917 4.87205 190.296 4.95205C191.056 5.10271 191.805 5.30943 192.56 5.49743C192.937 5.58943 193.309 5.70807 193.685 5.81207C194.059 5.92407 194.436 6.02004 194.807 6.14404C195.551 6.38137 196.296 6.60943 197.032 6.8721C198.513 7.3721 199.972 7.93874 201.423 8.50673C202.868 9.09074 204.304 9.68409 205.723 10.2974C207.141 10.9054 208.548 11.5228 209.943 12.1281C211.333 12.7361 212.724 13.328 214.081 13.908C216.796 15.076 219.433 16.2534 222.017 17.2494C223.308 17.7507 224.589 18.1961 225.849 18.5948C227.109 18.9921 228.359 19.3094 229.579 19.5747C231.013 19.864 232.413 20.0494 233.759 20.1241ZM238.569 19.3267C238.7 19.2747 238.831 19.2214 238.955 19.1721C239.119 19.1054 239.275 19.0427 239.425 18.9827L239.372 19.0134C239.264 19.076 239.125 19.1587 238.96 19.2494C238.831 19.2774 238.701 19.3041 238.569 19.3267ZM229.728 18.8561C228.54 18.5668 227.324 18.2267 226.092 17.808C224.86 17.3867 223.608 16.9187 222.341 16.3934C219.805 15.3521 217.209 14.1267 214.505 12.8961C213.149 12.2841 211.788 11.6707 210.407 11.0347C209.025 10.4014 207.631 9.75608 206.217 9.11741C204.804 8.47475 203.368 7.84806 201.919 7.23206C200.463 6.62939 198.996 6.02942 197.497 5.49209C196.753 5.21209 195.996 4.96404 195.241 4.70804C194.864 4.57471 194.479 4.46941 194.099 4.34808C193.716 4.23474 193.337 4.10677 192.951 4.00543C192.18 3.79877 191.413 3.57343 190.632 3.40277C190.243 3.31476 189.856 3.2161 189.464 3.1361C189.072 3.0601 188.68 2.98404 188.289 2.90804C188.093 2.87204 187.899 2.82806 187.701 2.79873L187.109 2.70941C186.716 2.65074 186.323 2.59209 185.929 2.53343C185.539 2.48676 185.149 2.44006 184.761 2.39339C184.373 2.34539 183.984 2.30006 183.595 2.26273C183.205 2.22406 182.817 2.18404 182.429 2.14404C182.039 2.11337 181.651 2.08141 181.263 2.05075L180.68 2.00543L180.096 1.97607C179.708 1.95874 179.321 1.92938 178.932 1.92138C177.38 1.86938 175.828 1.9121 174.296 2.06676C174.105 2.08943 173.913 2.11076 173.723 2.13343C173.532 2.1561 173.341 2.1734 173.152 2.20941C172.773 2.27341 172.396 2.3374 172.02 2.4014C171.647 2.48673 171.275 2.57075 170.904 2.65608C170.719 2.69342 170.536 2.74673 170.355 2.8014C170.172 2.85473 169.991 2.90809 169.809 2.96142C169.629 3.01609 169.445 3.06142 169.269 3.12542C169.092 3.18942 168.916 3.25208 168.74 3.31474C168.387 3.44141 168.033 3.56141 167.696 3.71474C167.356 3.86141 167.012 3.99742 166.68 4.15342C166.351 4.31475 166.024 4.47606 165.697 4.63473C165.532 4.71206 165.376 4.80142 165.219 4.88942C165.061 4.97609 164.904 5.06408 164.748 5.15075C164.591 5.23741 164.435 5.32404 164.279 5.41071C164.124 5.49737 163.976 5.59608 163.825 5.68675C163.525 5.87208 163.225 6.05737 162.929 6.24137C162.78 6.33737 162.631 6.44274 162.483 6.54274C162.333 6.64407 162.185 6.74542 162.045 6.85608C161.903 6.96408 161.76 7.07204 161.619 7.18004C161.479 7.28938 161.345 7.40805 161.209 7.52138C160.935 7.74405 160.683 7.99076 160.425 8.22809C159.927 8.72009 159.452 9.22543 159.029 9.76409C158.596 10.2921 158.22 10.856 157.863 11.4187C157.524 11.9947 157.203 12.5708 156.944 13.1668C155.865 15.5321 155.52 18.0601 155.789 20.2894C155.923 21.4068 156.211 22.4468 156.595 23.3721C156.977 24.2988 157.455 25.1094 157.952 25.8107C158.444 26.52 159.025 27.1414 159.624 27.7241C159.779 27.8654 159.932 28.0054 160.085 28.1454L160.328 28.3494L160.579 28.5494C160.743 28.6867 160.919 28.8027 161.092 28.9227L161.352 29.1014L161.62 29.2627C162.333 29.6961 163.076 30.048 163.832 30.3187C164.588 30.592 165.352 30.808 166.116 30.9547C167.647 31.2507 169.175 31.3294 170.656 31.2267C171.396 31.1761 172.127 31.0854 172.84 30.9427C173.197 30.8814 173.549 30.7907 173.899 30.7067C174.075 30.6654 174.247 30.6094 174.417 30.5614C174.591 30.5121 174.763 30.4641 174.931 30.4041C175.1 30.3467 175.268 30.2894 175.436 30.2321C175.603 30.1707 175.767 30.1028 175.932 30.0388L176.177 29.9414L176.419 29.8334C176.58 29.7601 176.74 29.6881 176.899 29.6147C177.055 29.5347 177.211 29.4547 177.365 29.3734L177.596 29.2534L177.821 29.1201C177.971 29.0321 178.12 28.9441 178.269 28.8561C178.413 28.7587 178.557 28.6627 178.7 28.5681C178.845 28.4747 178.983 28.3708 179.119 28.2668C179.256 28.1614 179.393 28.0614 179.527 27.9534C179.784 27.7281 180.052 27.5187 180.288 27.2734C180.783 26.8121 181.209 26.2867 181.604 25.7561C181.696 25.6187 181.788 25.4801 181.879 25.3427L182.013 25.1374L182.136 24.9214C182.215 24.7774 182.295 24.6348 182.375 24.4921C182.443 24.3428 182.512 24.1947 182.58 24.0481L182.68 23.8267L182.765 23.6001C182.821 23.4481 182.876 23.2974 182.931 23.1481C182.976 22.9947 183.017 22.8401 183.06 22.6867L183.123 22.4574L183.168 22.2267C183.197 22.0721 183.227 21.9174 183.256 21.7654C183.275 21.6107 183.292 21.4561 183.308 21.3028L183.332 21.0734L183.34 20.844C183.345 20.692 183.349 20.5414 183.353 20.3907C183.345 20.2401 183.339 20.0907 183.332 19.9414L183.319 19.7187L183.292 19.5001C183.273 19.3548 183.256 19.2094 183.235 19.0654C183.207 18.9241 183.177 18.7827 183.148 18.6427L183.104 18.4334L183.045 18.2281C183.007 18.0934 182.968 17.9587 182.929 17.8241C182.881 17.6947 182.832 17.5641 182.785 17.4361L182.713 17.244L182.631 17.0588C182.573 16.9361 182.517 16.8147 182.461 16.6934L182.272 16.3454C182.152 16.1121 182.003 15.9001 181.863 15.6881C181.291 14.8481 180.581 14.1881 179.853 13.6921C179.12 13.1974 178.355 12.8788 177.632 12.7028C176.907 12.5281 176.225 12.4747 175.624 12.5267L175.403 12.5388L175.188 12.5694C175.049 12.5908 174.913 12.6108 174.781 12.6308C174.524 12.6921 174.283 12.7467 174.064 12.8134C173.853 12.888 173.655 12.9601 173.471 13.0254L173.279 13.116C171.96 13.204 170.855 14.2534 170.712 15.6481C170.552 17.2054 171.653 18.6014 173.172 18.7654C174.692 18.9294 176.053 17.8 176.213 16.2414C176.339 15.02 175.687 13.9014 174.667 13.3934L174.873 13.3734C174.993 13.3707 175.116 13.3694 175.244 13.3668L175.436 13.3627L175.633 13.3747C176.167 13.3894 176.752 13.4988 177.357 13.7028C177.96 13.9081 178.583 14.2294 179.168 14.6881C179.751 15.1481 180.307 15.7348 180.743 16.4614C180.847 16.6454 180.963 16.8268 181.051 17.0254L181.192 17.3214L181.315 17.6308L181.377 17.7867L181.427 17.9481L181.529 18.2734L181.609 18.6094L181.649 18.7774L181.676 18.9507L181.732 19.2987L181.761 19.6534L181.776 19.8321L181.777 20.0134C181.779 20.1334 181.78 20.2547 181.78 20.3761C181.772 20.4974 181.763 20.6201 181.753 20.7427L181.741 20.9267L181.713 21.1107C181.695 21.2334 181.676 21.356 181.657 21.48C181.629 21.6027 181.6 21.7254 181.572 21.8481L181.528 22.0334L181.469 22.2147C181.431 22.3361 181.393 22.4601 181.352 22.5814C181.304 22.7014 181.255 22.8214 181.205 22.9414L181.131 23.1228L181.043 23.2987L180.864 23.652L180.656 23.9948L180.553 24.1681L180.435 24.3347L180.197 24.6694C178.859 26.4161 176.773 27.7654 174.353 28.4854C174.204 28.5374 174.051 28.576 173.896 28.616C173.743 28.656 173.589 28.7028 173.433 28.7361C173.12 28.8041 172.808 28.8788 172.487 28.9281C171.849 29.0454 171.196 29.1134 170.535 29.1494C169.213 29.2214 167.855 29.1321 166.517 28.8601C165.848 28.7254 165.191 28.5308 164.547 28.2948C163.903 28.0588 163.281 27.7574 162.7 27.4001L162.48 27.2668L162.271 27.1201C162.131 27.0227 161.988 26.9281 161.859 26.8174L161.659 26.6588L161.461 26.4894C161.331 26.3694 161.199 26.2494 161.068 26.1294C160.561 25.6321 160.071 25.1094 159.665 24.5214C159.253 23.94 158.86 23.2774 158.545 22.5227C158.229 21.7708 157.993 20.928 157.879 20.016C157.763 19.104 157.771 18.1227 157.92 17.1121C157.948 16.8587 158.011 16.6067 158.059 16.3494C158.111 16.092 158.188 15.8387 158.252 15.5787C158.412 15.0681 158.584 14.5468 158.815 14.0388C159.031 13.5228 159.304 13.0227 159.592 12.5201C159.899 12.0294 160.22 11.5347 160.595 11.0681C160.957 10.5934 161.369 10.1467 161.801 9.7094C162.025 9.50007 162.243 9.27871 162.483 9.08004C162.601 8.98004 162.717 8.87471 162.839 8.77737C162.961 8.68137 163.085 8.58405 163.209 8.48805C163.331 8.38805 163.461 8.2987 163.591 8.20804C163.721 8.11737 163.848 8.0254 163.983 7.93473C164.261 7.75873 164.541 7.58006 164.824 7.4014C164.965 7.3134 165.104 7.21873 165.248 7.13473C165.393 7.05206 165.539 6.96805 165.685 6.88538C165.831 6.80138 165.976 6.7174 166.124 6.63473C166.269 6.55073 166.416 6.46405 166.568 6.39072C166.869 6.23872 167.172 6.08543 167.476 5.93076C167.781 5.78143 168.097 5.65341 168.411 5.51207C168.721 5.36541 169.045 5.25076 169.368 5.13076C169.529 5.06943 169.692 5.00938 169.855 4.94938C170.016 4.88671 170.184 4.84405 170.349 4.79072C170.516 4.73872 170.681 4.6881 170.848 4.6361C171.015 4.5841 171.181 4.53209 171.353 4.49476C171.693 4.41209 172.036 4.32807 172.379 4.24541C172.727 4.18007 173.076 4.11608 173.427 4.05075C173.601 4.01475 173.78 3.9974 173.957 3.9734C174.136 3.9494 174.313 3.92673 174.492 3.90407C175.924 3.7374 177.396 3.67209 178.892 3.7001C179.265 3.7001 179.641 3.72276 180.019 3.73343L180.584 3.75342L181.152 3.78805C181.531 3.81339 181.912 3.83742 182.292 3.86142C182.457 3.87609 182.624 3.89073 182.791 3.90407C182.891 3.97473 183.001 4.04407 183.133 4.10674C183.531 4.3054 184.055 4.44271 184.648 4.58004C185.239 4.70538 185.891 4.94275 186.623 5.15875C188.083 5.59342 189.767 6.2774 191.596 7.10407C193.395 7.9934 195.352 9.06539 197.411 10.1987C200.212 11.7294 202.873 13.1134 205.201 14.1867C206.373 14.7041 207.441 15.188 208.412 15.5467C208.893 15.7334 209.343 15.9068 209.757 16.0668C210.179 16.2054 210.564 16.3334 210.911 16.4481C211.244 16.5987 211.615 16.7667 212.02 16.9494C212.427 17.1307 212.871 17.3094 213.347 17.508C214.301 17.8987 215.384 18.3401 216.581 18.7867C218.977 19.6734 221.843 20.6388 225.041 21.1281C226.217 21.2961 227.373 21.4228 228.497 21.4361C229.057 21.4654 229.609 21.4308 230.149 21.4254C230.419 21.4134 230.685 21.3881 230.948 21.3707C231.212 21.3467 231.472 21.3401 231.729 21.2961C233.575 21.0827 235.188 20.5934 236.54 20.108C236.829 20.0867 237.113 20.0588 237.393 20.0254C236.803 20.2908 236.107 20.5761 235.307 20.8574C235.132 20.9187 234.953 20.9814 234.772 21.0454C234.588 21.1027 234.4 21.1628 234.208 21.2228C233.827 21.3507 233.42 21.4547 233.007 21.5774C232.169 21.7974 231.273 22.0187 230.321 22.1907C229.369 22.3627 228.364 22.5067 227.325 22.5774C226.804 22.612 226.28 22.6254 225.743 22.616C225.473 22.6067 225.201 22.5974 224.928 22.588C224.653 22.576 224.379 22.5494 224.101 22.5321C221.085 22.2907 218.288 21.6494 215.919 21.0267C213.553 20.3841 211.605 19.7494 210.272 19.3014C209.636 18.9961 208.847 18.6427 207.96 18.1827C207.073 17.7254 206.067 17.2147 204.965 16.6654C203.884 16.0667 202.712 15.42 201.465 14.752C200.237 14.044 198.943 13.2974 197.605 12.5267C196.628 11.9441 195.669 11.3841 194.741 10.8481C193.832 10.3174 192.989 9.73473 192.18 9.17073C191.373 8.6054 190.603 8.06009 189.869 7.56409C189.135 7.06809 188.432 6.63071 187.777 6.25205C186.463 5.50405 185.317 5.05209 184.508 4.83076C184.304 4.77743 184.125 4.72542 183.969 4.68942C183.809 4.66142 183.676 4.63872 183.568 4.61872C183.352 4.58138 183.237 4.56142 183.237 4.56142C183.237 4.56142 183.348 4.59739 183.557 4.66539C183.661 4.69873 183.791 4.73872 183.943 4.78805C184.092 4.84272 184.263 4.91609 184.455 4.99209C185.22 5.30809 186.281 5.87208 187.497 6.72008C188.104 7.14808 188.756 7.63341 189.447 8.17607C190.137 8.72274 190.877 9.30672 191.655 9.92138C192.44 10.5321 193.284 11.1681 194.219 11.7507C195.137 12.3147 196.093 12.8947 197.077 13.48C198.42 14.2627 199.752 14.9681 201.007 15.6481C202.289 16.2774 203.504 16.8628 204.629 17.3894C205.777 17.8694 206.829 18.2988 207.759 18.6721C208.687 19.0494 209.511 19.3187 210.177 19.5494C211.457 20.1494 213.344 20.9827 215.696 21.7961C218.051 22.5881 220.885 23.3734 224.02 23.6254C224.308 23.6441 224.595 23.6707 224.88 23.68C225.165 23.6867 225.449 23.6934 225.731 23.7001C226.297 23.7028 226.861 23.6761 227.405 23.6227C228.496 23.5187 229.531 23.3268 230.504 23.0974C231.476 22.8681 232.381 22.5814 233.22 22.2948C233.635 22.1388 234.039 21.9987 234.417 21.8374C234.608 21.7587 234.795 21.6814 234.976 21.6067C235.156 21.5241 235.331 21.4454 235.503 21.3668C236.617 20.8561 237.515 20.3414 238.185 19.9107C238.656 19.8294 239.115 19.7294 239.555 19.6028C240.332 19.3774 241.053 19.0614 241.677 18.6467L241.528 18.3308L241.505 18.2761C240.905 18.6574 240.203 18.9454 239.435 19.144L239.219 19.1921L239.397 19.0534L239.553 18.9321C239.869 18.8054 240.159 18.6894 240.409 18.5894C240.907 18.4001 241.267 18.2641 241.469 18.1881L241.459 18.1627C241.248 18.2134 240.875 18.3028 240.359 18.4254C239.943 18.5401 239.436 18.6801 238.847 18.8427C238.26 19.0094 237.593 19.2 236.857 19.4107C236.681 19.4587 236.501 19.5068 236.319 19.5561C234.275 19.6321 232.047 19.3828 229.728 18.8561Z" fill="url(#paint4_linear_116_3375)"/>
<path d="M216.849 22.3186C216.609 22.2412 216.369 22.1653 216.131 22.0893C215.917 22.0173 215.701 21.9626 215.488 21.8986C215.273 21.8399 215.059 21.7719 214.843 21.7186C214.411 21.6106 213.98 21.492 213.545 21.4053C213.329 21.36 213.112 21.3093 212.895 21.2679C212.677 21.2293 212.46 21.1919 212.243 21.1533L211.916 21.0973L211.589 21.0546C211.371 21.0252 211.153 20.9973 210.936 20.9679C210.715 20.9453 210.495 20.9226 210.275 20.9C210.053 20.876 209.835 20.8546 209.615 20.8373L209.461 20.8239L209.477 20.8306C209.668 20.8986 209.908 20.9399 210.184 20.9772C209.939 20.9506 209.691 20.9306 209.439 20.9199L209.244 20.8053L208.959 20.7813C208.74 20.7666 208.523 20.7533 208.305 20.7399L207.98 20.7186L207.656 20.7079C207.44 20.7012 207.224 20.6892 207.011 20.6879C206.153 20.6732 205.309 20.7106 204.489 20.8053L204.183 20.8453L203.879 20.8906C203.677 20.9266 203.477 20.9639 203.277 21.0013C203.081 21.0493 202.885 21.0959 202.691 21.1439L202.401 21.2253L202.115 21.3132L201.831 21.4039L201.553 21.5079C201.367 21.5772 201.181 21.6426 201.003 21.7266C200.824 21.8079 200.643 21.8813 200.468 21.9666C200.293 22.0546 200.12 22.1426 199.948 22.2306L199.692 22.3706L199.443 22.5132L199.192 22.6572L198.948 22.8093C198.787 22.9119 198.625 23.0146 198.467 23.1159L198.241 23.272L198.024 23.4319L197.811 23.5973L197.607 23.772C197.469 23.8853 197.344 24.0119 197.216 24.1319C196.969 24.3826 196.732 24.6386 196.525 24.9106C196.309 25.1772 196.125 25.4613 195.949 25.7426C195.785 26.0306 195.628 26.3172 195.504 26.6132C195.372 26.9039 195.273 27.2026 195.181 27.4959C195.145 27.6452 195.101 27.7906 195.072 27.9373C195.044 28.0839 195.008 28.2292 194.992 28.3746C194.905 28.9532 194.901 29.516 194.968 30.0386C195.033 30.5613 195.169 31.0439 195.351 31.4759C195.531 31.9079 195.756 32.2866 195.992 32.6199C196.224 32.9573 196.505 33.2572 196.796 33.5412L197.021 33.7479L197.135 33.8453L197.248 33.936L197.485 34.1093L197.605 34.1932L197.731 34.2693C198.064 34.4746 198.42 34.6479 198.789 34.7826C199.159 34.9186 199.535 35.0293 199.919 35.1066C200.685 35.2626 201.464 35.3146 202.221 35.2733C202.6 35.2519 202.975 35.2133 203.34 35.1466C203.524 35.1173 203.703 35.0746 203.883 35.0359L204.147 34.9679L204.409 34.8919C205.796 34.4799 206.991 33.7066 207.757 32.7053L207.895 32.5132L207.963 32.4186L208.021 32.3186L208.14 32.1226L208.243 31.9199L208.293 31.8186L208.336 31.7146L208.42 31.5093L208.487 31.2986L208.521 31.1946L208.545 31.0879L208.595 30.8772L208.627 30.6653L208.643 30.5599L208.651 30.4546L208.665 30.2453L208.664 30.0373V29.9333L208.655 29.8306L208.637 29.6279L208.607 29.4279L208.589 29.3292L208.567 29.2319L208.521 29.0399L208.463 28.8533L208.435 28.7613L208.399 28.672L208.328 28.4946L208.248 28.3253L208.071 28.0013C207.821 27.5853 207.501 27.2492 207.168 26.9852C206.833 26.7226 206.476 26.5386 206.131 26.4199C205.784 26.3039 205.448 26.2413 205.143 26.2319L205.029 26.2253L204.919 26.2279L204.707 26.2319L204.589 26.2439C205.173 26.5346 205.547 27.1759 205.475 27.8759C205.384 28.7693 204.603 29.4159 203.732 29.3226C202.861 29.2279 202.231 28.4279 202.323 27.5346C202.404 26.7359 203.037 26.1346 203.793 26.0839L203.904 26.0333C204.009 25.9946 204.123 25.9532 204.244 25.9106C204.368 25.8732 204.507 25.8426 204.655 25.8053L204.887 25.772L205.011 25.7546L205.137 25.7466C205.481 25.7172 205.872 25.7479 206.288 25.8479C206.703 25.9493 207.14 26.1319 207.56 26.4146C207.979 26.6986 208.385 27.0773 208.713 27.5586C208.793 27.6799 208.879 27.8013 208.947 27.9346L209.056 28.1346L209.152 28.3439L209.2 28.4506L209.241 28.5599L209.324 28.7826L209.391 29.0146L209.424 29.1319L209.449 29.2506L209.499 29.4946L209.531 29.7426L209.548 29.8693L209.555 29.9959L209.567 30.2533L209.559 30.5132L209.555 30.6453L209.541 30.7759L209.511 31.0412L209.461 31.3053L209.435 31.4386L209.399 31.5693L209.324 31.8333L209.229 32.0919L209.181 32.2226L209.124 32.3492L209.005 32.6039L208.868 32.8492L208.799 32.9733L208.721 33.0919L208.564 33.3279C208.337 33.6319 208.093 33.9333 207.809 34.1973C207.675 34.3386 207.521 34.4586 207.373 34.5879L207.14 34.7666L206.9 34.9399L206.653 35.1039L206.397 35.2559L206.268 35.3319L206.136 35.4013L205.868 35.5399L205.593 35.6639L205.455 35.7266L205.313 35.7826L205.029 35.8932L204.74 35.9919L204.447 36.0813L204.149 36.1653C203.948 36.2133 203.748 36.2653 203.541 36.3013C203.133 36.3826 202.715 36.4333 202.291 36.4639C201.441 36.5226 200.567 36.4773 199.689 36.3066C199.251 36.2226 198.813 36.0986 198.38 35.9426C197.947 35.7879 197.521 35.5866 197.112 35.3373L196.959 35.2453L196.809 35.1426L196.515 34.9279L196.372 34.8146L196.233 34.6973L195.969 34.4559C195.625 34.1213 195.292 33.7653 195.011 33.3586C194.725 32.9573 194.452 32.4932 194.232 31.9626C194.012 31.4319 193.848 30.8346 193.771 30.1959C193.616 28.9172 193.815 27.4692 194.433 26.1132C194.581 25.7719 194.765 25.4413 194.959 25.1119C195.164 24.7893 195.379 24.4666 195.628 24.1639C195.869 23.8546 196.141 23.5653 196.427 23.2839C196.575 23.1479 196.719 23.0053 196.877 22.8786L197.111 22.6826L197.356 22.4973L197.607 22.3173L197.863 22.1439C198.032 22.0386 198.204 21.9332 198.376 21.8266L198.636 21.6693L198.904 21.5199L199.175 21.3706L199.448 21.2253C199.636 21.1333 199.824 21.0413 200.012 20.9479C200.201 20.8586 200.399 20.7812 200.593 20.6959C200.788 20.6092 200.991 20.5399 201.192 20.4679L201.496 20.3599L201.805 20.2653L202.117 20.1733L202.433 20.0906C202.645 20.0412 202.859 19.9932 203.072 19.9439C203.287 19.9079 203.504 19.8706 203.72 19.8346L204.048 19.7906L204.376 19.7533C205.253 19.6639 206.144 19.64 207.033 19.6693C207.256 19.6733 207.477 19.6906 207.7 19.7L208.035 19.7173L208.368 19.7439C208.591 19.7612 208.813 19.7786 209.037 19.7973C209.259 19.82 209.481 19.8426 209.705 19.8653C209.928 19.8866 210.151 19.9119 210.373 19.9399C210.596 19.9666 210.82 19.9933 211.043 20.0199C211.268 20.0533 211.493 20.0866 211.72 20.1199L212.059 20.172L212.395 20.2346C212.62 20.2786 212.844 20.3213 213.069 20.3653C213.293 20.4106 213.515 20.4679 213.737 20.5186C214.185 20.6159 214.625 20.7452 215.067 20.8626C215.288 20.9226 215.505 20.9946 215.724 21.0599C215.943 21.1292 216.164 21.1893 216.379 21.2666C216.812 21.412 217.247 21.5546 217.672 21.7159C217.972 21.8226 218.268 21.9386 218.563 22.0533C218.581 22.2413 218.604 22.4279 218.625 22.6159C218.035 22.5026 217.443 22.4012 216.849 22.3186Z" fill="url(#paint5_linear_116_3375)"/>
<path d="M265.198 19.5747C266.416 19.3094 267.666 18.9921 268.927 18.5948C270.187 18.1961 271.468 17.7507 272.758 17.2494C275.343 16.2534 277.98 15.076 280.695 13.908C282.052 13.328 283.443 12.7361 284.834 12.1281C286.227 11.5228 287.634 10.9054 289.054 10.2974C290.471 9.68409 291.907 9.09074 293.354 8.50673C294.804 7.93874 296.263 7.3721 297.743 6.8721C298.479 6.60943 299.226 6.38137 299.97 6.14404C300.34 6.02004 300.718 5.92407 301.091 5.81207C301.467 5.70807 301.838 5.58943 302.217 5.49743C302.97 5.30943 303.72 5.10271 304.479 4.95205C304.859 4.87205 305.235 4.78274 305.615 4.71207C305.995 4.64407 306.375 4.57737 306.754 4.51071C306.943 4.47871 307.134 4.44008 307.323 4.41474L307.894 4.33877C308.275 4.2881 308.654 4.23872 309.034 4.18805C309.419 4.14805 309.803 4.1081 310.189 4.06943C310.573 4.0281 310.956 3.98939 311.338 3.96006L311.608 3.9374L311.579 3.94808C311.183 4.09074 310.672 4.1641 310.068 4.23877C309.455 4.30277 308.777 4.47609 308.019 4.62809C306.502 4.93742 304.738 5.50272 302.822 6.25472C300.927 7.07605 298.924 8.09606 296.863 9.22939C294.056 10.7641 291.471 12.2507 289.232 13.4654C288.107 14.0521 287.084 14.6188 286.158 15.0588C285.698 15.2881 285.27 15.5027 284.874 15.7014C284.471 15.8841 284.103 16.0508 283.774 16.2001C283.428 16.3134 283.046 16.4401 282.627 16.5787C282.208 16.7161 281.747 16.8521 281.256 17.0067C280.275 17.3081 279.165 17.6601 277.95 18.0241C275.519 18.7467 272.672 19.5707 269.576 20.044C268.439 20.2054 267.323 20.3454 266.243 20.3881C265.702 20.4307 265.171 20.4147 264.651 20.4294C264.39 20.4294 264.134 20.4161 263.879 20.4094C263.626 20.3974 263.371 20.4054 263.126 20.3747C262.392 20.328 261.688 20.2374 261.018 20.1241C262.363 20.0494 263.763 19.864 265.198 19.5747ZM255.815 19.2494C255.651 19.1587 255.511 19.076 255.404 19.0134L255.351 18.9827C255.502 19.0427 255.658 19.1054 255.822 19.1721C255.946 19.2214 256.075 19.2747 256.207 19.3267C256.075 19.3041 255.944 19.2774 255.815 19.2494ZM258.458 19.5561C258.274 19.5068 258.094 19.4587 257.919 19.4107C257.182 19.2 256.515 19.0094 255.93 18.8427C255.34 18.6801 254.832 18.5401 254.418 18.4254C253.902 18.3028 253.528 18.2134 253.318 18.1627L253.307 18.1881C253.51 18.2641 253.87 18.4001 254.367 18.5894C254.618 18.6894 254.907 18.8054 255.223 18.9321L255.379 19.0534L255.558 19.1921L255.342 19.144C254.574 18.9454 253.87 18.6574 253.271 18.2761L253.248 18.3308L253.099 18.6467C253.722 19.0614 254.443 19.3774 255.22 19.6028C255.662 19.7294 256.12 19.8294 256.591 19.9107C257.262 20.3414 258.159 20.8561 259.272 21.3668C259.444 21.4454 259.62 21.5241 259.8 21.6067C259.982 21.6814 260.168 21.7587 260.358 21.8374C260.736 21.9987 261.14 22.1388 261.556 22.2948C262.395 22.5814 263.3 22.8681 264.272 23.0974C265.244 23.3268 266.279 23.5187 267.371 23.6227C267.915 23.6761 268.479 23.7028 269.046 23.7001C269.327 23.6934 269.61 23.6867 269.896 23.68C270.182 23.6707 270.468 23.6441 270.756 23.6254C273.891 23.3734 276.726 22.5881 279.081 21.7961C281.433 20.9827 283.318 20.1494 284.598 19.5494C285.264 19.3187 286.09 19.0494 287.018 18.6721C287.946 18.2988 288.998 17.8694 290.147 17.3894C291.271 16.8628 292.487 16.2774 293.77 15.6481C295.024 14.9681 296.356 14.2627 297.699 13.48C298.683 12.8947 299.638 12.3147 300.558 11.7507C301.492 11.1681 302.337 10.5321 303.122 9.92138C303.899 9.30672 304.638 8.72274 305.33 8.17607C306.019 7.63341 306.671 7.14808 307.278 6.72008C308.495 5.87208 309.555 5.30809 310.322 4.99209C310.514 4.91609 310.684 4.84272 310.834 4.78805C310.986 4.73872 311.115 4.69873 311.219 4.66539C311.429 4.59739 311.538 4.56142 311.538 4.56142C311.538 4.56142 311.424 4.58138 311.208 4.61872C311.1 4.63872 310.966 4.66142 310.807 4.68942C310.65 4.72542 310.471 4.77743 310.268 4.83076C309.459 5.05209 308.314 5.50405 306.998 6.25205C306.344 6.63071 305.64 7.06809 304.907 7.56409C304.174 8.06009 303.403 8.6054 302.595 9.17073C301.786 9.73473 300.943 10.3174 300.035 10.8481C299.107 11.3841 298.148 11.9441 297.171 12.5267C295.832 13.2974 294.539 14.044 293.31 14.752C292.064 15.42 290.893 16.0667 289.811 16.6654C288.71 17.2147 287.703 17.7254 286.815 18.1827C285.93 18.6427 285.139 18.9961 284.504 19.3014C283.17 19.7494 281.223 20.3841 278.856 21.0267C276.488 21.6494 273.691 22.2907 270.675 22.5321C270.398 22.5494 270.122 22.576 269.848 22.588C269.575 22.5974 269.303 22.6067 269.032 22.616C268.496 22.6254 267.971 22.612 267.451 22.5774C266.411 22.5067 265.407 22.3627 264.455 22.1907C263.502 22.0187 262.607 21.7974 261.77 21.5774C261.355 21.4547 260.95 21.3507 260.568 21.2228C260.376 21.1628 260.188 21.1027 260.004 21.0454C259.822 20.9814 259.643 20.9187 259.47 20.8574C258.67 20.5761 257.974 20.2908 257.382 20.0254C257.663 20.0588 257.947 20.0867 258.236 20.108C259.588 20.5934 261.202 21.0827 263.047 21.2961C263.303 21.3401 263.564 21.3467 263.827 21.3707C264.091 21.3881 264.358 21.4134 264.627 21.4254C265.166 21.4308 265.719 21.4654 266.279 21.4361C267.403 21.4228 268.559 21.2961 269.735 21.1281C272.932 20.6388 275.799 19.6734 278.194 18.7867C279.392 18.3401 280.475 17.8987 281.428 17.508C281.904 17.3094 282.35 17.1307 282.756 16.9494C283.162 16.7667 283.532 16.5987 283.864 16.4481C284.211 16.3334 284.596 16.2054 285.018 16.0668C285.432 15.9068 285.883 15.7334 286.364 15.5467C287.335 15.188 288.402 14.7041 289.575 14.1867C291.903 13.1134 294.564 11.7294 297.364 10.1987C299.424 9.06539 301.382 7.9934 303.181 7.10407C305.01 6.2774 306.692 5.59342 308.154 5.15875C308.886 4.94275 309.538 4.70538 310.128 4.58004C310.72 4.44271 311.246 4.3054 311.642 4.10674C311.774 4.04407 311.885 3.97473 311.986 3.90407C312.153 3.89073 312.319 3.87609 312.484 3.86142C312.864 3.83742 313.246 3.81339 313.624 3.78805L314.192 3.75342L314.758 3.73343C315.134 3.72276 315.511 3.7001 315.884 3.7001C317.38 3.67209 318.852 3.7374 320.284 3.90407C320.463 3.92673 320.641 3.9494 320.819 3.9734C320.997 3.9974 321.175 4.01475 321.35 4.05075C321.701 4.11608 322.05 4.18007 322.398 4.24541C322.74 4.32807 323.082 4.41209 323.423 4.49476C323.594 4.53209 323.76 4.5841 323.927 4.6361C324.094 4.6881 324.26 4.73872 324.427 4.79072C324.592 4.84405 324.761 4.88671 324.922 4.94938C325.085 5.00938 325.247 5.06943 325.409 5.13076C325.731 5.25076 326.054 5.36541 326.366 5.51207C326.678 5.65341 326.994 5.78143 327.3 5.93076C327.604 6.08543 327.907 6.23872 328.209 6.39072C328.359 6.46405 328.506 6.55073 328.653 6.63473C328.799 6.7174 328.944 6.80138 329.091 6.88538C329.236 6.96805 329.382 7.05206 329.527 7.13473C329.671 7.21873 329.811 7.3134 329.953 7.4014C330.235 7.58006 330.515 7.75873 330.794 7.93473C330.928 8.0254 331.054 8.11737 331.186 8.20804C331.315 8.2987 331.444 8.38805 331.567 8.48805C331.691 8.58405 331.814 8.68137 331.938 8.77737C332.059 8.87471 332.175 8.98004 332.294 9.08004C332.534 9.27871 332.751 9.50007 332.975 9.7094C333.407 10.1467 333.818 10.5934 334.182 11.0681C334.556 11.5347 334.878 12.0294 335.184 12.5201C335.471 13.0227 335.746 13.5228 335.962 14.0388C336.192 14.5468 336.364 15.0681 336.524 15.5787C336.588 15.8387 336.664 16.092 336.718 16.3494C336.766 16.6067 336.827 16.8587 336.856 17.1121C337.006 18.1227 337.012 19.104 336.898 20.016C336.783 20.928 336.546 21.7708 336.23 22.5227C335.915 23.2774 335.523 23.94 335.11 24.5214C334.706 25.1094 334.215 25.6321 333.709 26.1294C333.578 26.2494 333.446 26.3694 333.315 26.4894L333.117 26.6588L332.918 26.8174C332.788 26.9281 332.644 27.0227 332.504 27.1201L332.296 27.2668L332.076 27.4001C331.494 27.7574 330.874 28.0588 330.23 28.2948C329.586 28.5308 328.928 28.7254 328.259 28.8601C326.922 29.1321 325.563 29.2214 324.242 29.1494C323.58 29.1134 322.926 29.0454 322.289 28.9281C321.969 28.8788 321.655 28.8041 321.342 28.7361C321.186 28.7028 321.034 28.656 320.881 28.616C320.726 28.576 320.572 28.5374 320.423 28.4854C318.003 27.7654 315.918 26.4161 314.579 24.6694L314.342 24.3347L314.223 24.1681L314.119 23.9948L313.912 23.652L313.734 23.2987L313.645 23.1228L313.571 22.9414C313.522 22.8214 313.472 22.7014 313.423 22.5814C313.382 22.4601 313.346 22.3361 313.306 22.2147L313.248 22.0334L313.204 21.8481C313.175 21.7254 313.147 21.6027 313.118 21.48C313.1 21.356 313.082 21.2334 313.063 21.1107L313.035 20.9267L313.022 20.7427C313.014 20.6201 313.004 20.4974 312.996 20.3761C312.996 20.2547 312.998 20.1334 312.998 20.0134L312.999 19.8321L313.015 19.6534L313.045 19.2987L313.099 18.9507L313.127 18.7774L313.167 18.6094L313.247 18.2734L313.348 17.9481L313.399 17.7867L313.46 17.6308L313.583 17.3214L313.724 17.0254C313.814 16.8268 313.928 16.6454 314.034 16.4614C314.47 15.7348 315.026 15.1481 315.608 14.6881C316.193 14.2294 316.815 13.9081 317.419 13.7028C318.025 13.4988 318.61 13.3894 319.143 13.3747L319.34 13.3627L319.532 13.3668C319.659 13.3694 319.783 13.3707 319.903 13.3734L320.108 13.3934C319.09 13.9014 318.438 15.02 318.563 16.2414C318.723 17.8 320.084 18.9294 321.603 18.7654C323.123 18.6014 324.224 17.2054 324.064 15.6481C323.922 14.2534 322.816 13.204 321.496 13.116L321.304 13.0254C321.12 12.9601 320.923 12.888 320.712 12.8134C320.494 12.7467 320.252 12.6921 319.995 12.6308C319.862 12.6108 319.727 12.5908 319.587 12.5694L319.374 12.5388L319.153 12.5267C318.551 12.4747 317.868 12.5281 317.145 12.7028C316.421 12.8788 315.656 13.1974 314.923 13.6921C314.194 14.1881 313.486 14.8481 312.912 15.6881C312.774 15.9001 312.624 16.1121 312.503 16.3454L312.314 16.6934C312.259 16.8147 312.203 16.9361 312.146 17.0588L312.063 17.244L311.991 17.4361C311.943 17.5641 311.895 17.6947 311.847 17.8241C311.809 17.9587 311.77 18.0934 311.73 18.2281L311.672 18.4334L311.628 18.6427C311.599 18.7827 311.57 18.9241 311.542 19.0654C311.521 19.2094 311.503 19.3548 311.484 19.5001L311.456 19.7187L311.444 19.9414C311.438 20.0907 311.43 20.2401 311.423 20.3907C311.427 20.5414 311.431 20.692 311.435 20.844L311.443 21.0734L311.467 21.3028C311.484 21.4561 311.502 21.6107 311.519 21.7654C311.549 21.9174 311.578 22.0721 311.607 22.2267L311.654 22.4574L311.717 22.6867C311.759 22.8401 311.799 22.9947 311.846 23.1481C311.9 23.2974 311.955 23.4481 312.01 23.6001L312.096 23.8267L312.196 24.0481C312.264 24.1947 312.332 24.3428 312.402 24.4921C312.482 24.6348 312.56 24.7774 312.64 24.9214L312.762 25.1374L312.898 25.3427C312.988 25.4801 313.08 25.6187 313.171 25.7561C313.567 26.2867 313.993 26.8121 314.489 27.2734C314.725 27.5187 314.991 27.7281 315.248 27.9534C315.382 28.0614 315.52 28.1614 315.656 28.2668C315.792 28.3708 315.931 28.4747 316.076 28.5681C316.219 28.6627 316.363 28.7587 316.507 28.8561C316.655 28.9441 316.804 29.0321 316.954 29.1201L317.179 29.2534L317.411 29.3734C317.566 29.4547 317.722 29.5347 317.878 29.6147C318.036 29.6881 318.196 29.7601 318.358 29.8334L318.599 29.9414L318.845 30.0388C319.008 30.1028 319.174 30.1707 319.34 30.2321C319.508 30.2894 319.676 30.3467 319.846 30.4041C320.014 30.4641 320.186 30.5121 320.358 30.5614C320.53 30.6094 320.702 30.6654 320.876 30.7067C321.227 30.7907 321.578 30.8814 321.936 30.9427C322.65 31.0854 323.38 31.1761 324.12 31.2267C325.602 31.3294 327.128 31.2507 328.659 30.9547C329.424 30.808 330.188 30.592 330.943 30.3187C331.699 30.048 332.443 29.6961 333.155 29.2627L333.423 29.1014L333.684 28.9227C333.858 28.8027 334.034 28.6867 334.198 28.5494L334.448 28.3494L334.69 28.1454C334.843 28.0054 334.998 27.8654 335.153 27.7241C335.75 27.1414 336.331 26.52 336.823 25.8107C337.322 25.1094 337.799 24.2988 338.182 23.3721C338.566 22.4468 338.852 21.4068 338.987 20.2894C339.256 18.0601 338.911 15.5321 337.831 13.1668C337.574 12.5708 337.253 11.9947 336.914 11.4187C336.557 10.856 336.181 10.2921 335.747 9.76409C335.325 9.22543 334.85 8.72009 334.351 8.22809C334.094 7.99076 333.842 7.74405 333.567 7.52138C333.431 7.40805 333.298 7.28938 333.158 7.18004C333.016 7.07204 332.874 6.96408 332.731 6.85608C332.591 6.74542 332.443 6.64407 332.294 6.54274C332.146 6.44274 331.997 6.33737 331.847 6.24137C331.55 6.05737 331.251 5.87208 330.951 5.68675C330.8 5.59608 330.652 5.49737 330.496 5.41071C330.34 5.32404 330.186 5.23741 330.028 5.15075C329.871 5.06408 329.715 4.97609 329.558 4.88942C329.4 4.80142 329.243 4.71206 329.079 4.63473C328.752 4.47606 328.426 4.31475 328.096 4.15342C327.764 3.99742 327.421 3.86141 327.081 3.71474C326.743 3.56141 326.388 3.44141 326.036 3.31474C325.859 3.25208 325.683 3.18942 325.506 3.12542C325.33 3.06142 325.146 3.01609 324.966 2.96142C324.784 2.90809 324.603 2.85473 324.422 2.8014C324.241 2.74673 324.058 2.69342 323.871 2.65608C323.502 2.57075 323.13 2.48673 322.756 2.4014C322.38 2.3374 322.003 2.27341 321.624 2.20941C321.435 2.1734 321.244 2.1561 321.054 2.13343C320.862 2.11076 320.671 2.08943 320.481 2.06676C318.949 1.9121 317.396 1.86938 315.845 1.92138C315.455 1.92938 315.068 1.95874 314.679 1.97607L314.096 2.00543L313.514 2.05075C313.126 2.08141 312.737 2.11337 312.347 2.14404C311.959 2.18404 311.571 2.22406 311.182 2.26273C310.792 2.30006 310.403 2.34539 310.015 2.39339C309.626 2.44006 309.237 2.48676 308.847 2.53343C308.454 2.59209 308.06 2.65074 307.666 2.70941L307.075 2.79873C306.878 2.82806 306.683 2.87204 306.487 2.90804C306.095 2.98404 305.703 3.0601 305.311 3.1361C304.921 3.2161 304.534 3.31476 304.145 3.40277C303.363 3.57343 302.596 3.79877 301.824 4.00543C301.439 4.10677 301.061 4.23474 300.678 4.34808C300.298 4.46941 299.911 4.57471 299.535 4.70804C298.78 4.96404 298.023 5.21209 297.278 5.49209C295.781 6.02942 294.314 6.62939 292.858 7.23206C291.407 7.84806 289.971 8.47475 288.559 9.11741C287.144 9.75608 285.75 10.4014 284.368 11.0347C282.987 11.6707 281.627 12.2841 280.271 12.8961C277.567 14.1267 274.97 15.3521 272.435 16.3934C271.168 16.9187 269.915 17.3867 268.684 17.808C267.452 18.2267 266.235 18.5668 265.047 18.8561C262.73 19.3828 260.502 19.6321 258.458 19.5561Z" fill="url(#paint6_linear_116_3375)"/>
<path d="M277.927 22.3186C278.166 22.2412 278.406 22.1653 278.646 22.0893C278.859 22.0173 279.075 21.9626 279.288 21.8986C279.503 21.8399 279.716 21.7719 279.934 21.7186C280.366 21.6106 280.795 21.492 281.23 21.4053C281.447 21.36 281.664 21.3093 281.882 21.2679C282.099 21.2293 282.316 21.1919 282.534 21.1533L282.859 21.0973L283.187 21.0546C283.406 21.0252 283.623 20.9973 283.84 20.9679C284.06 20.9453 284.282 20.9226 284.502 20.9C284.722 20.876 284.942 20.8546 285.162 20.8373L285.315 20.8239L285.299 20.8306C285.108 20.8986 284.868 20.9399 284.592 20.9772C284.838 20.9506 285.086 20.9306 285.338 20.9199L285.532 20.8053L285.818 20.7813C286.035 20.7666 286.254 20.7533 286.47 20.7399L286.796 20.7186L287.12 20.7079C287.336 20.7012 287.552 20.6892 287.766 20.6879C288.623 20.6732 289.467 20.7106 290.287 20.8053L290.594 20.8453L290.898 20.8906C291.099 20.9266 291.299 20.9639 291.498 21.0013C291.695 21.0493 291.891 21.0959 292.086 21.1439L292.375 21.2253L292.662 21.3132L292.944 21.4039L293.223 21.5079C293.408 21.5772 293.594 21.6426 293.772 21.7266C293.951 21.8079 294.132 21.8813 294.308 21.9666C294.482 22.0546 294.656 22.1426 294.828 22.2306L295.083 22.3706L295.334 22.5132L295.584 22.6572L295.828 22.8093C295.99 22.9119 296.15 23.0146 296.31 23.1159L296.534 23.272L296.752 23.4319L296.966 23.5973L297.17 23.772C297.307 23.8853 297.431 24.0119 297.56 24.1319C297.807 24.3826 298.043 24.6386 298.251 24.9106C298.467 25.1772 298.651 25.4613 298.826 25.7426C298.991 26.0306 299.148 26.3172 299.271 26.6132C299.404 26.9039 299.503 27.2026 299.594 27.4959C299.631 27.6452 299.675 27.7906 299.704 27.9373C299.732 28.0839 299.768 28.2292 299.784 28.3746C299.87 28.9532 299.874 29.516 299.808 30.0386C299.743 30.5613 299.607 31.0439 299.426 31.4759C299.246 31.9079 299.02 32.2866 298.784 32.6199C298.552 32.9573 298.271 33.2572 297.98 33.5412L297.755 33.7479L297.642 33.8453L297.527 33.936L297.291 34.1093L297.171 34.1932L297.046 34.2693C296.711 34.4746 296.356 34.6479 295.987 34.7826C295.618 34.9186 295.242 35.0293 294.858 35.1066C294.091 35.2626 293.312 35.3146 292.555 35.2733C292.176 35.2519 291.802 35.2133 291.436 35.1466C291.252 35.1173 291.074 35.0746 290.894 35.0359L290.628 34.9679L290.367 34.8919C288.98 34.4799 287.786 33.7066 287.018 32.7053L286.882 32.5132L286.814 32.4186L286.755 32.3186L286.636 32.1226L286.534 31.9199L286.483 31.8186L286.44 31.7146L286.356 31.5093L286.288 31.2986L286.255 31.1946L286.23 31.0879L286.182 30.8772L286.148 30.6653L286.134 30.5599L286.126 30.4546L286.11 30.2453L286.111 30.0373L286.112 29.9333L286.122 29.8306L286.138 29.6279L286.17 29.4279L286.186 29.3292L286.21 29.2319L286.254 29.0399L286.312 28.8533L286.342 28.7613L286.378 28.672L286.447 28.4946L286.528 28.3253L286.706 28.0013C286.955 27.5853 287.274 27.2492 287.608 26.9852C287.943 26.7226 288.3 26.5386 288.646 26.4199C288.992 26.3039 289.328 26.2413 289.634 26.2319L289.747 26.2253L289.858 26.2279L290.068 26.2319L290.187 26.2439C289.603 26.5346 289.23 27.1759 289.302 27.8759C289.392 28.7693 290.172 29.4159 291.043 29.3226C291.915 29.2279 292.546 28.4279 292.454 27.5346C292.372 26.7359 291.738 26.1346 290.982 26.0839L290.872 26.0333C290.767 25.9946 290.654 25.9532 290.532 25.9106C290.407 25.8732 290.27 25.8426 290.122 25.8053L289.888 25.772L289.766 25.7546L289.638 25.7466C289.294 25.7172 288.903 25.7479 288.488 25.8479C288.074 25.9493 287.635 26.1319 287.215 26.4146C286.798 26.6986 286.391 27.0773 286.063 27.5586C285.983 27.6799 285.898 27.8013 285.828 27.9346L285.72 28.1346L285.624 28.3439L285.576 28.4506L285.535 28.5599L285.452 28.7826L285.386 29.0146L285.352 29.1319L285.327 29.2506L285.276 29.4946L285.244 29.7426L285.228 29.8693L285.222 29.9959L285.21 30.2533L285.216 30.5132L285.22 30.6453L285.235 30.7759L285.264 31.0412L285.315 31.3053L285.342 31.4386L285.378 31.5693L285.451 31.8333L285.546 32.0919L285.595 32.2226L285.652 32.3492L285.771 32.6039L285.907 32.8492L285.976 32.9733L286.054 33.0919L286.212 33.3279C286.438 33.6319 286.682 33.9333 286.966 34.1973C287.102 34.3386 287.254 34.4586 287.402 34.5879L287.636 34.7666L287.876 34.9399L288.123 35.1039L288.379 35.2559L288.508 35.3319L288.64 35.4013L288.908 35.5399L289.183 35.6639L289.322 35.7266L289.463 35.7826L289.747 35.8932L290.036 35.9919L290.33 36.0813L290.627 36.1653C290.828 36.2133 291.028 36.2653 291.234 36.3013C291.643 36.3826 292.062 36.4333 292.486 36.4639C293.335 36.5226 294.21 36.4773 295.087 36.3066C295.526 36.2226 295.963 36.0986 296.396 35.9426C296.83 35.7879 297.255 35.5866 297.664 35.3373L297.818 35.2453L297.967 35.1426L298.26 34.9279L298.404 34.8146L298.543 34.6973L298.807 34.4559C299.15 34.1213 299.483 33.7653 299.766 33.3586C300.051 32.9573 300.324 32.4932 300.544 31.9626C300.764 31.4319 300.928 30.8346 301.004 30.1959C301.16 28.9172 300.962 27.4692 300.343 26.1132C300.195 25.7719 300.011 25.4413 299.818 25.1119C299.612 24.7893 299.396 24.4666 299.148 24.1639C298.906 23.8546 298.635 23.5653 298.348 23.2839C298.2 23.1479 298.056 23.0053 297.899 22.8786L297.664 22.6826L297.42 22.4973L297.17 22.3173L296.914 22.1439C296.743 22.0386 296.572 21.9332 296.4 21.8266L296.139 21.6693L295.871 21.5199L295.602 21.3706L295.327 21.2253C295.14 21.1333 294.952 21.0413 294.764 20.9479C294.574 20.8586 294.376 20.7812 294.182 20.6959C293.988 20.6092 293.786 20.5399 293.583 20.4679L293.28 20.3599L292.97 20.2653L292.659 20.1733L292.343 20.0906C292.131 20.0412 291.918 19.9932 291.704 19.9439C291.488 19.9079 291.272 19.8706 291.055 19.8346L290.728 19.7906L290.399 19.7533C289.522 19.6639 288.632 19.64 287.743 19.6693C287.52 19.6733 287.299 19.6906 287.076 19.7L286.742 19.7173L286.408 19.7439C286.186 19.7612 285.963 19.7786 285.739 19.7973C285.516 19.82 285.294 19.8426 285.071 19.8653C284.847 19.8866 284.624 19.9119 284.403 19.9399C284.179 19.9666 283.956 19.9933 283.734 20.0199C283.508 20.0533 283.282 20.0866 283.056 20.1199L282.718 20.172L282.38 20.2346C282.156 20.2786 281.932 20.3213 281.707 20.3653C281.483 20.4106 281.262 20.4679 281.038 20.5186C280.591 20.6159 280.151 20.7452 279.71 20.8626C279.487 20.9226 279.271 20.9946 279.052 21.0599C278.834 21.1292 278.612 21.1893 278.398 21.2666C277.964 21.412 277.53 21.5546 277.104 21.7159C276.803 21.8226 276.508 21.9386 276.212 22.0533C276.194 22.2413 276.172 22.4279 276.151 22.6159C276.74 22.5026 277.332 22.4012 277.927 22.3186Z" fill="url(#paint7_linear_116_3375)"/>
<path d="M0 1.31055H491.124" stroke="url(#paint8_linear_116_3375)" stroke-width="1.63097" stroke-miterlimit="10"/>
<defs>
<linearGradient id="paint0_linear_116_3375" x1="123.971" y1="50.6587" x2="453.304" y2="-13.0833" gradientUnits="userSpaceOnUse">
<stop stop-color="#F0D8A8"/>
<stop offset="0.150732" stop-color="#F0D8A8"/>
<stop offset="0.573161" stop-color="#CD9B74"/>
<stop offset="0.612903" stop-color="#CD9B74"/>
<stop offset="0.613741" stop-color="#CD9B74"/>
<stop offset="0.72043" stop-color="#976A51"/>
<stop offset="0.721351" stop-color="#976A51"/>
<stop offset="0.83871" stop-color="#CD9B74"/>
<stop offset="0.999958" stop-color="#F0D8A8"/>
<stop offset="1" stop-color="#F0D8A8"/>
</linearGradient>
<linearGradient id="paint1_linear_116_3375" x1="124.496" y1="53.3705" x2="453.828" y2="-10.3717" gradientUnits="userSpaceOnUse">
<stop stop-color="#F0D8A8"/>
<stop offset="0.150732" stop-color="#F0D8A8"/>
<stop offset="0.573161" stop-color="#CD9B74"/>
<stop offset="0.612903" stop-color="#CD9B74"/>
<stop offset="0.613741" stop-color="#CD9B74"/>
<stop offset="0.72043" stop-color="#976A51"/>
<stop offset="0.721351" stop-color="#976A51"/>
<stop offset="0.83871" stop-color="#CD9B74"/>
<stop offset="0.999958" stop-color="#F0D8A8"/>
<stop offset="1" stop-color="#F0D8A8"/>
</linearGradient>
<linearGradient id="paint2_linear_116_3375" x1="123.301" y1="47.2013" x2="452.636" y2="-16.5408" gradientUnits="userSpaceOnUse">
<stop stop-color="#F0D8A8"/>
<stop offset="0.150732" stop-color="#F0D8A8"/>
<stop offset="0.573161" stop-color="#CD9B74"/>
<stop offset="0.612903" stop-color="#CD9B74"/>
<stop offset="0.613741" stop-color="#CD9B74"/>
<stop offset="0.72043" stop-color="#976A51"/>
<stop offset="0.721351" stop-color="#976A51"/>
<stop offset="0.83871" stop-color="#CD9B74"/>
<stop offset="0.999958" stop-color="#F0D8A8"/>
<stop offset="1" stop-color="#F0D8A8"/>
</linearGradient>
<linearGradient id="paint3_linear_116_3375" x1="121.434" y1="37.5518" x2="450.769" y2="-26.1908" gradientUnits="userSpaceOnUse">
<stop stop-color="#F0D8A8"/>
<stop offset="0.150732" stop-color="#F0D8A8"/>
<stop offset="0.573161" stop-color="#CD9B74"/>
<stop offset="0.612903" stop-color="#CD9B74"/>
<stop offset="0.613741" stop-color="#CD9B74"/>
<stop offset="0.72043" stop-color="#976A51"/>
<stop offset="0.721351" stop-color="#976A51"/>
<stop offset="0.83871" stop-color="#CD9B74"/>
<stop offset="0.999958" stop-color="#F0D8A8"/>
<stop offset="1" stop-color="#F0D8A8"/>
</linearGradient>
<linearGradient id="paint4_linear_116_3375" x1="119.692" y1="28.5481" x2="449.026" y2="-35.1941" gradientUnits="userSpaceOnUse">
<stop stop-color="#F0D8A8"/>
<stop offset="0.150732" stop-color="#F0D8A8"/>
<stop offset="0.573161" stop-color="#CD9B74"/>
<stop offset="0.612903" stop-color="#CD9B74"/>
<stop offset="0.613741" stop-color="#CD9B74"/>
<stop offset="0.72043" stop-color="#976A51"/>
<stop offset="0.721351" stop-color="#976A51"/>
<stop offset="0.83871" stop-color="#CD9B74"/>
<stop offset="0.999958" stop-color="#F0D8A8"/>
<stop offset="1" stop-color="#F0D8A8"/>
</linearGradient>
<linearGradient id="paint5_linear_116_3375" x1="122.632" y1="43.7372" x2="451.965" y2="-20.0051" gradientUnits="userSpaceOnUse">
<stop stop-color="#F0D8A8"/>
<stop offset="0.150732" stop-color="#F0D8A8"/>
<stop offset="0.573161" stop-color="#CD9B74"/>
<stop offset="0.612903" stop-color="#CD9B74"/>
<stop offset="0.613741" stop-color="#CD9B74"/>
<stop offset="0.72043" stop-color="#976A51"/>
<stop offset="0.721351" stop-color="#976A51"/>
<stop offset="0.83871" stop-color="#CD9B74"/>
<stop offset="0.999958" stop-color="#F0D8A8"/>
<stop offset="1" stop-color="#F0D8A8"/>
</linearGradient>
<linearGradient id="paint6_linear_116_3375" x1="124.67" y1="54.268" x2="454.003" y2="-9.47413" gradientUnits="userSpaceOnUse">
<stop stop-color="#F0D8A8"/>
<stop offset="0.150732" stop-color="#F0D8A8"/>
<stop offset="0.573161" stop-color="#CD9B74"/>
<stop offset="0.612903" stop-color="#CD9B74"/>
<stop offset="0.613741" stop-color="#CD9B74"/>
<stop offset="0.72043" stop-color="#976A51"/>
<stop offset="0.721351" stop-color="#976A51"/>
<stop offset="0.83871" stop-color="#CD9B74"/>
<stop offset="0.999958" stop-color="#F0D8A8"/>
<stop offset="1" stop-color="#F0D8A8"/>
</linearGradient>
<linearGradient id="paint7_linear_116_3375" x1="125.744" y1="59.8172" x2="455.077" y2="-3.92512" gradientUnits="userSpaceOnUse">
<stop stop-color="#F0D8A8"/>
<stop offset="0.150732" stop-color="#F0D8A8"/>
<stop offset="0.573161" stop-color="#CD9B74"/>
<stop offset="0.612903" stop-color="#CD9B74"/>
<stop offset="0.613741" stop-color="#CD9B74"/>
<stop offset="0.72043" stop-color="#976A51"/>
<stop offset="0.721351" stop-color="#976A51"/>
<stop offset="0.83871" stop-color="#CD9B74"/>
<stop offset="0.999958" stop-color="#F0D8A8"/>
<stop offset="1" stop-color="#F0D8A8"/>
</linearGradient>
<linearGradient id="paint8_linear_116_3375" x1="-nan" y1="-nan" x2="-nan" y2="-nan" gradientUnits="userSpaceOnUse">
<stop stop-color="#F0D8A8"/>
<stop offset="0.150732" stop-color="#F0D8A8"/>
<stop offset="0.573161" stop-color="#CD9B74"/>
<stop offset="0.612903" stop-color="#CD9B74"/>
<stop offset="0.613741" stop-color="#CD9B74"/>
<stop offset="0.72043" stop-color="#976A51"/>
<stop offset="0.721351" stop-color="#976A51"/>
<stop offset="0.83871" stop-color="#CD9B74"/>
<stop offset="0.999958" stop-color="#F0D8A8"/>
<stop offset="1" stop-color="#F0D8A8"/>
</linearGradient>
</defs>
</svg>
