<svg width="548" height="439" viewBox="0 0 548 439" fill="none" xmlns="http://www.w3.org/2000/svg">
<path d="M272.746 325.97C259.258 325.97 246.278 324.834 245.818 322.508C245.468 320.737 245.055 318.981 244.582 317.242C244.618 317.254 244.656 317.26 244.695 317.26C244.728 317.26 244.761 317.256 244.794 317.247C244.992 317.192 245.109 316.987 245.054 316.79C242.032 305.812 236.583 295.558 229.004 286.832L226.079 283.463L226.075 283.458C224.903 282.212 223.78 280.921 222.706 279.587L222.629 279.491C213.49 268.094 208.02 253.631 208.02 237.885C208.02 219.504 215.469 202.866 227.514 190.821C239.56 178.775 256.198 171.326 274.578 171.326C292.959 171.326 309.597 178.775 321.642 190.821C333.688 202.866 341.137 219.504 341.137 237.885C341.137 253.631 335.667 268.094 326.527 279.491L326.502 279.522C325.413 280.879 324.272 282.192 323.082 283.458L323.076 283.465L320.152 286.832C312.624 295.501 307.196 305.677 304.162 316.573C304.118 316.731 304.183 316.894 304.312 316.981C303.851 318.651 303.446 320.338 303.099 322.039C302.569 324.637 287.359 325.97 272.746 325.97ZM276.783 203.937L277.806 209.815L282.455 215.764L286.025 217.437L276.783 203.937ZM297.348 203.064L298.37 208.942L302.676 215.686L306.59 216.565L297.348 203.064Z" fill="#FDF8E6"/>
<path d="M308.897 388.667C308.897 393.269 294.08 397 275.803 397C257.525 397 242.708 393.269 242.708 388.667C242.708 384.065 257.525 380.335 275.803 380.335C294.08 380.335 308.897 384.065 308.897 388.667Z" fill="#F9F2F0"/>
<path d="M314.626 310.032L321.189 321.398" stroke="#FEF2C8" stroke-width="7.39" stroke-miterlimit="10" stroke-linecap="round"/>
<path d="M339.56 278.047L355.401 287.193" stroke="#FEF2C8" stroke-width="7.39" stroke-miterlimit="10" stroke-linecap="round"/>
<path d="M350.024 240.457H367.92" stroke="#FEF2C8" stroke-width="7.39" stroke-miterlimit="10" stroke-linecap="round"/>
<path d="M341.39 201.821L355.4 193.733" stroke="#FEF2C8" stroke-width="7.39" stroke-miterlimit="10" stroke-linecap="round"/>
<path d="M313.878 172.194L321.194 159.521" stroke="#FEF2C8" stroke-width="7.39" stroke-miterlimit="10" stroke-linecap="round"/>
<path d="M274.457 162.874V147" stroke="#FEF2C8" stroke-width="7.39" stroke-miterlimit="10" stroke-linecap="round"/>
<path d="M235.735 173.392L227.727 159.52" stroke="#FEF2C8" stroke-width="7.39" stroke-miterlimit="10" stroke-linecap="round"/>
<path d="M209.355 202.875L193.513 193.729" stroke="#FEF2C8" stroke-width="7.39" stroke-miterlimit="10" stroke-linecap="round"/>
<path d="M198.47 240.457H181" stroke="#FEF2C8" stroke-width="7.39" stroke-miterlimit="10" stroke-linecap="round"/>
<path d="M209.355 278.047L193.513 287.193" stroke="#FEF2C8" stroke-width="7.39" stroke-miterlimit="10" stroke-linecap="round"/>
<path d="M233.839 310.812L227.727 321.398" stroke="#FEF2C8" stroke-width="7.39" stroke-miterlimit="10" stroke-linecap="round"/>
<path d="M274.402 372.178C268.72 372.178 264.114 367.572 264.114 361.89V353.834H284.689V361.89C284.689 367.572 280.083 372.178 274.402 372.178Z" fill="#71A7A2"/>
<path d="M303.044 323.07C301.725 323.07 300.62 322.155 300.33 320.925C298.615 319.576 289.528 317.19 274.258 317.19C258.987 317.19 249.901 319.576 248.186 320.925C247.896 322.155 246.791 323.07 245.472 323.07C243.932 323.07 242.683 321.822 242.683 320.282C242.683 316.105 248.381 314.405 253.345 313.391C258.96 312.244 266.387 311.612 274.258 311.612C282.129 311.612 289.556 312.244 295.17 313.391C300.135 314.405 305.833 316.105 305.833 320.282C305.833 321.822 304.584 323.07 303.044 323.07Z" fill="#528F8B"/>
<path d="M302.856 320.771V343.45C302.856 344.056 302.833 344.658 302.781 345.257C302.614 347.425 302.134 349.507 301.394 351.459C300.874 352.831 300.223 354.14 299.457 355.367C298.089 357.572 296.345 359.524 294.322 361.134C290.462 364.209 285.576 366.046 280.259 366.046H268.561C260.708 366.046 253.788 362.038 249.738 355.954L249.593 355.731C248.311 353.76 247.329 351.571 246.712 349.239C246.686 349.139 246.66 349.038 246.637 348.938C246.321 347.67 246.109 346.365 246.02 345.026C245.983 344.506 245.964 343.977 245.964 343.45V320.771H302.856Z" fill="#C3E5E2"/>
<path d="M302.695 329.881V336.871C298.407 339.367 289.595 340.586 275.989 340.586C260.458 340.586 250.325 338.998 245.804 335.856V330.074C247.395 332.038 253.356 336.124 275.989 336.124C303.654 336.124 302.122 330.788 302.695 329.881Z" fill="#9DC8C1"/>
<path d="M302.695 338.989V345.98C298.407 348.475 289.595 349.694 275.989 349.694C260.458 349.694 250.325 348.107 245.804 344.965V339.183C247.395 341.146 253.356 345.233 275.989 345.233C303.654 345.233 302.122 339.897 302.695 338.989Z" fill="#9DC8C1"/>
<path d="M275.986 354.16V355.383C275.986 357.175 274.514 358.626 272.721 358.596C262.265 358.432 254.527 357.476 249.582 355.733C248.299 353.762 247.317 351.572 246.7 349.24C246.674 349.14 246.648 349.039 246.625 348.939C249.15 351.032 256.189 354.16 275.986 354.16Z" fill="#9DC8C1"/>
<path d="M302.849 320.131V327.122C298.562 329.617 289.749 330.836 276.144 330.836C260.612 330.836 250.325 329.879 245.804 326.737L245.958 320.325C247.55 322.288 253.51 326.375 276.144 326.375C303.809 326.375 302.276 321.039 302.849 320.131Z" fill="#9DC8C1"/>
<path d="M257.304 315.081V325.485C250.124 324.31 245.468 322.417 245.468 320.283C245.468 318.149 250.124 316.256 257.304 315.081Z" fill="#A1C5C2"/>
<path d="M274.474 313.826C279.081 313.826 284.937 314.255 288.804 314.682L287.302 326.07C283.435 326.498 279.081 326.736 274.474 326.736C270.209 326.736 266.159 326.531 262.512 326.163L260.012 314.721C263.66 314.352 270.209 313.826 274.474 313.826Z" fill="#A1C5C2"/>
<path d="M303.479 320.281C303.479 322.33 299.195 324.156 292.51 325.338V315.224C299.195 316.407 303.479 318.233 303.479 320.281Z" fill="#A1C5C2"/>
<path d="M259.971 314.628L262.504 326.159C260.656 325.973 258.912 325.746 257.298 325.478L254.952 315.502C256.408 315.229 258.123 314.813 259.971 314.628Z" fill="#71A7A2"/>
<path d="M293.952 315.5L292.498 325.338C290.892 325.621 289.148 325.87 287.292 326.071L288.87 314.619C290.726 314.82 292.345 315.217 293.952 315.5Z" fill="#71A7A2"/>
<path d="M261.019 326.071L249.888 270.096C249.12 266.233 251.087 262.255 254.729 260.754C255.891 260.275 257.185 260.05 258.541 260.146C262.638 260.436 265.976 263.737 266.308 267.831C266.363 268.519 266.336 269.192 266.235 269.839C265.91 271.916 263.28 272.695 261.914 271.096C260.661 269.628 259.905 267.723 259.905 265.641C259.905 260.647 264.26 256.67 269.38 257.301C273.051 257.752 276.091 260.54 276.633 264.199C276.87 265.796 276.623 267.341 276.038 268.715C275.162 270.773 272.208 270.669 271.428 268.572C271.089 267.66 270.903 266.672 270.903 265.641C270.903 260.821 274.961 256.948 279.847 257.251C284.131 257.517 287.576 261.076 287.713 265.367C287.776 267.349 287.153 269.183 286.063 270.65C284.776 272.384 282.034 271.815 281.578 269.704C281.454 269.129 281.388 268.532 281.388 267.92C281.388 263.1 285.446 259.226 290.332 259.53C292.15 259.643 293.819 260.349 295.148 261.454C297.389 263.317 298.393 266.285 297.922 269.162L289.201 322.459" stroke="#FAB829" stroke-width="4.8" stroke-miterlimit="10" stroke-linecap="round"/>
<path d="M276.097 347.689C258.921 347.689 248.345 345.745 244.664 341.91C243.384 340.577 243.289 339.376 243.307 338.922C243.357 337.691 244.398 336.728 245.627 336.783C246.728 338.53 251.831 343.227 276.097 343.227C305.324 343.227 301.964 337.272 302.92 336.87C303.652 336.562 304.947 336.886 305.519 337.978C305.969 338.836 306.136 340.274 305.254 341.731C302.828 345.74 293.291 347.689 276.097 347.689Z" fill="#E7F7F4"/>
<path d="M276.401 354.251C276.401 355.491 275.388 356.496 274.148 356.483C258.298 356.318 248.486 354.38 244.968 350.716C243.688 349.383 243.593 348.182 243.612 347.727C243.662 346.497 244.703 345.534 245.932 345.589C246.999 347.281 251.822 351.743 274.19 352.019C275.414 352.034 276.401 353.027 276.401 354.251Z" fill="#E7F7F4"/>
<path d="M276.143 338.733C258.967 338.733 248.391 336.789 244.71 332.955C243.43 331.621 243.335 330.421 243.353 329.966C243.403 328.735 244.444 327.773 245.673 327.828C246.774 329.575 251.877 334.272 276.143 334.272C305.37 334.272 302.01 328.317 302.966 327.915C303.698 327.607 304.993 327.93 305.565 329.022C306.015 329.881 306.182 331.318 305.3 332.776C302.875 336.785 293.337 338.733 276.143 338.733Z" fill="#E7F7F4"/>
<path d="M274.254 328.946C266.383 328.946 258.956 328.314 253.341 327.167C248.377 326.153 242.291 324.453 242.291 320.276C242.291 318.736 243.514 317.087 244.716 316.976C246.172 318.908 247.287 319.298 248.24 319.767C250.359 320.811 258.983 323.369 274.254 323.369C289.524 323.369 298.487 320.861 300.375 319.767C301.389 319.18 302.889 318.48 304.516 316.667C305.852 317.568 306.433 318.343 306.433 319.883C306.433 324.06 300.131 326.153 295.167 327.167C289.551 328.314 282.124 328.946 274.254 328.946Z" fill="#71A7A2"/>
<path d="M228.377 233.034C228.377 210.463 246.674 192.166 269.245 192.166" stroke="white" stroke-width="13.19" stroke-miterlimit="10" stroke-linecap="round"/>
<path d="M289.667 172.418L288.413 167.657L289.667 172.418Z" fill="#CC8770"/>
<path d="M272.12 174.853L271.394 169.192L272.12 174.853Z" fill="#CC8770"/>
<path d="M124.75 269.75C133.583 269.75 138 273.5 138 281C138 287 136.333 291.167 133 293.5C129.667 295.833 124.417 297 117.25 297H112L111 310.25C110.5 317.917 108.833 323.083 106 325.75C103.333 328.417 98.9167 329.75 92.75 329.75C83.9167 329.75 79.5 324.333 79.5 313.5C79.5 311.667 79.5833 310.25 79.75 309.25L81 297C56.8333 297 38.5 296.917 26 296.75C22.3333 296.75 19.0833 295.083 16.25 291.75C13.4167 288.417 12 284.083 12 278.75C12 275.583 12.5833 272.25 13.75 268.75C21.0833 247.417 32.0833 223.167 46.75 196C49.9167 190.167 53.0833 186.083 56.25 183.75C59.5833 181.25 64.6667 180 71.5 180C75.1667 180 77.9167 180.833 79.75 182.5C81.75 184.167 82.75 186.333 82.75 189C82.75 191.833 81.9167 194.667 80.25 197.5C63.9167 227.333 52.4167 251.417 45.75 269.75H84.25C86.25 254.25 89 239.5 92.5 225.5C93.8333 220.333 96 216.417 99 213.75C102 210.917 106.167 209.5 111.5 209.5C120 209.5 124.25 213.167 124.25 220.5C124.25 222.667 124.083 224.333 123.75 225.5C120.75 239.667 118.083 254.417 115.75 269.75H124.75Z" fill="#2E45D5"/>
<path d="M527.75 269.75C536.583 269.75 541 273.5 541 281C541 287 539.333 291.167 536 293.5C532.667 295.833 527.417 297 520.25 297H515L514 310.25C513.5 317.917 511.833 323.083 509 325.75C506.333 328.417 501.917 329.75 495.75 329.75C486.917 329.75 482.5 324.333 482.5 313.5C482.5 311.667 482.583 310.25 482.75 309.25L484 297C459.833 297 441.5 296.917 429 296.75C425.333 296.75 422.083 295.083 419.25 291.75C416.417 288.417 415 284.083 415 278.75C415 275.583 415.583 272.25 416.75 268.75C424.083 247.417 435.083 223.167 449.75 196C452.917 190.167 456.083 186.083 459.25 183.75C462.583 181.25 467.667 180 474.5 180C478.167 180 480.917 180.833 482.75 182.5C484.75 184.167 485.75 186.333 485.75 189C485.75 191.833 484.917 194.667 483.25 197.5C466.917 227.333 455.417 251.417 448.75 269.75H487.25C489.25 254.25 492 239.5 495.5 225.5C496.833 220.333 499 216.417 502 213.75C505 210.917 509.167 209.5 514.5 209.5C523 209.5 527.25 213.167 527.25 220.5C527.25 222.667 527.083 224.333 526.75 225.5C523.75 239.667 521.083 254.417 518.75 269.75H527.75Z" fill="#2E45D5"/>
</svg>
