<svg width="650" height="127" viewBox="0 0 650 127" fill="none" xmlns="http://www.w3.org/2000/svg">
<path d="M341.041 -48.3599L373.8 7.02173L350.347 15.2753L341.041 -48.3599Z" fill="#EAD300"/>
<path d="M175.538 10.5153L226.205 5.78751L224.695 25.1348L175.538 10.5153Z" fill="#EA0000"/>
<circle cx="286.437" cy="30.6874" r="5.0625" fill="#9F00EA"/>
<rect width="35.5433" height="17.7633" transform="matrix(0.691562 -0.722317 0.70621 0.708003 235.25 79.4235)" fill="#EAA900"/>
<path d="M220.915 53.75C220.915 53.75 219.194 43.448 224.133 41.3947C228.283 39.6697 231.881 47.2983 235.29 44.5326C238.744 41.7311 230.122 37.293 232.93 33.9423C235.886 30.4158 245.375 33.9423 245.375 33.9423" stroke="#005EEA" stroke-width="1.2"/>
<path d="M417.51 28.1314C423.379 28.7222 429.084 19.7932 428.425 26.3398C427.766 32.8865 422.474 37.7147 416.605 37.1239C410.735 36.5331 406.511 30.7471 407.17 24.2005C407.829 17.6538 411.64 27.5406 417.51 28.1314Z" fill="#005EEA"/>
<path d="M363.5 43.6249L367.541 55.6739H380.619L370.039 63.1206L374.08 75.1696L363.5 67.7229L352.92 75.1696L356.961 63.1206L346.381 55.6739H359.459L363.5 43.6249Z" fill="#05EA00"/>
<path d="M234.687 -17.125L237.087 -9.74012L244.852 -9.74012L238.57 -5.17602L240.969 2.20886L234.687 -2.35525L228.405 2.20886L230.805 -5.17602L224.523 -9.74012L232.288 -9.74012L234.687 -17.125Z" fill="#EAD300"/>
<path d="M655.041 -13.3599L687.8 42.0217L664.347 50.2753L655.041 -13.3599Z" fill="#EAD300"/>
<path d="M489.538 45.5152L540.205 40.7874L538.695 60.1346L489.538 45.5152Z" fill="#EA0000"/>
<circle cx="600.437" cy="65.6874" r="5.0625" fill="#9F00EA"/>
<circle cx="611.125" cy="12.25" r="12.375" fill="#EAA900"/>
<rect width="35.5433" height="17.7633" transform="matrix(0.691562 -0.722317 0.70621 0.708003 549.25 114.423)" fill="#EAA900"/>
<path d="M457 19.942C457 19.942 479.788 8.64113 484.958 14.5644C487.798 17.8184 489.942 21.7598 487.399 24.962C485.438 27.4304 482.607 27.7451 479.29 27.1651C472.267 25.937 472.373 16.2253 475.193 10.2107C479.086 1.90634 499.75 6.80796 499.75 6.80796" stroke="#05EA00" stroke-width="1.2"/>
<path d="M534.915 88.75C534.915 88.75 533.194 78.448 538.133 76.3947C542.283 74.6697 545.881 82.2983 549.29 79.5326C552.744 76.7311 544.122 72.293 546.93 68.9423C549.886 65.4158 559.375 68.9423 559.375 68.9423" stroke="#005EEA" stroke-width="1.2"/>
<path d="M548.687 17.875L551.087 25.2599L558.852 25.2599L552.57 29.824L554.969 37.2089L548.687 32.6448L542.405 37.2089L544.805 29.824L538.523 25.2599L546.288 25.2599L548.687 17.875Z" fill="#EAD300"/>
<path d="M54.0407 -29.3599L86.7999 26.0217L63.3465 34.2753L54.0407 -29.3599Z" fill="#EAD300"/>
<circle cx="-0.56264" cy="49.6874" r="5.0625" fill="#9F00EA"/>
<circle cx="10.125" cy="-3.75001" r="12.375" fill="#EAA900"/>
<path d="M130.51 47.1314C136.379 47.7222 142.084 38.7932 141.425 45.3398C140.766 51.8865 135.474 56.7147 129.605 56.1239C123.735 55.5331 119.511 49.7471 120.17 43.2005C120.829 36.6538 124.64 46.5406 130.51 47.1314Z" fill="#005EEA"/>
<path d="M76.5001 62.6249L80.5413 74.6739H93.6191L83.0389 82.1206L87.0802 94.1696L76.5001 86.7229L65.9199 94.1696L69.9612 82.1206L59.381 74.6739H72.4588L76.5001 62.6249Z" fill="#05EA00"/>
</svg>
