<svg width="40" height="40" viewBox="0 0 40 40" fill="none" xmlns="http://www.w3.org/2000/svg">
<path d="M19.6006 0.209805C19.3988 0.419609 19.3908 0.443817 19.3908 1.50898V2.59835L18.9308 2.64676C17.5832 2.79201 17.0103 2.8727 16.1953 3.0583C10.2481 4.38168 5.34194 8.8602 3.46984 14.6863C3.03409 16.0258 2.85657 16.9619 2.64676 18.9227L2.59835 19.3908H1.50898C0.443817 19.3908 0.419609 19.3988 0.209804 19.6006L0 19.8104L0.0484164 20.8997C0.476094 29.7519 6.53621 37.2241 15.0736 39.4029C16.9538 39.887 17.9302 40 20.0363 40C22.1343 40 23.0946 39.887 25.0151 39.4029C32.0436 37.6195 37.6195 32.0436 39.4029 25.0151C39.887 23.0946 40 22.1344 40 20.0363C40 17.9302 39.887 16.9538 39.4029 15.0736C38.1763 10.2562 35.231 6.1166 31.0752 3.36494C28.0411 1.34759 24.6117 0.234013 20.9159 0.0564842L19.8104 0L19.6006 0.209805ZM22.7315 1.52512C25.0797 1.84789 27.5247 2.71939 29.6954 4.01856C32.0839 5.43877 34.6419 7.9887 36.0541 10.3772C37.5953 12.9595 38.4426 15.6546 38.717 18.8017L38.7654 19.3908H29.7277H20.6819V10.345V1.30724L21.2709 1.35566C21.5856 1.37987 22.2473 1.46056 22.7315 1.52512ZM19.3908 11.8297V19.7539L13.7745 25.3621L8.16623 30.9703L7.91608 30.6879C3.63123 25.7414 2.69518 18.8582 5.5114 13.024C7.41577 9.08614 10.8372 6.0924 14.9929 4.7206C16.2679 4.30099 17.8979 3.98628 19.2132 3.90559L19.3908 3.89752V11.8297ZM2.63869 21.1418C2.90498 23.6595 3.28424 25.2249 4.10732 27.097C8.06133 36.0863 18.842 40.0242 27.6619 35.6909C32.3502 33.3831 35.6587 29.308 36.9417 24.2324C37.1192 23.5384 37.3048 22.3603 37.4259 21.1418L37.4743 20.6819H38.1198H38.7654L38.717 21.2225C38.4426 24.3373 37.6841 26.8307 36.2639 29.3161C35.3762 30.8735 34.3918 32.1404 33.0603 33.4315C28.259 38.0956 21.5211 39.8305 15.0575 38.0714C12.0637 37.2564 9.28787 35.6506 7.0123 33.4396C5.89873 32.3502 5.24511 31.5675 4.41396 30.3087C2.6629 27.67 1.64616 24.6681 1.35566 21.2629L1.30724 20.6819H1.95279H2.59835L2.63869 21.1418ZM36.1267 21.2225C35.7958 24.8537 34.4805 27.9927 32.1485 30.6879L31.9064 30.9703L26.7581 25.8221L21.6098 20.6819H28.8965H36.1832L36.1267 21.2225ZM25.5235 26.4596L30.9703 31.9064L30.7283 32.1081C29.9778 32.7375 29.1144 33.3831 28.5092 33.7543C27.8556 34.1658 26.4192 34.884 26.0319 35.005L25.8463 35.0535V32.5842V30.115L25.6445 29.9213C25.4589 29.7277 25.4105 29.7196 24.3534 29.7196H23.2641V28.6302C23.2641 27.5731 23.256 27.5247 23.0623 27.3391C22.8767 27.1455 22.8283 27.1374 21.7712 27.1374H20.6819V26.048C20.6819 24.9909 20.6738 24.9425 20.4801 24.7569C20.2865 24.5552 20.2703 24.5552 18.7452 24.5552C17.2201 24.5552 17.204 24.5552 17.0103 24.7569L16.8085 24.9506V27.3391V29.7196H15.7192C14.6621 29.7196 14.6137 29.7277 14.4281 29.9213L14.2263 30.115V32.5842V35.0535L14.0488 35.005C13.6534 34.884 12.2171 34.1658 11.5634 33.7543C10.9098 33.3427 9.99798 32.673 9.38471 32.1485L9.10228 31.9064L14.5491 26.4515C17.5429 23.4577 20.0121 21.0046 20.0363 21.0046C20.0605 21.0046 22.5298 23.4577 25.5235 26.4596ZM19.3908 31.0188V36.1993L19.0922 36.1428C18.9227 36.1186 18.6322 36.0944 18.4466 36.0944H18.0997V30.9703V25.8463H18.7452H19.3908V31.0188ZM21.973 32.2614V36.0944H21.634C21.4404 36.0944 21.1499 36.1186 20.9885 36.1428L20.6819 36.1993V32.3099V28.4285H21.3274H21.973V32.2614ZM16.8085 33.4315V35.8523L16.5907 35.8039C16.4616 35.7797 16.1711 35.699 15.9451 35.6345L15.5174 35.5215V33.2621V31.0107H16.163H16.8085V33.4315ZM24.5552 33.2701V35.5215L24.1356 35.6425C23.9015 35.7071 23.611 35.7797 23.49 35.8039L23.2641 35.8523V33.4315V31.0107H23.9096H24.5552V33.2701Z" fill="#F1F1F1"/>
<path d="M26.6535 6.5926C25.4027 6.86696 24.5877 7.31078 23.6678 8.24683C23.1271 8.78748 22.9012 9.09411 22.6349 9.62669C22.1346 10.6354 22.0135 11.176 22.0216 12.3703C22.0297 13.2337 22.062 13.4758 22.2395 14.0245C22.5461 14.9525 22.9657 15.6303 23.7081 16.3646C24.4586 17.1151 24.9992 17.454 25.9837 17.801C26.6292 18.0269 26.7906 18.0511 27.7025 18.0511C28.8968 18.0592 29.4455 17.9382 30.4299 17.4379C32.4554 16.4292 33.7303 14.1698 33.5689 11.8781C33.464 10.4498 32.9153 9.27164 31.8582 8.21455C30.7366 7.0929 29.5746 6.57646 28.0253 6.51998C27.4846 6.49577 26.9924 6.52804 26.6535 6.5926ZM29.2437 8.02895C30.4461 8.47277 31.2934 9.21515 31.8179 10.3045C33.0364 12.8383 31.7937 15.6949 29.0743 16.6148C28.4207 16.8407 27.0246 16.8165 26.3791 16.5825C24.9347 16.058 23.9502 15.0413 23.458 13.5807C23.345 13.2579 23.3046 12.9029 23.3046 12.2896C23.3046 11.0146 23.7081 10.014 24.5635 9.14253C25.209 8.48891 26.016 8.04509 26.9359 7.84336C27.5007 7.72232 28.6547 7.81915 29.2437 8.02895Z" fill="#F1F1F1"/>
<path d="M27.1386 8.739C27.1386 8.98108 27.1063 9.06177 27.0095 9.06177C26.138 9.06177 25.2019 10.0704 25.2019 10.9984C25.2019 11.9264 26.138 12.9351 27.0095 12.9351C27.1144 12.9351 27.1386 13.04 27.1386 13.5806C27.1386 14.1051 27.1144 14.2262 27.0175 14.2262C26.8561 14.2262 26.493 13.8631 26.493 13.7017C26.493 13.6048 26.372 13.5806 25.8475 13.5806C25.3068 13.5806 25.2019 13.6048 25.2019 13.7097C25.2019 14.5167 26.2025 15.5173 27.0095 15.5173C27.1063 15.5173 27.1386 15.598 27.1386 15.8401V16.1628H27.7841H28.4297V15.8401C28.4297 15.5818 28.462 15.5173 28.5749 15.5173C28.9623 15.5173 29.4868 15.2429 29.8257 14.8717C30.5762 14.0406 30.5519 13.0319 29.7611 12.2492C29.3819 11.8699 28.9381 11.644 28.5588 11.644C28.4539 11.644 28.4297 11.5391 28.4297 10.9984C28.4297 10.2722 28.5184 10.1915 28.8735 10.5546C28.9865 10.6595 29.0752 10.8048 29.0752 10.8774C29.0752 10.9742 29.1963 10.9984 29.7208 10.9984C30.2614 10.9984 30.3664 10.9742 30.3664 10.8693C30.3664 10.256 29.7208 9.40069 29.0994 9.19088C28.8896 9.11826 28.6556 9.06177 28.5749 9.06177C28.462 9.06177 28.4297 8.99722 28.4297 8.739V8.41622H27.7841H27.1386V8.739ZM27.1386 10.9984C27.1386 11.5229 27.1144 11.644 27.0175 11.644C26.7997 11.644 26.493 11.2647 26.493 10.9984C26.493 10.7321 26.7997 10.3529 27.0175 10.3529C27.1144 10.3529 27.1386 10.4739 27.1386 10.9984ZM28.8735 13.1368C29.0026 13.2579 29.0752 13.4273 29.0752 13.5806C29.0752 13.8469 28.7686 14.2262 28.5507 14.2262C28.4539 14.2262 28.4297 14.1051 28.4297 13.5806C28.4297 12.8544 28.5184 12.7737 28.8735 13.1368Z" fill="#F1F1F1"/>
<path d="M12.2892 12.6125C12.2892 12.8546 12.2569 12.9353 12.1601 12.9353C11.2886 12.9353 10.3525 13.944 10.3525 14.872C10.3525 15.7999 11.2886 16.8086 12.1601 16.8086C12.265 16.8086 12.2892 16.9135 12.2892 17.4542C12.2892 17.9787 12.265 18.0997 12.1682 18.0997C12.0068 18.0997 11.6436 17.7366 11.6436 17.5752C11.6436 17.4784 11.5226 17.4542 10.9981 17.4542C10.4574 17.4542 10.3525 17.4784 10.3525 17.5833C10.3525 18.3902 11.3531 19.3908 12.1601 19.3908C12.2569 19.3908 12.2892 19.4715 12.2892 19.7136V20.0364H12.9347H13.5803V19.7136C13.5803 19.4554 13.6126 19.3908 13.7255 19.3908C14.1129 19.3908 14.6374 19.1165 14.9763 18.7453C15.7268 17.9141 15.7025 16.9055 14.9117 16.1227C14.5325 15.7435 14.0887 15.5175 13.7094 15.5175C13.6045 15.5175 13.5803 15.4126 13.5803 14.872C13.5803 14.3475 13.6045 14.2264 13.7013 14.2264C13.8627 14.2264 14.2258 14.5895 14.2258 14.7509C14.2258 14.8478 14.3469 14.872 14.8714 14.872C15.412 14.872 15.517 14.8478 15.517 14.7429C15.517 14.1296 14.8714 13.2742 14.2501 13.0644C14.0403 12.9918 13.8062 12.9353 13.7255 12.9353C13.6126 12.9353 13.5803 12.8708 13.5803 12.6125V12.2898H12.9347H12.2892V12.6125ZM12.2892 14.872C12.2892 15.3965 12.265 15.5175 12.1682 15.5175C11.9503 15.5175 11.6436 15.1383 11.6436 14.872C11.6436 14.6057 11.9503 14.2264 12.1682 14.2264C12.265 14.2264 12.2892 14.3475 12.2892 14.872ZM14.0241 17.0104C14.1532 17.1314 14.2258 17.3009 14.2258 17.4542C14.2258 17.7205 13.9192 18.0997 13.7013 18.0997C13.6045 18.0997 13.5803 17.9787 13.5803 17.4542C13.5803 16.7279 13.6691 16.6472 14.0241 17.0104Z" fill="#F1F1F1"/>
</svg>
