<svg width="31" height="40" viewBox="0 0 31 40" fill="none" xmlns="http://www.w3.org/2000/svg">
<path d="M10.9884 0.0637589C10.2691 0.235771 9.59669 0.798725 9.2292 1.53369C9.04937 1.90899 9.0181 2.06537 9.0181 2.64396V3.3242L8.27531 3.35547C7.45434 3.38675 7.03994 3.54312 6.47699 4.02789C5.7733 4.62212 5.43709 5.88876 5.74984 6.78011C5.82803 7.01467 6.35971 7.9451 6.93048 8.83645C7.50125 9.72779 7.98602 10.5097 8.01729 10.5722C8.04857 10.666 7.96256 10.6895 7.5638 10.6895C6.8992 10.6895 6.39098 10.9319 5.90622 11.4714C4.89759 12.5895 5.22598 14.3643 6.57081 15.0368L6.86011 15.1853L6.39098 15.8108C3.5684 19.556 1.34786 23.9971 0.50343 27.5781C0.159403 29.0011 0.057759 29.7674 0.0108462 31.0966C-0.0751605 33.5751 0.347054 35.3422 1.39477 36.8825C2.32521 38.2508 3.83424 39.2985 5.6091 39.7989C6.19551 39.9709 6.26588 39.9709 14.9213 39.9944C21.0825 40.01 23.8191 39.9944 24.2647 39.9318C27.361 39.494 29.7223 37.2421 30.4181 34.0677C30.5667 33.3562 30.5901 33.0278 30.5901 31.5657C30.5901 29.7752 30.4963 29.0168 30.0506 27.2654C29.1515 23.7547 26.97 19.4466 24.2335 15.8108L23.7643 15.1853L24.0536 15.0368C24.21 14.9586 24.4602 14.7866 24.601 14.6458C24.8824 14.3878 25.2421 13.7545 25.2421 13.5355C25.2421 13.4261 25.2968 13.4183 25.5627 13.4574C26.4071 13.5903 27.447 14.4113 27.8848 15.2713C28.1585 15.8108 28.2523 15.9125 28.5807 15.975C28.9013 16.0376 29.3079 15.7014 29.3079 15.3651C29.3079 14.8882 28.698 13.903 28.0178 13.2853C27.5643 12.8631 26.5244 12.2924 26.0631 12.2063C25.9145 12.1829 25.7894 12.1516 25.7894 12.136C25.7894 12.1282 26.0787 11.8232 26.4384 11.4636C27.1812 10.713 27.5799 10.0249 27.8223 9.07883C28.0412 8.22658 28.0334 7.76527 27.7832 7.52289C27.4314 7.16323 26.7902 7.34306 26.6964 7.82C26.6729 7.91383 26.6182 8.21876 26.5713 8.50024C26.5166 8.78172 26.3758 9.22739 26.2429 9.50105C25.9927 10.0405 25.2421 10.8928 24.8355 11.1117L24.5775 11.2525L24.1631 11.0023C23.8269 10.7833 23.6549 10.7364 23.1623 10.7051C22.7166 10.6739 22.5837 10.6426 22.615 10.5644C22.6384 10.5097 23.1232 9.72779 23.694 8.83645C24.2647 7.9451 24.7964 7.01467 24.8746 6.78011C25.1874 5.87312 24.8512 4.62212 24.1318 4.00443C23.5767 3.52748 23.1857 3.38675 22.3491 3.35547L21.6064 3.3242V2.64396C21.6064 2.06537 21.5751 1.90899 21.3874 1.52587C21.1138 0.962917 20.629 0.478153 20.0817 0.220135L19.6517 0.0168457L15.4686 0.00120544C13.1699 -0.00661087 11.1526 0.024662 10.9884 0.0637589ZM19.4796 1.41641C20.0191 1.64315 20.4023 2.31557 20.2928 2.86289C20.2693 2.98017 19.7298 4.31718 19.1043 5.83403C17.8846 8.76608 17.8455 8.899 18.2286 9.16484C18.471 9.32903 18.9323 9.31339 19.0965 9.13356C19.2138 9.00064 19.4796 8.39078 20.801 5.23198L21.0356 4.66903H21.8644C22.8886 4.66903 23.217 4.81758 23.5063 5.37272C23.8503 6.04514 23.7956 6.18587 22.2788 8.57061L20.9339 10.6895H15.3122H9.69833L8.3535 8.57061C6.82883 6.18587 6.7741 6.04514 7.11813 5.37272C7.40742 4.81758 7.73581 4.66903 8.76008 4.66903H9.58887L9.82343 5.23198C9.95635 5.54473 10.3629 6.52208 10.7304 7.40561C11.1135 8.32041 11.4732 9.07101 11.567 9.14138C11.7938 9.32903 12.2238 9.32121 12.4193 9.12574C12.7477 8.79735 12.7242 8.72699 11.5201 5.83403C10.8946 4.31718 10.3551 2.98017 10.3317 2.86289C10.2222 2.32339 10.5975 1.65097 11.1292 1.41641C11.481 1.26003 19.1122 1.26003 19.4796 1.41641ZM23.5532 12.1829C23.9911 12.5269 24.1005 13.043 23.8347 13.4808C23.5298 13.989 23.6705 13.9734 18.8307 13.9734H14.4365L14.2098 14.2001C13.9205 14.4973 13.9048 14.8413 14.1785 15.1071L14.3661 15.3026H18.2677H22.1693L22.873 16.2174C26.2194 20.6116 28.3774 25.0839 29.1124 29.181C29.3157 30.2834 29.3548 32.1365 29.1984 33.192C28.9482 34.8965 28.4869 35.8426 27.4001 36.9294C26.798 37.5236 26.5635 37.7035 25.9458 38.0084C24.5462 38.6886 25.3359 38.6417 15.3122 38.6417C5.28853 38.6417 6.07823 38.6886 4.67867 38.0084C4.05316 37.6956 3.82642 37.5314 3.22437 36.9294C2.13756 35.8348 1.67625 34.8887 1.42605 33.192C1.26967 32.1443 1.30877 30.2912 1.50424 29.181C2.22356 25.1621 4.34246 20.7367 7.62635 16.3894L8.44732 15.3026H9.67487C10.8008 15.3026 10.9181 15.287 11.0744 15.1462C11.3012 14.9351 11.3637 14.6536 11.2308 14.3956C11.051 14.0047 10.879 13.9734 9.07283 13.9734C7.22759 13.9734 7.0634 13.9421 6.78974 13.4808C6.5239 13.043 6.63336 12.5269 7.07122 12.1829C7.28232 12.0187 7.28232 12.0187 15.3122 12.0187C23.3421 12.0187 23.3421 12.0187 23.5532 12.1829Z" fill="#F1F1F1"/>
<path d="M4.89746 26.1707C4.78799 26.2567 4.67853 26.4131 4.66289 26.5148C4.60816 26.7962 4.79581 27.1794 5.03038 27.2654C5.14766 27.3123 5.71061 27.3436 6.2892 27.3436H7.33692V30.1427V32.9497L7.51675 33.106C7.76695 33.3406 8.00152 33.3875 8.25954 33.2546C8.65048 33.0513 8.66612 32.9418 8.66612 30.041V27.3436H9.75293C10.7772 27.3436 10.8632 27.3357 11.043 27.1637C11.3558 26.8979 11.3792 26.5617 11.129 26.2646L10.9179 26.0144H8.00152C5.21803 26.0144 5.08511 26.0222 4.89746 26.1707Z" fill="#F1F1F1"/>
<path d="M14.8901 26.1862C14.7728 26.3035 14.2021 27.492 13.3733 29.3763C12.6461 31.0339 12.0206 32.4648 11.9971 32.5586C11.872 32.973 12.4115 33.4499 12.8181 33.2936C13.0996 33.1919 13.2012 33.0433 13.5922 32.1598L13.9519 31.3701H15.3123H16.6728L17.0325 32.1598C17.4234 33.0433 17.5251 33.1919 17.8065 33.2936C18.2131 33.4499 18.7526 32.973 18.6275 32.5586C18.6041 32.4648 17.9786 31.0339 17.2514 29.3763C16.4226 27.492 15.8518 26.3035 15.7345 26.1862C15.6251 26.0924 15.4374 26.0142 15.3123 26.0142C15.1872 26.0142 14.9996 26.0924 14.8901 26.1862ZM15.6876 29.1261C15.8675 29.5405 16.016 29.908 16.016 29.9393C16.016 29.9784 15.7033 30.0018 15.3123 30.0018C14.9292 30.0018 14.6086 29.9784 14.6086 29.9393C14.6086 29.8454 15.2732 28.3599 15.3123 28.3599C15.3358 28.3599 15.5 28.7039 15.6876 29.1261Z" fill="#F1F1F1"/>
<path d="M20.1989 26.2098C19.8392 26.5616 19.9096 26.7727 20.9104 28.2661C21.403 29.0167 21.7939 29.6657 21.7783 29.7204C21.7548 29.7751 21.3483 30.4085 20.8713 31.1278C20.2145 32.1208 20.0034 32.4961 20.0034 32.6915C20.0034 32.9652 20.2224 33.231 20.5195 33.317C20.8791 33.4265 21.0746 33.2389 21.8487 32.0739C22.2709 31.4484 22.6305 30.9401 22.654 30.9401C22.6775 30.9401 23.0137 31.4171 23.389 31.9957C23.7721 32.5664 24.1552 33.1059 24.2334 33.1763C24.4758 33.3952 24.9136 33.3561 25.1326 33.0981C25.2342 32.9808 25.3202 32.7932 25.3202 32.6759C25.3202 32.5352 24.9997 31.9878 24.3898 31.0652L23.4593 29.6735L24.3898 28.2661C24.898 27.4999 25.3202 26.7962 25.3202 26.7102C25.3202 26.2098 24.8198 25.8814 24.3429 26.0612C24.2725 26.0925 23.8581 26.6398 23.4281 27.281L22.6462 28.4538L21.9816 27.453C21.6141 26.8978 21.2232 26.3505 21.1137 26.2254C20.8479 25.9439 20.4647 25.9361 20.1989 26.2098Z" fill="#F1F1F1"/>
</svg>
