<svg width="160" height="44" viewBox="0 0 160 44" fill="none" xmlns="http://www.w3.org/2000/svg">
<path d="M157.578 28.4257C157.029 27.1363 157.825 26.1487 157.825 26.1487C157.825 26.1487 158.116 27.3816 158.456 28.1239C158.732 28.7255 159.334 29.6053 159.334 29.6053C159.334 29.6053 158.127 29.715 157.578 28.4257Z" fill="#79C769"/>
<path d="M1.75586 28.4804C2.30455 27.191 1.50895 26.2034 1.50895 26.2034C1.50895 26.2034 1.21817 27.4363 0.877982 28.1786C0.602261 28.7802 0.000109196 29.66 0.000109196 29.66C0.000109196 29.66 1.20716 29.7697 1.75586 28.4804Z" fill="#79C769"/>
<path d="M79.859 39.8929C30.6981 39.8929 1.94775 28.0964 1.94775 28.0964C1.94775 28.0964 26.2539 43.0751 78.4599 43.6512C130.666 44.2274 157.331 28.0964 157.331 28.0964C157.331 28.0964 129.87 39.8929 79.859 39.8929Z" fill="#79C769"/>
<path d="M15.0831 12.2361H11.7301V27.4107H6.82172V12.2361H4.64404V8.261H6.82172V7.29315C6.82172 4.94264 7.49 3.21433 8.82656 2.10821C10.1631 1.00209 12.1795 0.483598 14.8757 0.552731V4.63155C13.7004 4.6085 12.8823 4.80438 12.4214 5.21917C11.9606 5.63397 11.7301 6.3829 11.7301 7.46598V8.261H15.0831V12.2361Z" fill="#333333"/>
<path d="M36.2973 8.261V27.4107H31.4234V24.9911C30.8012 25.8207 29.9832 26.4774 28.9692 26.9613C27.9783 27.4222 26.8953 27.6527 25.72 27.6527C24.2221 27.6527 22.8971 27.3416 21.7449 26.7194C20.5927 26.0741 19.6824 25.1409 19.0142 23.9195C18.3689 22.6751 18.0463 21.2003 18.0463 19.495V8.261H22.8856V18.8037C22.8856 20.3246 23.2658 21.4999 24.0263 22.3295C24.7867 23.136 25.8237 23.5393 27.1372 23.5393C28.4738 23.5393 29.5223 23.136 30.2827 22.3295C31.0432 21.4999 31.4234 20.3246 31.4234 18.8037V8.261H36.2973Z" fill="#333333"/>
<path d="M51.6838 7.98447C53.9652 7.98447 55.8088 8.71037 57.2144 10.1621C58.6201 11.5909 59.323 13.5957 59.323 16.1767V27.4107H54.4837V16.8334C54.4837 15.3125 54.1035 14.1488 53.343 13.3422C52.5826 12.5127 51.5456 12.0979 50.2321 12.0979C48.8955 12.0979 47.8355 12.5127 47.052 13.3422C46.2915 14.1488 45.9113 15.3125 45.9113 16.8334V27.4107H41.072V8.261H45.9113V10.6461C46.5565 9.81649 47.3746 9.17125 48.3655 8.71037C49.3794 8.22644 50.4856 7.98447 51.6838 7.98447Z" fill="#333333"/>
<path d="M70.917 17.7667C70.917 15.831 71.2972 14.1142 72.0577 12.6164C72.8412 11.1185 73.9012 9.96627 75.2378 9.15973C76.5743 8.35318 78.0607 7.94991 79.6968 7.94991C80.9412 7.94991 82.128 8.22644 83.2571 8.7795C84.3863 9.30951 85.285 10.0239 85.9533 10.9226V1.83168H90.8617V27.4107H85.9533V24.5763C85.3542 25.5211 84.5131 26.2815 83.43 26.8576C82.3469 27.4338 81.091 27.7218 79.6623 27.7218C78.0492 27.7218 76.5743 27.307 75.2378 26.4774C73.9012 25.6478 72.8412 24.4841 72.0577 22.9862C71.2972 21.4653 70.917 19.7255 70.917 17.7667ZM85.9879 17.8359C85.9879 16.6606 85.7574 15.6582 85.2966 14.8286C84.8357 13.976 84.2135 13.3307 83.43 12.8929C82.6465 12.432 81.8054 12.2016 80.9066 12.2016C80.0079 12.2016 79.1783 12.4205 78.4179 12.8583C77.6574 13.2962 77.0352 13.9414 76.5513 14.794C76.0904 15.6236 75.86 16.6145 75.86 17.7667C75.86 18.9189 76.0904 19.9329 76.5513 20.8086C77.0352 21.6612 77.6574 22.3179 78.4179 22.7788C79.2014 23.2397 80.031 23.4702 80.9066 23.4702C81.8054 23.4702 82.6465 23.2512 83.43 22.8134C84.2135 22.3525 84.8357 21.7073 85.2966 20.8777C85.7574 20.0251 85.9879 19.0111 85.9879 17.8359Z" fill="#333333"/>
<path d="M104.091 27.7218C102.248 27.7218 100.589 27.3185 99.1139 26.512C97.639 25.6824 96.4753 24.5187 95.6227 23.0208C94.7931 21.5229 94.3783 19.7946 94.3783 17.8359C94.3783 15.8771 94.8046 14.1488 95.6572 12.6509C96.5329 11.153 97.7197 10.0008 99.2176 9.19429C100.715 8.3647 102.386 7.94991 104.23 7.94991C106.073 7.94991 107.744 8.3647 109.242 9.19429C110.74 10.0008 111.915 11.153 112.768 12.6509C113.643 14.1488 114.081 15.8771 114.081 17.8359C114.081 19.7946 113.632 21.5229 112.733 23.0208C111.857 24.5187 110.659 25.6824 109.138 26.512C107.64 27.3185 105.958 27.7218 104.091 27.7218ZM104.091 23.5047C104.967 23.5047 105.785 23.2973 106.546 22.8825C107.329 22.4447 107.951 21.7995 108.412 20.9468C108.873 20.0942 109.104 19.0572 109.104 17.8359C109.104 16.0154 108.62 14.6212 107.652 13.6533C106.707 12.6624 105.543 12.167 104.161 12.167C102.778 12.167 101.614 12.6624 100.669 13.6533C99.7476 14.6212 99.2867 16.0154 99.2867 17.8359C99.2867 19.6563 99.7361 21.062 100.635 22.0529C101.557 23.0208 102.709 23.5047 104.091 23.5047Z" fill="#333333"/>
<path d="M124.959 27.7218C123.392 27.7218 121.986 27.4453 120.742 26.8922C119.497 26.3161 118.507 25.5441 117.769 24.5763C117.055 23.6084 116.663 22.5369 116.594 21.3616H121.468C121.56 22.099 121.917 22.7097 122.539 23.1936C123.184 23.6776 123.98 23.9195 124.924 23.9195C125.846 23.9195 126.56 23.7352 127.067 23.3665C127.597 22.9977 127.862 22.5253 127.862 21.9492C127.862 21.327 127.54 20.8662 126.895 20.5666C126.272 20.244 125.27 19.8983 123.887 19.5296C122.459 19.1839 121.283 18.8268 120.362 18.458C119.463 18.0893 118.679 17.5248 118.011 16.7643C117.366 16.0038 117.043 14.9784 117.043 13.6879C117.043 12.6279 117.343 11.66 117.942 10.7843C118.564 9.90866 119.44 9.21734 120.569 8.71037C121.721 8.20339 123.069 7.94991 124.613 7.94991C126.895 7.94991 128.715 8.52601 130.075 9.67822C131.434 10.8074 132.183 12.3398 132.322 14.2755H127.69C127.62 13.5151 127.298 12.9159 126.722 12.4781C126.169 12.0172 125.42 11.7868 124.475 11.7868C123.599 11.7868 122.919 11.9481 122.436 12.2707C121.975 12.5933 121.744 13.0427 121.744 13.6188C121.744 14.264 122.067 14.7595 122.712 15.1051C123.357 15.4277 124.36 15.7619 125.719 16.1075C127.102 16.4532 128.243 16.8104 129.141 17.1791C130.04 17.5478 130.812 18.1239 131.457 18.9074C132.126 19.6679 132.471 20.6818 132.494 21.9492C132.494 23.0554 132.183 24.0463 131.561 24.9219C130.962 25.7976 130.086 26.4889 128.934 26.9959C127.805 27.4798 126.48 27.7218 124.959 27.7218Z" fill="#333333"/>
<path d="M154.268 17.4211C154.268 18.1124 154.222 18.7346 154.13 19.2876H140.131C140.246 20.6703 140.73 21.7534 141.583 22.5369C142.435 23.3204 143.484 23.7121 144.728 23.7121C146.526 23.7121 147.804 22.9401 148.565 21.3962H153.784C153.231 23.2397 152.171 24.7606 150.604 25.9589C149.037 27.1342 147.113 27.7218 144.832 27.7218C142.988 27.7218 141.329 27.3185 139.854 26.512C138.402 25.6824 137.262 24.5187 136.432 23.0208C135.626 21.5229 135.222 19.7946 135.222 17.8359C135.222 15.8541 135.626 14.1142 136.432 12.6164C137.239 11.1185 138.368 9.96627 139.82 9.15973C141.271 8.35318 142.942 7.94991 144.832 7.94991C146.652 7.94991 148.277 8.34166 149.706 9.12516C151.157 9.90866 152.275 11.0263 153.059 12.4781C153.865 13.9068 154.268 15.5545 154.268 17.4211ZM149.256 16.0384C149.233 14.794 148.784 13.8031 147.908 13.0657C147.033 12.3053 145.961 11.925 144.694 11.925C143.495 11.925 142.481 12.2937 141.652 13.0311C140.845 13.7455 140.35 14.7479 140.165 16.0384H149.256Z" fill="#333333"/>
</svg>
