<svg width="27" height="30" viewBox="0 0 27 30" fill="none" xmlns="http://www.w3.org/2000/svg">
<path d="M12.7944 0.0415058C12.4902 0.117706 12.4609 0.135291 10.1033 1.49518C8.49448 2.42717 8.03231 2.72024 8.08497 2.773C8.21367 2.89023 13.2624 5.78585 13.3384 5.78585C13.4262 5.78585 18.6563 2.78472 18.6621 2.73197C18.6621 2.68507 14.5611 0.317 14.1926 0.152876C13.8708 0.012198 13.1512 -0.0464178 12.7944 0.0415058Z" fill="url(#paint0_linear_97_4154)"/>
<path d="M3.59787 5.2583C2.14702 6.09651 0.959432 6.80576 0.947731 6.83507C0.930181 6.88782 6.1193 9.90653 6.2246 9.90653C6.30651 9.90653 11.4898 6.91127 11.5132 6.85265C11.519 6.82921 10.4133 6.16099 9.0561 5.37554C7.693 4.59009 6.49956 3.89842 6.40596 3.8398L6.2246 3.74016L3.59787 5.2583Z" fill="url(#paint1_linear_97_4154)"/>
<path d="M17.8021 5.27589C16.3454 6.11996 15.152 6.82334 15.152 6.84093C15.152 6.85851 16.2928 7.53259 17.6851 8.33563C19.0716 9.13866 20.2651 9.83033 20.3353 9.87136C20.4406 9.9417 20.698 9.80102 23.079 8.42941C24.524 7.59121 25.7174 6.88196 25.7291 6.85265C25.7408 6.81162 21.3006 4.1915 20.5634 3.80464C20.464 3.75774 20.0428 3.98048 17.8021 5.27589Z" fill="url(#paint2_linear_97_4154)"/>
<path d="M10.6825 9.38485C9.27256 10.2055 8.09667 10.8971 8.06742 10.9264C8.03816 10.9558 9.0912 11.6005 10.6766 12.5208L13.3443 14.0624L16.0003 12.5208C17.4628 11.6767 18.6446 10.9675 18.6329 10.944C18.5802 10.862 13.4145 7.89601 13.3326 7.89601C13.2858 7.90187 12.0982 8.57009 10.6825 9.38485Z" fill="url(#paint3_linear_97_4154)"/>
<path d="M0.0117004 11.4833L0.029251 14.5899L2.65014 16.1081C4.09513 16.9463 5.28272 17.6262 5.30027 17.6262C5.31197 17.6262 5.32367 16.237 5.32367 14.5313V11.4423L3.87283 10.6099C3.0772 10.1527 1.88376 9.46105 1.21099 9.07419L0 8.3708L0.0117004 11.4833Z" fill="url(#paint4_linear_97_4154)"/>
<path d="M21.3591 11.4423L21.3532 14.5313C21.3532 16.237 21.3649 17.6262 21.3825 17.6262C21.4234 17.6262 26.5774 14.6427 26.6359 14.5841C26.6593 14.5606 26.671 13.1597 26.6652 11.4657L26.6476 8.39425L21.3591 11.4423Z" fill="url(#paint5_linear_97_4154)"/>
<path d="M7.07873 15.5981V18.6696L8.32482 19.3906C9.00345 19.7833 10.2144 20.4867 11.0159 20.9439L12.4609 21.7821L12.4492 18.6754L12.4317 15.5629L9.81077 14.0448C8.36577 13.2125 7.16064 12.5267 7.13138 12.5267C7.10213 12.5267 7.07873 13.8045 7.07873 15.5981Z" fill="url(#paint6_linear_97_4154)"/>
<path d="M16.8486 14.0507L14.2452 15.5688L14.2277 18.6813L14.216 21.7938L14.4617 21.6473C14.6021 21.5652 15.8072 20.8677 17.1411 20.0939L19.5689 18.6872L19.5864 15.6098C19.5981 13.1597 19.5864 12.5267 19.5279 12.5325C19.487 12.5384 18.2819 13.2183 16.8486 14.0507Z" fill="url(#paint7_linear_97_4154)"/>
<path d="M0.0117003 19.3378L0.0292509 22.0517L0.210607 22.4327C0.508967 23.0599 0.731274 23.2299 2.9953 24.537C4.13024 25.1994 5.11892 25.7738 5.19497 25.8207L5.32367 25.9028L5.31197 22.7844L5.29442 19.666L2.66769 18.1479C1.22269 17.3156 0.0351011 16.6298 0.0175505 16.6298C0.00585013 16.6298 0.00585013 17.849 0.0117003 19.3378Z" fill="url(#paint8_linear_97_4154)"/>
<path d="M23.9858 18.1538L21.3825 19.6719L21.3649 22.7844L21.3532 25.9028L21.5404 25.7855C21.6457 25.7211 22.5876 25.1759 23.6348 24.5722C24.682 23.9684 25.6414 23.394 25.7701 23.3061C26.0743 23.0892 26.2966 22.802 26.4897 22.3858L26.6476 22.0517L26.6652 19.3378C26.671 17.849 26.6593 16.6298 26.6359 16.6356C26.6125 16.6415 25.4191 17.3214 23.9858 18.1538Z" fill="url(#paint9_linear_97_4154)"/>
<path d="M7.07873 23.8043V26.8875L7.30104 27.0223C7.53505 27.1689 12.1099 29.8124 12.3322 29.9297L12.4609 30V23.8102L9.82832 22.2862C8.37747 21.448 7.16649 20.7504 7.13723 20.7446C7.10213 20.7329 7.07873 21.8641 7.07873 23.8043Z" fill="url(#paint10_linear_97_4154)"/>
<path d="M16.8661 22.2744L14.216 23.8102V30L14.409 29.9004C14.684 29.7538 19.1184 27.1923 19.3817 27.0282L19.5981 26.8875V23.8102C19.5981 22.1162 19.5806 20.7329 19.5572 20.7387C19.5279 20.7387 18.317 21.4304 16.8661 22.2744Z" fill="url(#paint11_linear_97_4154)"/>
<defs>
<linearGradient id="paint0_linear_97_4154" x1="26.6667" y1="28.4058" x2="-2.74066" y2="5.0441" gradientUnits="userSpaceOnUse">
<stop stop-color="#1E48FE"/>
<stop offset="1" stop-color="#BE8DF8"/>
</linearGradient>
<linearGradient id="paint1_linear_97_4154" x1="26.6667" y1="28.4058" x2="-2.74066" y2="5.0441" gradientUnits="userSpaceOnUse">
<stop stop-color="#1E48FE"/>
<stop offset="1" stop-color="#BE8DF8"/>
</linearGradient>
<linearGradient id="paint2_linear_97_4154" x1="26.6667" y1="28.4058" x2="-2.74066" y2="5.0441" gradientUnits="userSpaceOnUse">
<stop stop-color="#1E48FE"/>
<stop offset="1" stop-color="#BE8DF8"/>
</linearGradient>
<linearGradient id="paint3_linear_97_4154" x1="26.6667" y1="28.4058" x2="-2.74066" y2="5.0441" gradientUnits="userSpaceOnUse">
<stop stop-color="#1E48FE"/>
<stop offset="1" stop-color="#BE8DF8"/>
</linearGradient>
<linearGradient id="paint4_linear_97_4154" x1="26.6667" y1="28.4058" x2="-2.74066" y2="5.0441" gradientUnits="userSpaceOnUse">
<stop stop-color="#1E48FE"/>
<stop offset="1" stop-color="#BE8DF8"/>
</linearGradient>
<linearGradient id="paint5_linear_97_4154" x1="26.6667" y1="28.4058" x2="-2.74066" y2="5.0441" gradientUnits="userSpaceOnUse">
<stop stop-color="#1E48FE"/>
<stop offset="1" stop-color="#BE8DF8"/>
</linearGradient>
<linearGradient id="paint6_linear_97_4154" x1="26.6667" y1="28.4058" x2="-2.74066" y2="5.0441" gradientUnits="userSpaceOnUse">
<stop stop-color="#1E48FE"/>
<stop offset="1" stop-color="#BE8DF8"/>
</linearGradient>
<linearGradient id="paint7_linear_97_4154" x1="26.6667" y1="28.4058" x2="-2.74066" y2="5.0441" gradientUnits="userSpaceOnUse">
<stop stop-color="#1E48FE"/>
<stop offset="1" stop-color="#BE8DF8"/>
</linearGradient>
<linearGradient id="paint8_linear_97_4154" x1="26.6667" y1="28.4058" x2="-2.74066" y2="5.0441" gradientUnits="userSpaceOnUse">
<stop stop-color="#1E48FE"/>
<stop offset="1" stop-color="#BE8DF8"/>
</linearGradient>
<linearGradient id="paint9_linear_97_4154" x1="26.6667" y1="28.4058" x2="-2.74066" y2="5.0441" gradientUnits="userSpaceOnUse">
<stop stop-color="#1E48FE"/>
<stop offset="1" stop-color="#BE8DF8"/>
</linearGradient>
<linearGradient id="paint10_linear_97_4154" x1="26.6667" y1="28.4058" x2="-2.74066" y2="5.0441" gradientUnits="userSpaceOnUse">
<stop stop-color="#1E48FE"/>
<stop offset="1" stop-color="#BE8DF8"/>
</linearGradient>
<linearGradient id="paint11_linear_97_4154" x1="26.6667" y1="28.4058" x2="-2.74066" y2="5.0441" gradientUnits="userSpaceOnUse">
<stop stop-color="#1E48FE"/>
<stop offset="1" stop-color="#BE8DF8"/>
</linearGradient>
</defs>
</svg>
