<svg width="30" height="30" viewBox="0 0 30 30" fill="none" xmlns="http://www.w3.org/2000/svg">
<circle cx="15" cy="15" r="15" fill="url(#paint0_linear_97_4140)"/>
<path d="M15.8008 19.6862V21.8416H13.7749V19.6862H15.8008ZM10.7038 10.9537C11.0984 10.115 11.6812 9.46126 12.4521 8.99256C13.2291 8.5177 14.1141 8.28027 15.107 8.28027C15.9334 8.28027 16.6549 8.41903 17.2716 8.69655C17.8883 8.9679 18.3632 9.34717 18.6962 9.83436C19.0354 10.3154 19.205 10.8673 19.205 11.4902C19.205 12.1192 19.0817 12.665 18.835 13.1276C18.5883 13.5839 18.2799 14.0033 17.9099 14.3856C17.5461 14.768 17.1791 15.1503 16.8091 15.5327C16.4452 15.9089 16.1369 16.3282 15.8841 16.7908C15.6374 17.2471 15.514 17.7837 15.514 18.4004H14.0524C14.0524 17.6973 14.1665 17.0899 14.3947 16.578C14.6229 16.06 14.9066 15.5974 15.2458 15.1904C15.5849 14.7772 15.9211 14.3887 16.2541 14.0249C16.5933 13.6548 16.8769 13.2756 17.1051 12.887C17.3395 12.4924 17.4566 12.0514 17.4566 11.5642C17.4566 10.9537 17.2377 10.4727 16.7999 10.1211C16.362 9.76344 15.7915 9.5846 15.0885 9.5846C14.6876 9.5846 14.293 9.66477 13.9044 9.82511C13.5221 9.98546 13.1798 10.2044 12.8776 10.4819C12.5816 10.7533 12.3658 11.0616 12.2301 11.407L10.7038 10.9537Z" fill="white"/>
<defs>
<linearGradient id="paint0_linear_97_4140" x1="30" y1="28.4058" x2="-3.79003e-07" y2="1.5942" gradientUnits="userSpaceOnUse">
<stop stop-color="#1E48FE"/>
<stop offset="1" stop-color="#BE8DF8"/>
</linearGradient>
</defs>
</svg>
