<svg width="30" height="34" viewBox="0 0 30 34" fill="none" xmlns="http://www.w3.org/2000/svg">
<path d="M9 16C9 15.4477 9.44772 15 10 15H20C20.5523 15 21 15.4477 21 16V34H9V16Z" fill="url(#paint0_linear_102_4657)"/>
<path d="M22 24C22 23.4477 22.4477 23 23 23H29C29.5523 23 30 23.4477 30 24V34H22V24Z" fill="#9E95FA"/>
<path d="M0 27C0 26.4477 0.447715 26 1 26H7C7.55228 26 8 26.4477 8 27V34H0V27Z" fill="#9E95FA"/>
<circle cx="4" cy="22" r="3" fill="#9E95FA"/>
<circle cx="26" cy="19" r="3" fill="#9E95FA"/>
<path d="M14.6196 1.17082C14.7393 0.802296 15.2607 0.802296 15.3804 1.17082L16.4818 4.56049C16.5353 4.7253 16.6889 4.83688 16.8622 4.83688H20.4263C20.8138 4.83688 20.9749 5.33273 20.6614 5.56049L17.778 7.65542C17.6378 7.75728 17.5792 7.93782 17.6327 8.10263L18.7341 11.4923C18.8538 11.8608 18.432 12.1673 18.1185 11.9395L15.2351 9.84458C15.0949 9.74273 14.9051 9.74273 14.7649 9.84458L11.8815 11.9395C11.568 12.1673 11.1462 11.8608 11.2659 11.4923L12.3673 8.10263C12.4208 7.93782 12.3622 7.75728 12.222 7.65542L9.33856 5.56049C9.02508 5.33273 9.18619 4.83688 9.57368 4.83688H13.1378C13.3111 4.83688 13.4647 4.7253 13.5182 4.56049L14.6196 1.17082Z" fill="url(#paint1_linear_102_4657)"/>
<defs>
<linearGradient id="paint0_linear_102_4657" x1="21" y1="32.9903" x2="4.63061" y2="23.7506" gradientUnits="userSpaceOnUse">
<stop stop-color="#1E48FE"/>
<stop offset="1" stop-color="#BE8DF8"/>
</linearGradient>
<linearGradient id="paint1_linear_102_4657" x1="22" y1="13.256" x2="8" y2="0.743961" gradientUnits="userSpaceOnUse">
<stop stop-color="#1E48FE"/>
<stop offset="1" stop-color="#BE8DF8"/>
</linearGradient>
</defs>
</svg>
